<svg width="758" height="419" viewBox="0 0 758 419" fill="none" xmlns="http://www.w3.org/2000/svg">
<path fill-rule="evenodd" clip-rule="evenodd" d="M398.885 411.059H366.098C363.459 406.91 362.457 405.334 361.022 404.563C360.145 404.091 359.105 403.919 357.43 403.643L353.593 403.621L349.395 403.595L345.033 403.672L340.655 403.595L336.462 403.621L332.63 403.643C330.993 403.913 329.995 404.077 329.208 404.576C327.978 405.356 327.266 406.956 325.443 411.059H292.656L291.344 408.433C288.024 401.784 285.599 399.107 278.194 399.578C272.216 403.924 272.216 403.924 269.049 411.059H236.262L229.705 400.553C224.903 399.404 224.903 399.404 221.669 399.63L218.803 399.896C215.43 400.061 212.088 400.268 208.721 400.553L206.098 408.433H203.475L202.164 411.059H170.688L169.377 408.433C168.599 406.249 168.276 405.343 167.827 404.505C167.508 403.91 167.126 403.349 166.473 402.391L166.472 402.39C158.572 398.757 158.572 398.757 149.602 398.224L145.77 397.926C144.871 393.992 143.984 390.055 143.147 386.107C142.207 380.222 140.921 374.735 139.213 369.034C138.172 369.026 137.131 369.021 136.091 369.017V294.38L152.328 294.177C153.778 289.273 155.141 284.125 156.533 278.866L156.534 278.862L156.535 278.859C161.465 260.23 166.762 240.213 177.645 224.788C179.794 222.101 179.794 222.101 181.18 219.319C180.865 216.414 180.865 216.414 179.869 214.066C175.411 214.066 173.094 212.761 169.356 210.449L166.754 208.813C164.786 207.741 162.845 206.618 160.934 205.447C157.48 202.838 156.411 201.64 155.509 197.352C155.405 191.296 155.476 187.667 158.885 182.547C160.961 184.177 161.811 184.844 162.775 185.163C163.442 185.384 164.164 185.438 165.386 185.53L168.334 185.571L171.693 185.638L175.319 185.671C179.206 185.741 183.092 185.809 186.978 185.861C190.964 185.912 194.95 185.97 198.936 186.033C201.501 186.077 204.066 186.12 206.631 186.164C215.235 186.264 223.717 186.684 232.283 187.524L234.951 187.8V185.173L240.197 183.86C243.986 190.818 247.681 195.369 253.803 200.44C255.706 201.918 256.591 202.604 257.387 203.382C258.078 204.056 258.702 204.799 259.869 206.186L259.37 210.313L258.557 214.066C266.269 214.038 273.981 214.016 281.692 214.002C284.855 213.996 288.018 213.99 291.18 213.984C295.816 213.967 300.452 213.951 305.088 213.943L309.531 213.938C324.809 213.863 339.69 214.375 354.295 219.319C360.954 222.523 363.436 225.526 366.296 232.376L367.41 235.078C374.513 252.123 380.801 269.341 386.538 286.892C387.353 289.389 388.172 291.884 388.994 294.379C390.202 298.039 391.41 301.699 392.615 305.36L396.262 316.502L419.869 317.816L421.18 320.442C420.71 326.559 420.71 326.559 415.724 339.885L414.623 342.768C415.483 342.768 416.112 342.768 416.723 342.874C418.381 343.16 419.905 344.222 425.566 348.17L429.049 350.648C431.678 352.404 434.274 354.212 436.836 356.065C442.362 360.606 444.406 363.575 445.443 370.676C445.576 373.199 445.791 375.719 446.098 378.227C446.339 378.615 446.571 378.984 446.794 379.337L446.795 379.339C448.769 382.475 450.011 384.449 450.128 388.53L450.13 388.595L449.623 392.427L449.146 396.31L448.721 399.24V401.421V403.03L447.005 403.509L443.475 404.493C438.722 404.358 433.97 404.245 429.216 404.172C427.275 404.145 425.334 404.115 423.393 404.082C420.533 403.999 417.676 403.917 414.815 403.88L412.097 403.852C409.463 403.71 408.225 403.643 407.002 403.747C405.917 403.839 404.844 404.066 402.82 404.493L398.885 411.059ZM250.688 211.439L253.311 214.066H246.754V211.439H250.688ZM228.393 211.439V214.066H198.229V211.439H228.393Z" fill="#8A6BD1"/>
<path d="M278.229 227.199C277.997 232.818 278.585 237.027 280.534 242.291C281.026 243.638 281.517 244.985 282.024 246.373C282.557 247.792 283.09 249.212 283.639 250.674C284.184 252.154 284.73 253.634 285.292 255.159C286.379 258.104 287.472 261.047 288.57 263.987C289.737 267.119 290.885 270.255 292.015 273.4C296.037 284.455 300.433 295.363 304.871 306.256C305.573 307.982 306.272 309.711 306.967 311.44C307.954 313.89 308.957 316.332 309.96 318.775C310.833 320.916 310.833 320.916 311.723 323.1C314.092 327.934 316.584 332.423 321.507 334.888C323.717 335.014 325.931 335.056 328.144 335.058C329.527 335.062 330.91 335.067 332.335 335.071C334.583 335.067 334.583 335.067 336.876 335.063C338.409 335.064 339.942 335.065 341.521 335.067C344.767 335.067 348.013 335.065 351.258 335.06C356.241 335.053 361.223 335.059 366.205 335.068C369.352 335.067 372.5 335.065 375.647 335.063C377.145 335.065 378.644 335.068 380.188 335.071C381.571 335.067 382.954 335.063 384.379 335.058C385.6 335.057 386.821 335.056 388.079 335.055C391.016 334.888 391.016 334.888 393.639 333.575C392.898 325.352 390.979 318.195 388.265 310.418C387.858 309.227 387.451 308.036 387.032 306.809C385.72 302.977 384.393 299.151 383.065 295.325C382.162 292.703 381.26 290.081 380.359 287.459C361.383 232.369 361.383 232.369 355.606 228.512C335.336 224.033 297.557 217.521 278.229 227.199Z" fill="#1D1E1C"/>
<path d="M256.682 228.215C254.725 228.235 254.725 228.235 252.728 228.257C250.61 228.269 250.61 228.269 248.45 228.282C246.971 228.304 245.491 228.326 243.967 228.349C241.733 228.367 241.733 228.367 239.454 228.385C235.767 228.416 232.08 228.459 228.394 228.513C227.727 233.546 227.075 238.581 226.426 243.616C226.239 245.031 226.051 246.446 225.858 247.905C224.884 255.521 224.236 262.861 224.459 270.538C225.19 269.536 225.92 268.534 226.672 267.501C230.292 263.289 233.99 261.17 238.885 258.719C241.286 258.559 243.693 258.488 246.099 258.472C248.026 258.445 248.026 258.445 249.992 258.416C253.535 258.381 253.535 258.381 255.935 261.345C255.979 263.809 256.007 266.275 255.935 268.738C255.935 273.321 256.526 277.809 257.087 282.353C257.14 283.221 257.192 284.09 257.246 284.985C254.749 287.485 250.341 286.762 247 286.954C236.896 287.542 236.896 287.542 232.328 288.924C232.328 288.058 232.328 287.191 232.328 286.298C230.164 286.298 228 286.298 225.771 286.298C225.771 284.998 225.771 283.697 225.771 282.358C224.905 282.358 224.04 282.358 223.148 282.358C222.808 300.115 223.756 317.235 225.771 334.89C241.351 335.323 256.931 335.756 272.984 336.203C273.849 337.936 274.715 339.67 275.607 341.456C277.094 341.536 278.582 341.615 280.115 341.697C282.109 341.808 284.104 341.919 286.099 342.031C287.074 342.082 288.049 342.134 289.054 342.187C295.551 342.555 301.945 343.209 308.394 344.083C308.826 342.349 309.259 340.616 309.705 338.829C308.894 338.423 308.082 338.017 307.246 337.598C304.069 334.51 303.913 333.299 303.148 329.062C302.195 323.832 301.062 321.035 296.59 317.817C295.725 317.817 294.859 317.817 293.967 317.817C293.683 316.792 293.683 316.792 293.392 315.746C290.085 304.271 285.984 293.087 281.918 281.865C281.352 280.298 281.352 280.298 280.773 278.698C276.265 266.24 271.719 253.799 266.836 241.482C266.424 240.435 266.012 239.388 265.588 238.309C261.697 228.684 261.697 228.684 256.682 228.215Z" fill="#422F6D"/>
<path d="M313.64 336.202C313.64 337.069 313.64 337.936 313.64 338.829C315.661 340.349 315.661 340.349 318.481 342.014C319.505 342.628 320.528 343.242 321.583 343.874C323.21 344.83 323.21 344.83 324.869 345.806C339.042 353.341 339.042 353.341 349.05 365.094C349.483 368.995 349.915 372.895 350.361 376.914C339.542 376.914 328.722 376.914 317.574 376.914C319.05 391.689 319.05 391.689 321.509 396.613C322.963 396.678 324.417 396.742 325.915 396.808C327.834 396.907 329.753 397.006 331.673 397.106C332.63 397.147 333.587 397.187 334.572 397.229C339.528 397.5 343.515 397.815 347.738 400.553C346.088 400.12 344.438 399.687 342.738 399.24C335.636 397.632 328.755 397.683 321.509 397.927C321.509 399.66 321.509 401.394 321.509 403.18C326.688 404.145 331.591 404.661 336.857 404.668C338.252 404.669 339.647 404.671 341.084 404.673C342.522 404.668 343.961 404.663 345.443 404.657C346.862 404.662 348.28 404.667 349.741 404.673C373.671 404.644 373.671 404.644 378.886 399.897C379.86 398.813 380.833 397.73 381.837 396.613C388.093 395.068 394.365 395.06 400.771 395.054C402.198 395.03 402.198 395.03 403.653 395.005C409.889 394.988 415.335 395.511 421.181 397.927C421.802 399.054 422.422 400.182 423.061 401.343C423.739 402.383 424.417 403.422 425.115 404.493C428.926 405.03 431.913 405.18 435.689 404.986C436.65 404.967 437.611 404.948 438.602 404.929C445.615 404.736 445.615 404.736 448.722 403.18C448.695 401.853 448.668 400.525 448.64 399.158C448.574 394.026 448.574 394.026 449.624 389.226C450.034 384.794 450.034 384.794 448.174 381.736C445.2 376.706 444.981 371.797 444.296 366.069C443.425 362.245 442.567 360.916 439.542 358.528C438.676 358.961 437.811 359.395 436.919 359.841C437.352 360.275 437.784 360.708 438.23 361.155C437.344 361.314 436.459 361.473 435.546 361.637C434.376 361.857 433.206 362.077 432.001 362.304C430.266 362.624 430.266 362.624 428.497 362.95C425.287 363.739 422.747 364.806 419.87 366.408C419.87 365.108 419.87 363.807 419.87 362.468C404.289 362.468 388.709 362.468 372.656 362.468C373.531 365.97 374.405 369.472 375.279 372.974C372.014 372.238 372.014 372.238 368.722 370.348C366.923 366.369 366.923 366.369 366.099 362.468C357.411 362.14 357.411 362.14 352.984 365.094C352.416 364.011 351.848 362.928 351.263 361.811C345.713 353.533 324.253 336.202 313.64 336.202Z" fill="#6F4BC1"/>
<path d="M213.967 228.512C210.577 228.37 207.194 228.266 203.803 228.184C202.846 228.14 201.889 228.096 200.903 228.051C196.23 227.966 193.58 228.058 189.803 230.935C174.381 252.061 171.795 288.911 168.065 314.287C167.902 315.39 167.738 316.493 167.57 317.63C166.925 322.463 166.689 326.279 168.065 330.949C170.876 331.408 173.691 331.84 176.508 332.262C178.075 332.506 179.642 332.75 181.257 333.001C190.775 334.119 200.466 333.674 210.032 333.576C210.012 332.073 209.991 330.57 209.97 329.021C209.549 295.277 210.425 262.081 213.967 228.512Z" fill="#1E2223"/>
<path d="M284.786 228.513C283.488 228.513 282.189 228.513 280.852 228.513C281.577 238.349 284.538 247.131 287.737 256.42C288.239 257.957 288.741 259.494 289.258 261.078C289.764 262.554 290.269 264.031 290.79 265.552C291.242 266.888 291.694 268.224 292.159 269.6C295.222 275.641 300.554 278.518 306.179 281.947C316.945 289.128 323.563 299.006 330.305 309.797C335.864 318.631 342.047 327.637 351.671 332.263C355.65 332.656 359.493 332.581 363.475 332.263C360.852 328.323 360.852 328.323 356.753 327.42C355.509 327.284 354.265 327.149 352.983 327.009C361.757 327.698 370.489 328.46 379.212 329.636C379.212 330.503 379.212 331.37 379.212 332.263C383.107 332.263 387.003 332.263 391.016 332.263C390.415 327.706 389.847 323.498 388.393 319.13C385.053 316.919 385.053 316.919 380.852 314.615C372.994 310.283 366.742 306.209 361.671 298.692C360.887 297.54 360.102 296.389 359.294 295.203C357.726 292.793 356.194 290.358 354.704 287.898C353.974 286.693 353.243 285.487 352.491 284.245C351.859 283.16 351.226 282.075 350.575 280.957C342.445 269.921 333.04 262.988 321.016 256.666C318.341 255.204 315.671 253.735 313.003 252.26C311.746 251.565 310.489 250.87 309.194 250.154C298.97 244.355 291.324 238.334 284.786 228.513Z" fill="#BCA6EE"/>
<path d="M247.737 292.043C246.853 292.046 245.97 292.048 245.059 292.051C238.138 292.333 232.898 294.203 227.524 298.579C225.307 301.315 225.373 302.552 225.626 306.023C225.692 307.041 225.758 308.059 225.826 309.109C225.916 310.167 226.005 311.226 226.098 312.317C226.167 313.361 226.236 314.405 226.308 315.48C226.71 321.141 227.351 326.678 228.393 332.263C237.389 333.652 246.187 333.729 255.278 333.658C256.732 333.652 258.186 333.647 259.684 333.64C263.243 333.625 266.801 333.602 270.36 333.576C270.36 328.809 270.36 324.042 270.36 319.13C272.172 319.076 273.985 319.022 275.852 318.966C280.519 318.449 283.079 317.726 286.262 314.205C288.721 309.937 288.721 309.937 288.219 306.387C287.951 305.392 287.684 304.396 287.409 303.371C285.933 303.388 285.933 303.388 284.428 303.407C276.497 303.176 271.591 302.59 265.442 297.379C259.538 292.705 255.032 292.004 247.737 292.043Z" fill="#EDDA9C"/>
<path d="M190.688 186.405C187.979 186.412 185.271 186.418 182.563 186.423C175.981 186.438 169.4 186.46 162.819 186.487C164.651 191.314 166.49 194.701 169.95 198.553C170.733 199.439 171.515 200.324 172.322 201.236C174.622 203.56 174.622 203.56 178.557 206.187C178.989 207.487 179.422 208.787 179.868 210.126C184.332 211.133 188.455 211.605 193.027 211.61C194.305 211.614 195.582 211.618 196.899 211.622C198.944 211.618 198.944 211.618 201.031 211.614C203.147 211.616 203.147 211.616 205.306 211.618C208.281 211.619 211.257 211.616 214.232 211.611C218.799 211.604 223.367 211.611 227.934 211.619C230.824 211.618 233.714 211.617 236.605 211.614C238.662 211.618 238.662 211.618 240.761 211.622C242.026 211.618 243.291 211.614 244.595 211.61C245.711 211.609 246.827 211.608 247.977 211.607C250.688 211.44 250.688 211.44 253.311 210.126C251.252 205.066 247.955 202.137 244.13 198.307C243.594 197.413 243.058 196.519 242.506 195.598C238.091 188.295 238.091 188.295 233.427 187.035C219.19 186.235 204.943 186.345 190.688 186.405Z" fill="#8D68E0"/>
<path d="M179.868 263.971C178.767 269.551 177.677 275.133 176.589 280.715C176.277 282.3 175.964 283.884 175.642 285.517C175.346 287.04 175.05 288.564 174.745 290.134C174.47 291.537 174.196 292.94 173.913 294.385C173.311 298.116 173.311 298.116 173.311 303.369C174.176 303.369 175.042 303.369 175.934 303.369C176.504 304.517 176.504 304.517 177.086 305.688C177.987 307.486 178.897 309.279 179.822 311.064C182.162 315.62 184.255 320.143 186.016 324.957C187.737 329.635 187.737 329.635 189.048 330.949C192.134 331.044 195.223 331.058 198.311 331.031C200.003 331.019 201.695 331.007 203.439 330.995C204.749 330.979 206.059 330.964 207.409 330.949C207.835 306.162 206.104 287.561 188.557 269.224C182.983 263.971 182.983 263.971 179.868 263.971Z" fill="#BCA6EE"/>
<path d="M256.682 228.215C254.725 228.235 254.725 228.235 252.728 228.257C250.61 228.269 250.61 228.269 248.45 228.282C246.971 228.304 245.491 228.326 243.967 228.349C241.733 228.367 241.733 228.367 239.454 228.385C235.767 228.416 232.08 228.459 228.394 228.513C227.727 233.546 227.075 238.581 226.426 243.616C226.239 245.031 226.051 246.446 225.858 247.905C224.884 255.521 224.236 262.861 224.459 270.538C228.01 266.983 227.707 264.582 228.199 259.611C228.368 257.961 228.537 256.31 228.711 254.61C228.879 252.86 229.046 251.111 229.213 249.362C229.39 247.602 229.567 245.842 229.746 244.083C230.18 239.769 230.6 235.455 231.017 231.14C244.649 231.79 244.649 231.79 258.558 232.453C261.856 239.059 264.586 244.672 266.918 251.496C269.281 258.295 271.738 265.042 274.295 271.77C278.08 281.776 281.473 291.885 284.787 302.057C285.66 304.684 286.533 307.311 287.41 309.937C286.544 310.75 285.679 311.562 284.787 312.399C282.164 315.19 282.164 315.19 282.164 317.817C281.327 317.802 280.49 317.786 279.628 317.771C278.545 317.759 277.461 317.747 276.344 317.735C275.264 317.719 274.184 317.704 273.071 317.689C270.361 317.817 270.361 317.817 269.049 319.13C268.852 324.362 269.086 328.469 270.361 333.576C256.512 333.143 242.662 332.71 228.394 332.263C227.484 317.819 226.61 303.373 225.771 288.924C225.338 288.924 224.905 288.924 224.459 288.924C224.421 294.123 224.398 299.321 224.377 304.52C224.366 305.976 224.355 307.432 224.344 308.932C224.34 310.371 224.336 311.81 224.331 313.292C224.324 314.599 224.317 315.906 224.31 317.252C224.505 323.148 225.185 329.019 225.771 334.89C241.351 335.323 256.931 335.756 272.984 336.203C273.849 337.936 274.715 339.67 275.607 341.456C277.094 341.536 278.582 341.615 280.115 341.697C282.109 341.808 284.104 341.919 286.099 342.031C287.074 342.082 288.049 342.134 289.054 342.187C295.551 342.555 301.945 343.209 308.394 344.083C308.826 342.349 309.259 340.616 309.705 338.829C308.894 338.423 308.082 338.017 307.246 337.598C304.069 334.51 303.913 333.299 303.148 329.062C302.195 323.832 301.062 321.035 296.59 317.817C295.725 317.817 294.859 317.817 293.967 317.817C293.683 316.792 293.683 316.792 293.392 315.746C290.085 304.271 285.984 293.087 281.918 281.865C281.352 280.298 281.352 280.298 280.773 278.698C276.265 266.24 271.719 253.799 266.836 241.482C266.424 240.435 266.012 239.388 265.588 238.309C261.697 228.684 261.697 228.684 256.682 228.215Z" fill="#1E1B17"/>
<path d="M293.966 274.478C294.771 280.972 296.755 286.656 299.238 292.664C299.631 293.628 300.024 294.592 300.43 295.586C301.26 297.615 302.095 299.643 302.933 301.668C304.208 304.755 305.462 307.849 306.715 310.944C307.527 312.923 308.341 314.9 309.156 316.877C309.526 317.795 309.897 318.714 310.279 319.659C312.792 325.671 315.45 331.856 321.507 334.889C324.856 335.003 328.169 335.041 331.518 335.017C332.997 335.014 332.997 335.014 334.506 335.012C337.659 335.004 340.813 334.988 343.966 334.971C346.103 334.964 348.239 334.958 350.375 334.953C355.616 334.939 360.857 334.916 366.098 334.889C366.098 334.456 366.098 334.022 366.098 333.576C365.303 333.603 364.509 333.63 363.69 333.658C353.074 333.396 347.089 329.346 339.868 321.756C333.46 313.928 328.047 305.377 322.573 296.886C316.783 288.164 305.354 274.478 293.966 274.478Z" fill="#1C1B16"/>
<path d="M320.935 226.788C319.308 226.833 319.308 226.833 317.649 226.878C315 226.955 312.352 227.073 309.706 227.199C314.421 232.278 319.343 235.928 325.279 239.511C336.534 246.58 343.886 254.703 351.88 265.298C358.784 274.415 365.991 283.457 375.279 290.237C376.145 290.237 377.011 290.237 377.902 290.237C377.369 288.072 376.819 285.911 376.263 283.752C375.807 281.947 375.807 281.947 375.341 280.105C372.027 269.692 367.482 261.634 360.443 253.3C359.731 252.429 359.018 251.557 358.284 250.658C353.345 244.69 348.19 239.018 342.493 233.765C341.772 233.099 341.051 232.434 340.308 231.748C334.075 226.621 328.804 226.376 320.935 226.788Z" fill="#BCA6EE"/>
<path d="M283.475 379.541C283.042 379.541 282.609 379.541 282.163 379.541C282.163 381.708 282.163 383.875 282.163 386.107C281.282 386.107 280.4 386.107 279.492 386.107C255.902 386.107 232.311 386.107 208.721 386.107C207.855 385.674 206.989 385.241 206.098 384.794C203.038 384.741 199.977 384.737 196.917 384.794C196.917 385.661 196.917 386.528 196.917 387.421C197.739 387.455 198.561 387.488 199.407 387.523C200.479 387.598 201.551 387.672 202.655 387.749C203.72 387.81 204.785 387.871 205.882 387.934C208.952 388.445 208.952 388.445 210.237 391.32C210.602 392.2 210.967 393.08 211.344 393.987C214.13 395.629 214.13 395.629 216.589 396.614C216.589 395.747 216.589 394.88 216.589 393.987C218.753 393.987 220.917 393.987 223.147 393.987C223.147 394.854 223.147 395.721 223.147 396.614C221.416 396.614 219.685 396.614 217.901 396.614C217.901 397.481 217.901 398.347 217.901 399.24C213.926 397.08 211.171 395.115 208.065 391.771C204.786 388.734 204.786 388.734 201.098 388.324C200.151 388.459 199.204 388.595 198.229 388.734C200.225 394.132 203.635 397.962 208.721 400.554C214.433 401.467 220.07 401.318 225.841 401.195C227.49 401.186 229.138 401.176 230.836 401.167C235.196 401.136 239.554 401.077 243.914 401.005C248.371 400.937 252.829 400.907 257.286 400.874C266.016 400.802 274.745 400.689 283.475 400.554C283.475 393.619 283.475 386.685 283.475 379.541Z" fill="#886CC9"/>
<path d="M238.886 257.405C232.681 259.551 229.136 262.256 225.772 267.911C224.602 272.251 223.804 276.599 223.149 281.044C224.014 281.044 224.88 281.044 225.772 281.044C225.339 283.211 224.906 285.378 224.46 287.61C227.057 287.177 229.654 286.744 232.329 286.297C232.329 287.164 232.329 288.031 232.329 288.924C236.21 288.775 240.089 288.608 243.968 288.431C245.072 288.391 246.176 288.35 247.314 288.308C248.37 288.257 249.427 288.207 250.515 288.154C251.491 288.113 252.466 288.072 253.471 288.029C255.936 287.61 255.936 287.61 258.559 284.984C258.948 281.076 258.553 277.161 258.313 273.246C258.271 272.164 258.23 271.081 258.187 269.966C258.129 268.924 258.07 267.882 258.01 266.808C257.959 265.855 257.908 264.902 257.856 263.92C255.703 254.813 246.246 256.634 238.886 257.405Z" fill="#918EFA"/>
<path d="M174.623 370.348C170.877 372.65 168.651 374.652 166.344 378.392C164.14 387.621 164.677 395.327 169.157 403.714C170.688 405.807 170.688 405.807 174.623 408.433C179.733 408.992 182.611 409.304 186.836 406.217C192.041 399.074 192.762 392.149 191.672 383.481C188.663 374.531 184.857 369.118 174.623 370.348Z" fill="#CCBC88"/>
<path d="M296.59 370.348C292.844 372.649 290.618 374.651 288.311 378.391C286.107 387.62 286.644 395.327 291.124 403.713C292.655 405.806 292.655 405.806 296.59 408.433C301.098 409.008 301.098 409.008 305.77 408.433C311.84 402.847 313.726 396.122 314.131 388.077C314.002 382.176 312.201 378.863 308.393 374.287C307.501 373.069 307.501 373.069 306.59 371.825C303.147 369.438 300.66 369.777 296.59 370.348Z" fill="#D0BF89"/>
<path d="M139.213 369.034C140.374 389.76 140.374 389.76 144.459 397.927C149.882 401.296 155.333 400.763 161.508 400.553C161.541 399.825 161.574 399.097 161.607 398.346C161.76 395.032 161.921 391.719 162.082 388.405C162.133 387.259 162.185 386.113 162.238 384.932C162.293 383.823 162.348 382.715 162.404 381.572C162.453 380.554 162.501 379.536 162.55 378.488C162.744 375.568 162.744 375.568 163.583 372.683C163.764 371.912 163.945 371.142 164.131 370.348C161.617 367.831 157.248 368.456 153.885 368.214C151.438 368.026 151.438 368.026 148.941 367.834C145.25 367.741 142.663 367.868 139.213 369.034Z" fill="#8A6BD1"/>
<path d="M270.36 223.26C269.494 223.26 268.629 223.26 267.737 223.26C270.728 232.603 274.22 241.666 277.901 250.757C279.08 253.693 280.258 256.629 281.436 259.565C282.009 260.993 282.583 262.421 283.174 263.893C289.446 279.526 295.356 295.214 300.735 311.181C303.341 318.847 306.278 326.24 309.704 333.576C309.894 332.736 310.083 331.897 310.278 331.032C310.767 328.355 310.767 328.355 312.327 327.01C312.76 326.143 313.193 325.276 313.639 324.383C312.487 321.078 311.244 317.914 309.878 314.697C309.038 312.666 308.197 310.634 307.356 308.602C306.91 307.533 306.463 306.464 306.002 305.363C298.605 287.646 291.614 269.907 285.594 251.67C285.17 250.39 284.746 249.11 284.31 247.792C283.954 246.691 283.599 245.59 283.232 244.456C282.163 241.646 282.163 241.646 279.54 237.706C279.54 238.573 279.54 239.439 279.54 240.333C278.675 240.333 277.809 240.333 276.917 240.333C276.664 239.54 276.41 238.748 276.149 237.932C275.807 236.882 275.466 235.832 275.114 234.751C274.612 233.197 274.612 233.197 274.1 231.611C273.046 228.689 271.806 226.005 270.36 223.26Z" fill="#604E88"/>
<path d="M313.64 336.202C313.64 337.069 313.64 337.936 313.64 338.829C315.661 340.349 315.661 340.349 318.481 342.014C319.505 342.628 320.528 343.242 321.583 343.874C323.21 344.83 323.21 344.83 324.869 345.806C339.042 353.341 339.042 353.341 349.05 365.094C349.483 368.995 349.915 372.895 350.361 376.914C339.542 376.914 328.722 376.914 317.574 376.914C318.007 377.781 318.44 378.648 318.886 379.541C336.197 379.541 353.509 379.541 371.345 379.541C371.345 378.674 371.345 377.807 371.345 376.914C372.643 376.481 373.942 376.047 375.279 375.601C375.279 374.734 375.279 373.867 375.279 372.974C374.251 372.703 373.224 372.432 372.165 372.153C368.316 370.601 368.316 370.601 367.001 366.244C366.703 364.998 366.406 363.752 366.099 362.468C357.41 362.14 357.41 362.14 352.984 365.094C352.132 363.469 352.132 363.469 351.263 361.811C345.713 353.533 324.253 336.202 313.64 336.202Z" fill="#1D1B17"/>
<path d="M201.097 388.324C200.15 388.46 199.204 388.595 198.228 388.735C200.208 394.087 203.914 397.648 208.72 400.554C213.397 401.242 213.397 401.242 218.638 401.047C219.582 401.018 220.525 400.989 221.497 400.959C223.554 400.889 225.611 400.804 227.667 400.705C231.264 400.543 234.859 400.456 238.459 400.375C240.95 400.3 243.442 400.224 245.933 400.144C247.722 400.1 247.722 400.1 249.548 400.056C251.223 399.985 251.223 399.985 252.931 399.913C254.418 399.861 254.418 399.861 255.935 399.809C259.202 399.101 260.303 397.762 262.491 395.301C265.154 394.006 265.154 394.006 267.982 393.085C268.921 392.755 269.859 392.425 270.826 392.085C271.537 391.846 272.249 391.607 272.982 391.361C272.982 390.928 272.982 390.494 272.982 390.048C266.517 389.918 260.053 389.823 253.587 389.759C251.388 389.733 249.188 389.697 246.989 389.652C243.828 389.588 240.668 389.558 237.506 389.535C236.522 389.508 235.538 389.481 234.525 389.453C231.741 389.452 231.741 389.452 227.081 390.048C224.641 392.645 224.641 392.645 223.146 395.301C220.4 396.347 220.4 396.347 217.9 396.614C217.9 397.481 217.9 398.348 217.9 399.241C213.926 397.08 211.171 395.116 208.064 391.772C204.786 388.735 204.786 388.735 201.097 388.324Z" fill="#8A6BD1"/>
<path d="M419.869 362.469C404.722 362.469 389.574 362.469 373.968 362.469C384.051 374.249 384.051 374.249 387.526 374.587C388.776 374.573 390.026 374.559 391.314 374.545C393.343 374.532 393.343 374.532 395.412 374.519C396.829 374.497 398.246 374.475 399.705 374.453C401.132 374.441 402.559 374.429 404.029 374.417C407.561 374.386 411.092 374.342 414.623 374.288C419.869 365.424 419.869 365.424 419.869 362.469Z" fill="#2F2E2C"/>
<path d="M255.935 269.225C252.327 269.374 248.722 269.541 245.115 269.717C244.096 269.758 243.077 269.798 242.026 269.84C232.69 270.32 232.69 270.32 228.394 273.164C228.722 276.284 228.722 276.284 229.705 279.731C232.083 281.126 232.083 281.126 234.951 282.358C235.71 283.24 236.47 284.122 237.252 285.03C241.084 288.387 243.211 288.239 248.23 288.103C249.613 288.086 250.996 288.069 252.421 288.052C255.935 287.611 255.935 287.611 258.558 284.984C258.573 281.947 258.573 281.947 258.148 278.418C258.018 277.253 257.888 276.088 257.754 274.888C257.247 271.851 257.247 271.851 255.935 269.225Z" fill="#E79084"/>
<path d="M160.197 182.547C157.342 184.838 156.344 186.134 155.509 189.755C155.118 199.515 155.118 199.515 158.291 203.447C161.015 205.508 163.756 207.18 166.754 208.813C167.613 209.353 168.472 209.893 169.357 210.449C173.094 212.761 175.411 214.066 179.869 214.066C180.734 215.799 181.6 217.533 182.492 219.319C186.315 217.909 188.758 216.984 191.672 214.066C195.086 214.487 195.086 214.487 198.229 215.379C197.797 213.646 197.364 211.912 196.918 210.126C191.292 210.126 185.666 210.126 179.869 210.126C179.436 208.392 179.003 206.659 178.557 204.873C176.365 202.764 176.365 202.764 173.639 200.687C168.519 196.443 165.656 192.168 162.702 186.251C161.508 183.86 161.508 183.86 160.197 182.547Z" fill="#1B1A16"/>
<path d="M173.311 304.683C172.013 305.116 170.715 305.549 169.377 305.996C168.511 313.797 167.646 321.598 166.754 329.635C173.943 331.692 177.933 332.572 185.033 332.426C186.532 332.402 188.032 332.378 189.577 332.354C190.701 332.324 191.825 332.293 192.983 332.262C191.685 331.395 190.387 330.528 189.049 329.635C187.373 326.088 187.373 326.088 185.934 322.002C183.385 315.563 181.275 311.645 175.934 307.309C175.069 306.442 174.203 305.576 173.311 304.683Z" fill="#1C1C19"/>
<path d="M419.869 317.816C412.079 317.816 404.288 317.816 396.262 317.816C398.078 326.908 402.371 333.199 408.967 339.65C410.468 340.544 410.468 340.544 412 341.456C413.298 341.022 414.597 340.589 415.934 340.142C417.512 336.464 417.512 336.464 418.885 331.852C419.352 330.34 419.818 328.829 420.299 327.271C421.18 323.07 421.18 323.07 419.869 317.816Z" fill="#1A1814"/>
<path d="M439.541 358.528C438.675 358.962 437.81 359.395 436.918 359.842C437.351 360.275 437.783 360.708 438.229 361.155C436.923 361.325 436.923 361.325 435.591 361.499C427.707 362.755 423.546 364.02 418.557 370.348C420.852 375.437 420.852 375.437 423.803 376.914C423.803 377.781 423.803 378.648 423.803 379.541C427.055 379.576 430.306 379.602 433.557 379.623C434.485 379.634 435.412 379.645 436.367 379.656C438.737 379.668 441.107 379.61 443.475 379.541C445.522 377.492 445.058 375.484 445.115 372.646C445.068 366.745 443.804 362.798 439.541 358.528Z" fill="#8A6BD1"/>
<path d="M256.383 227.618C255.092 227.659 253.801 227.701 252.471 227.743C251.068 227.769 249.664 227.794 248.219 227.82C246.762 227.886 245.304 227.952 243.803 228.02C241.586 228.074 241.586 228.074 239.325 228.128C235.679 228.221 232.037 228.35 228.393 228.513C227.726 233.546 227.075 238.58 226.426 243.616C226.238 245.031 226.05 246.446 225.857 247.904C224.883 255.52 224.235 262.86 224.459 270.538C228.009 266.982 227.706 264.581 228.198 259.611C228.367 257.96 228.536 256.31 228.711 254.609C228.878 252.86 229.046 251.111 229.213 249.361C229.389 247.601 229.567 245.842 229.745 244.082C230.179 239.769 230.599 235.454 231.016 231.139C244.649 231.789 244.649 231.789 258.557 232.453C261.856 239.059 264.586 244.672 266.918 251.495C269.28 258.295 271.736 265.042 274.295 271.769C277.545 280.339 280.467 288.982 283.244 297.717C284.766 301.999 286.605 305.92 288.721 309.937C289.586 309.937 290.452 309.937 291.344 309.937C288.683 300.682 285.649 291.622 282.332 282.583C281.856 281.28 281.379 279.976 280.887 278.633C279.886 275.9 278.881 273.167 277.875 270.435C276.343 266.267 274.825 262.093 273.308 257.918C272.328 255.25 271.347 252.582 270.365 249.915C269.917 248.676 269.469 247.436 269.007 246.159C262.725 229.246 262.725 229.246 256.383 227.618Z" fill="#1D2731"/>
<path d="M213.967 228.512C210.551 228.441 207.137 228.389 203.721 228.348C202.753 228.326 201.785 228.304 200.788 228.281C195.721 228.236 193.365 228.258 189.049 231.139C189.049 232.439 189.049 233.739 189.049 235.079C191.733 237.577 191.733 237.577 195.278 240.25C203.693 245.965 203.693 245.965 208.209 254.511C208.269 255.791 208.33 257.071 208.393 258.39C208.467 259.683 208.542 260.976 208.618 262.309C208.652 263.291 208.686 264.273 208.721 265.284C209.154 265.284 209.586 265.284 210.032 265.284C210.693 260.141 211.347 254.997 212 249.853C212.187 248.394 212.375 246.935 212.568 245.431C212.746 244.026 212.923 242.621 213.106 241.173C213.271 239.88 213.436 238.587 213.606 237.255C213.967 233.765 213.967 233.765 213.967 228.512Z" fill="#1B1B19"/>
<path d="M189.049 236.393C186.947 240.996 185.855 244.461 186.426 249.525C188.398 251.762 188.398 251.762 191.098 253.794C196.413 258.084 200.306 262.777 204.33 268.276C204.914 269.022 205.497 269.769 206.098 270.538C206.531 270.538 206.963 270.538 207.409 270.538C210.254 253.445 210.254 253.445 206.656 247.33C203.975 244.689 201.312 242.483 198.229 240.332C197.328 239.594 196.427 238.856 195.498 238.096C192.983 236.393 192.983 236.393 189.049 236.393Z" fill="#BCA6EE"/>
<path d="M363.311 380.772C362.322 380.778 361.333 380.784 360.314 380.79C357.871 380.805 355.427 380.829 352.983 380.854C352.912 383.179 352.862 385.505 352.819 387.831C352.789 389.126 352.758 390.421 352.727 391.755C352.983 395.3 352.983 395.3 355.606 399.24C359.167 399.717 359.167 399.717 363.393 399.65C364.784 399.645 366.176 399.64 367.609 399.635C371.344 399.24 371.344 399.24 375.278 396.613C375.278 395.747 375.278 394.88 375.278 393.987C373.98 394.42 372.682 394.854 371.344 395.3C371.344 391.833 371.344 388.366 371.344 384.794C373.075 384.794 374.806 384.794 376.59 384.794C376.59 383.927 376.59 383.06 376.59 382.167C372.409 380.074 367.896 380.72 363.311 380.772Z" fill="#1B1C1B"/>
<path d="M291.344 375.601C287.467 379.483 287.157 383.045 287 388.323C287.059 395.069 288.657 400.342 292.656 405.806C297.161 408.814 299.194 408.667 304.459 408.433C304.459 407.566 304.459 406.699 304.459 405.806C305.325 405.373 306.19 404.939 307.082 404.493C306.364 400.061 305.699 397.818 303.148 393.987C301.849 393.553 300.551 393.12 299.213 392.673C298.315 389.616 297.445 386.55 296.59 383.48C295.014 380.676 293.247 378.205 291.344 375.601Z" fill="#C8B885"/>
<path d="M433.722 380.526C432.811 380.499 431.901 380.472 430.963 380.444C428.317 380.424 428.317 380.424 423.804 380.854C422.938 382.155 422.072 383.455 421.181 384.794C422.912 384.794 424.643 384.794 426.426 384.794C426.426 388.261 426.426 391.729 426.426 395.301C425.128 394.867 423.83 394.434 422.492 393.987C422.492 394.854 422.492 395.721 422.492 396.614C426.903 399.559 428.555 399.596 433.722 399.569C434.995 399.576 436.268 399.582 437.579 399.589C440.853 399.241 440.853 399.241 443.476 396.614C444.065 393.244 444.065 393.244 444.377 389.309C444.491 388.007 444.604 386.705 444.721 385.364C444.742 384.309 444.764 383.254 444.787 382.168C442.18 379.557 437.276 380.552 433.722 380.526Z" fill="#1B1D1D"/>
<path d="M241.509 309.937C241.076 309.937 240.643 309.937 240.197 309.937C240.197 312.103 240.197 314.27 240.197 316.503C239.332 316.936 238.466 317.37 237.574 317.816C238.886 319.13 238.886 319.13 242.17 319.258C244.155 319.235 244.155 319.235 246.181 319.212C247.508 319.2 248.835 319.188 250.203 319.176C251.742 319.153 251.742 319.153 253.312 319.13C252.014 321.08 252.014 321.08 250.689 323.069C250.586 326.132 250.574 329.2 250.689 332.262C246.794 332.262 242.899 332.262 238.886 332.262C238.886 332.696 238.886 333.129 238.886 333.576C249.273 333.576 259.66 333.576 270.361 333.576C269.929 328.809 269.496 324.041 269.05 319.13C263.059 317.93 257.641 317.664 251.591 317.734C250.62 317.74 249.648 317.746 248.648 317.752C246.268 317.768 243.888 317.791 241.509 317.816C241.509 315.216 241.509 312.616 241.509 309.937Z" fill="#E7A482"/>
<path d="M399.541 396.121C398.187 396.089 396.833 396.057 395.438 396.024C385.523 395.985 385.523 395.985 380.238 399.107C377.902 401.867 377.902 401.867 377.902 404.494C392.617 404.494 407.332 404.494 422.492 404.494C422.059 402.76 421.627 401.027 421.181 399.24C414.382 395.486 407.094 396.131 399.541 396.121Z" fill="#886CC9"/>
<path d="M178.886 369.938C173.598 370.447 171.74 371.82 168.066 375.601C164.358 381.613 165.205 388.475 165.443 395.3C169.951 393.577 169.951 393.577 174.623 391.361C175.056 390.06 175.489 388.76 175.935 387.421C178.578 386.458 178.578 386.458 181.181 386.107C181.654 383.729 182.117 381.348 182.574 378.966C182.833 377.641 183.092 376.315 183.358 374.95C183.505 373.864 183.652 372.779 183.804 371.661C182.492 370.348 182.492 370.348 178.886 369.938Z" fill="#CBBB87"/>
<path d="M296.59 342.769C295.292 343.419 295.292 343.419 293.967 344.082C293.642 345.734 293.318 347.386 292.983 349.089C291.612 355.256 288.689 356.395 283.475 359.841C279.756 365.837 277.905 371.149 278.229 378.227C277.272 378.133 276.316 378.038 275.33 377.94C262.699 376.816 250.253 376.817 237.574 376.914C235.842 369.113 234.111 361.312 232.328 353.275C231.895 353.275 231.462 353.275 231.016 353.275C230.87 355.188 230.771 357.104 230.688 359.02C230.627 360.087 230.567 361.154 230.504 362.252C231.016 366.408 231.016 366.408 236.262 379.541C257.685 380.191 257.685 380.191 279.541 380.854C281.272 375.22 283.003 369.586 284.787 363.781C288.805 360.167 288.805 360.167 293.04 356.82C296.545 353.325 296.544 349.814 296.672 345.031C296.645 344.284 296.618 343.538 296.59 342.769Z" fill="#1D1B17"/>
<path d="M366.099 362.467C357.247 362.303 357.247 362.303 354.296 363.781C353.753 366.782 353.753 366.782 353.476 370.429C353.378 371.636 353.28 372.843 353.179 374.087C353.115 375.02 353.05 375.952 352.984 376.914C355.716 376.949 358.449 376.975 361.181 376.996C363.463 377.018 363.463 377.018 365.792 377.042C369.259 376.937 371.998 376.633 375.279 375.6C375.279 374.733 375.279 373.867 375.279 372.974C374.251 372.703 373.224 372.432 372.165 372.153C368.316 370.601 368.316 370.601 367.001 366.243C366.703 364.997 366.406 363.751 366.099 362.467Z" fill="#8A6BD1"/>
<path d="M196.918 384.794C196.918 385.661 196.918 386.528 196.918 387.421C198.151 387.471 198.151 387.471 199.408 387.523C200.48 387.598 201.552 387.672 202.656 387.749C203.721 387.81 204.786 387.871 205.883 387.934C208.953 388.445 208.953 388.445 210.238 391.32C210.603 392.2 210.968 393.08 211.344 393.987C214.131 395.629 214.131 395.629 216.59 396.614C216.59 395.747 216.59 394.88 216.59 393.987C219.187 394.421 221.784 394.854 224.459 395.3C225.325 393.567 226.19 391.833 227.082 390.047C254.348 390.697 254.348 390.697 282.164 391.361C282.164 390.494 282.164 389.627 282.164 388.734C281.269 388.723 280.374 388.713 279.452 388.702C270.155 388.589 260.859 388.458 251.562 388.317C248.091 388.267 244.619 388.221 241.148 388.18C236.163 388.12 231.18 388.044 226.196 387.964C223.86 387.942 223.86 387.942 221.476 387.919C220.032 387.892 218.589 387.866 217.101 387.839C215.828 387.822 214.556 387.804 213.245 387.786C207.164 387.094 203.652 384.54 196.918 384.794Z" fill="#8A6BD1"/>
<path d="M415.934 365.095C404.248 365.095 392.563 365.095 380.524 365.095C383.147 370.348 383.147 370.348 384.458 371.661C386.602 371.775 388.751 371.802 390.898 371.789C392.195 371.785 393.493 371.781 394.83 371.777C396.195 371.766 397.56 371.755 398.966 371.743C400.337 371.737 401.707 371.731 403.119 371.725C406.516 371.71 409.913 371.688 413.311 371.661C414.176 369.494 415.042 367.327 415.934 365.095Z" fill="#8A6BD1"/>
<path d="M240.197 183.86C238.466 184.294 236.735 184.727 234.951 185.174C239.332 194.679 245.822 202.894 253.312 210.126C252.446 210.126 251.581 210.126 250.689 210.126C250.689 210.993 250.689 211.86 250.689 212.753C253.286 213.186 255.882 213.619 258.558 214.066C259.593 210.485 259.593 210.485 259.869 206.186C257.359 203.201 257.359 203.201 253.804 200.441C247.681 195.369 243.987 190.818 240.197 183.86Z" fill="#1A1916"/>
<path d="M308.394 374.287C307.095 374.287 305.797 374.287 304.459 374.287C304.238 376.175 304.02 378.063 303.803 379.951C303.682 381.002 303.56 382.053 303.435 383.136C302.951 388.147 303.21 390.982 305.771 395.3C307.902 397.598 307.902 397.598 309.705 399.24C312.328 397.926 312.328 397.926 313.639 393.986C314.375 387.646 314.19 383.25 311.262 377.488C310.316 376.432 309.369 375.375 308.394 374.287Z" fill="#DAA671"/>
<path d="M189.049 384.794C185.852 385.779 185.852 385.779 182.492 387.421C181.426 390.211 181.426 390.211 181.18 392.674C180.315 392.674 179.449 392.674 178.557 392.674C177.692 397.441 176.826 402.208 175.934 407.12C185.266 405.846 185.266 405.846 189.049 403.18C190.573 398.968 190.307 395.436 189.787 391.032C189.653 389.861 189.52 388.689 189.382 387.482C189.272 386.595 189.162 385.708 189.049 384.794Z" fill="#E39663"/>
<path d="M224.46 342.769C224.027 344.069 223.594 345.369 223.148 346.709C225.254 349.237 226.398 350.531 229.697 351.096C230.665 351.075 231.633 351.055 232.631 351.033C233.683 351.021 234.736 351.008 235.82 350.995C236.913 350.962 238.006 350.929 239.132 350.895C240.24 350.877 241.348 350.859 242.49 350.841C245.224 350.795 247.957 350.724 250.689 350.649C250.257 348.482 249.824 346.315 249.378 344.082C246.701 343.859 244.023 343.641 241.345 343.425C239.109 343.243 239.109 343.243 236.827 343.056C232.688 342.792 228.605 342.718 224.46 342.769Z" fill="#38332B"/>
<path d="M154.95 380.854C150.622 380.854 146.294 380.854 141.835 380.854C139.933 384.663 141.241 386.842 142.409 390.867C142.786 392.184 143.163 393.502 143.552 394.858C143.851 395.871 144.15 396.883 144.458 397.926C150.688 399.404 150.688 399.404 153.639 397.926C153.639 397.059 153.639 396.193 153.639 395.3C152.773 394.866 151.908 394.433 151.016 393.986C150.482 390.938 150.04 387.871 149.704 384.793C151.868 384.793 154.032 384.793 156.262 384.793C155.829 383.493 155.396 382.193 154.95 380.854Z" fill="#8A6BD1"/>
<path d="M349.049 325.696C353.357 328.571 357.19 329.633 362.164 330.949C359.135 331.382 356.105 331.816 352.984 332.262C352.984 332.696 352.984 333.129 352.984 333.575C365.102 333.575 377.22 333.575 389.705 333.575C389.705 333.142 389.705 332.709 389.705 332.262C386.243 332.262 382.78 332.262 379.213 332.262C379.213 331.395 379.213 330.529 379.213 329.636C368.965 326.981 359.654 325.483 349.049 325.696Z" fill="#2A3A43"/>
<path d="M425.116 363.78C421.919 366.407 421.919 366.407 419.87 369.034C420.303 370.334 420.735 371.634 421.181 372.973C426.808 372.973 432.434 372.973 438.23 372.973C438.23 370.373 438.23 367.773 438.23 365.094C433.519 363.521 430.064 363.346 425.116 363.78Z" fill="#686149"/>
<path d="M208.722 288.924C208.289 288.924 207.856 288.924 207.41 288.924C205.462 302.826 205.147 317.068 207.41 330.949C206.43 330.919 205.449 330.888 204.439 330.857C203.147 330.833 201.856 330.809 200.525 330.785C199.247 330.754 197.969 330.724 196.652 330.693C192.984 330.949 192.984 330.949 187.738 333.576C195.096 333.576 202.453 333.576 210.033 333.576C209.6 318.841 209.168 304.105 208.722 288.924Z" fill="#22323E"/>
<path d="M321.508 395.301C321.075 397.034 320.642 398.768 320.196 400.554C318.465 400.987 316.734 401.421 314.95 401.867C316.682 401.867 318.413 401.867 320.196 401.867C320.196 402.734 320.196 403.601 320.196 404.494C317.6 404.494 315.003 404.494 312.327 404.494C312.327 405.361 312.327 406.227 312.327 407.12C311.462 407.12 310.596 407.12 309.705 407.12C309.705 407.987 309.705 408.854 309.705 409.747C313.167 409.747 316.629 409.747 320.196 409.747C320.629 408.013 321.062 406.28 321.508 404.494C324.105 404.494 326.701 404.494 329.377 404.494C329.377 404.06 329.377 403.627 329.377 403.181C326.78 403.181 324.183 403.181 321.508 403.181C321.508 401.447 321.508 399.713 321.508 397.927C324.869 398.335 328.229 398.746 331.59 399.159C333.009 399.33 333.009 399.33 334.456 399.505C339.37 400.112 344.207 400.806 349.049 401.867C343.742 396.312 339.286 396.268 331.836 395.875C330.847 395.819 329.858 395.762 328.839 395.703C326.395 395.564 323.952 395.432 321.508 395.301Z" fill="#212E39"/>
<path d="M401.017 393.741C400.077 393.725 399.137 393.709 398.169 393.693C391.44 393.674 385.627 394.508 379.214 396.614C378.348 397.914 377.482 399.215 376.591 400.554C380.525 400.554 380.525 400.554 384.46 397.928C387.653 397.523 387.653 397.523 391.212 397.579C393.19 397.574 393.19 397.574 395.207 397.568C396.584 397.579 397.96 397.589 399.378 397.599C400.744 397.589 402.11 397.579 403.517 397.568C404.839 397.572 406.161 397.575 407.523 397.579C409.33 397.583 409.33 397.583 411.172 397.588C414.997 397.964 417.781 398.762 421.181 400.554C421.614 401.854 422.046 403.154 422.492 404.494C423.358 404.494 424.223 404.494 425.115 404.494C424.379 400.216 423.423 397.878 419.869 395.301C413.571 393.912 407.431 393.747 401.017 393.741Z" fill="#1B1C1B"/>
<path d="M233.64 270.537C231.476 270.97 229.312 271.404 227.083 271.85C227.083 273.151 227.083 274.451 227.083 275.79C225.784 276.224 224.486 276.657 223.148 277.104C223.148 278.404 223.148 279.704 223.148 281.043C224.014 281.043 224.879 281.043 225.771 281.043C225.338 283.21 224.905 285.377 224.46 287.61C228.355 286.96 228.355 286.96 232.328 286.297C232.328 287.163 232.328 288.03 232.328 288.923C236.223 288.273 236.223 288.273 240.197 287.61C237.063 283.351 234.683 280.375 229.705 278.417C229.705 276.683 229.705 274.95 229.705 273.164C231.004 272.297 232.302 271.43 233.64 270.537Z" fill="#8987E6"/>
<path d="M186.426 372.974C185.128 373.407 183.829 373.84 182.492 374.287C182.059 378.187 181.626 382.088 181.18 386.107C182.479 386.54 183.777 386.973 185.115 387.42C186.413 386.553 187.711 385.686 189.049 384.793C189.049 389.127 189.049 393.461 189.049 397.926C189.915 397.493 190.78 397.059 191.672 396.613C192.373 387.098 191.3 381.209 186.426 372.974Z" fill="#CDB580"/>
<path d="M169.377 375.601C166.196 378.786 165.491 380.951 165.315 385.425C165.33 386.598 165.345 387.771 165.361 388.98C165.373 390.163 165.385 391.346 165.397 392.566C165.412 393.468 165.427 394.37 165.443 395.3C174.099 392.306 174.099 392.306 176.263 388.405C175.771 382.994 172.778 379.689 169.377 375.601Z" fill="#B7A879"/>
<path d="M282.164 392.674C279.402 393.009 276.643 393.37 273.885 393.741C272.349 393.939 270.812 394.137 269.229 394.341C265.115 395.3 265.115 395.3 261.18 399.24C271.567 399.89 271.567 399.89 282.164 400.554C282.164 397.953 282.164 395.353 282.164 392.674Z" fill="#8A6BD1"/>
<path d="M196.918 210.126C191.292 210.126 185.666 210.126 179.869 210.126C180.734 213.16 181.6 216.193 182.492 219.319C186.315 217.909 188.758 216.984 191.672 214.066C195.086 214.487 195.086 214.487 198.229 215.379C197.797 213.646 197.364 211.912 196.918 210.126Z" fill="#1B2022"/>
<path d="M225.77 288.924C225.337 288.924 224.904 288.924 224.459 288.924C224.42 294.122 224.397 299.321 224.377 304.519C224.366 305.975 224.355 307.431 224.343 308.931C224.318 317.69 224.739 326.19 225.77 334.889C230.098 334.456 234.426 334.022 238.885 333.576C238.885 333.142 238.885 332.709 238.885 332.262C235.422 332.262 231.96 332.262 228.393 332.262C227.481 317.818 226.609 303.372 225.77 288.924Z" fill="#2A2B26"/>
<path d="M256.922 228.335C255.727 228.404 254.532 228.473 253.301 228.543C252.008 228.611 250.714 228.679 249.382 228.749C247.351 228.876 247.351 228.876 245.278 229.005C243.232 229.117 243.232 229.117 241.144 229.231C237.767 229.417 234.391 229.616 231.016 229.826C231.016 230.259 231.016 230.693 231.016 231.139C244.649 231.789 244.649 231.789 258.557 232.452C262.113 239.573 264.572 244.725 266.426 252.152C267.922 250.028 267.922 250.028 269.049 246.899C267.963 243.031 267.963 243.031 266.098 238.855C265.496 237.47 264.894 236.085 264.274 234.658C261.202 228.593 261.202 228.593 256.922 228.335Z" fill="#1C2E3E"/>
<path d="M283.475 379.541C283.042 379.541 282.609 379.541 282.163 379.541C282.163 383.441 282.163 387.342 282.163 391.361C280.761 391.269 280.761 391.269 279.33 391.176C270.645 390.848 265.669 391.549 258.557 396.614C258.557 397.481 258.557 398.347 258.557 399.24C259.468 398.837 260.379 398.435 261.318 398.019C265.359 396.523 269.139 395.792 273.393 395.136C274.794 394.916 276.196 394.696 277.64 394.469C279.23 394.231 279.23 394.231 280.852 393.987C281.284 396.154 281.717 398.321 282.163 400.554C282.596 400.554 283.029 400.554 283.475 400.554C283.475 393.619 283.475 386.685 283.475 379.541Z" fill="#1D1B17"/>
<path d="M355.607 363.781C355.607 367.248 355.607 370.715 355.607 374.288C359.502 373.854 363.397 373.421 367.41 372.974C360.646 363.781 360.646 363.781 355.607 363.781Z" fill="#807657"/>
<path d="M303.148 393.987C302.282 393.987 301.416 393.987 300.525 393.987C299.659 398.321 298.794 402.655 297.902 407.12C304.459 405.807 304.459 405.807 307.082 404.494C306.364 400.062 305.699 397.819 303.148 393.987Z" fill="#4D3526"/>
<path d="M303.146 372.974C300.117 373.407 297.087 373.84 293.966 374.287C294.677 379.272 296.853 381.473 300.524 384.793C303.146 377.406 303.146 377.406 303.146 372.974Z" fill="#342F25"/>
<path d="M181.18 372.974C178.15 373.407 175.121 373.84 171.999 374.287C172.711 379.272 174.886 381.473 178.557 384.793C179.422 380.893 180.288 376.992 181.18 372.974Z" fill="#363026"/>
<path d="M366.099 362.469C363.069 362.469 360.04 362.469 356.919 362.469C356.919 363.336 356.919 364.202 356.919 365.095C359.499 366.909 362.123 368.661 364.787 370.348C365.22 370.782 365.653 371.215 366.099 371.662C365.233 372.529 364.368 373.395 363.476 374.288C367.371 374.288 371.266 374.288 375.279 374.288C373.548 373.422 371.817 372.555 370.033 371.662C368.189 368.648 367.221 365.838 366.099 362.469Z" fill="#232018"/>
<path d="M181.181 393.987C180.315 393.987 179.45 393.987 178.558 393.987C177.692 398.321 176.827 402.655 175.935 407.12C179.83 406.47 179.83 406.47 183.804 405.807C184.237 404.073 184.669 402.34 185.115 400.554C183.817 400.554 182.519 400.554 181.181 400.554C181.181 398.387 181.181 396.22 181.181 393.987Z" fill="#3B3327"/>
<path d="M406.754 362.469C395.934 362.469 385.115 362.469 373.967 362.469C376.564 365.502 379.16 368.536 381.836 371.662C383.134 371.662 384.433 371.662 385.77 371.662C383.606 369.061 381.442 366.461 379.213 363.782C388.301 363.782 397.39 363.782 406.754 363.782C406.754 363.349 406.754 362.915 406.754 362.469Z" fill="#1B1C1B"/>
<path d="M352.985 324.383C351.254 324.383 349.522 324.383 347.739 324.383C348.231 327.584 348.231 327.584 349.05 330.949C352.205 332.529 354.231 332.395 357.739 332.345C359.347 332.327 359.347 332.327 360.987 332.309C362.219 332.286 362.219 332.286 363.477 332.263C360.854 328.323 360.854 328.323 356.755 327.42C355.511 327.284 354.267 327.149 352.985 327.009C352.985 326.143 352.985 325.276 352.985 324.383Z" fill="#886CC9"/>
<path d="M245.442 210.126C239.816 210.126 234.19 210.126 228.393 210.126C228.393 211.426 228.393 212.726 228.393 214.066C234.452 214.066 240.511 214.066 246.754 214.066C246.321 212.766 245.888 211.466 245.442 210.126Z" fill="#191A19"/>
<path d="M367.41 363.781C366.508 366.162 366.508 366.162 366.098 369.034C368.255 372.275 369.774 372.908 373.557 373.877C375.058 374.08 375.058 374.08 376.59 374.288C376.143 370.149 375.828 368.236 372.737 365.341C370.032 363.781 370.032 363.781 367.41 363.781Z" fill="#2F3535"/>
<path d="M261.182 319.13C259.45 319.13 257.719 319.13 255.936 319.13C252.75 323.916 253.101 326.632 253.313 332.263C254.611 332.263 255.91 332.263 257.247 332.263C257.653 330.827 258.059 329.392 258.477 327.913C259.324 324.969 260.214 322.036 261.182 319.13Z" fill="#EFD79C"/>
<path d="M287.409 303.37C283.947 303.37 280.485 303.37 276.917 303.37C279.514 304.67 279.514 304.67 282.163 305.997C282.163 309.03 282.163 312.064 282.163 315.19C284.327 313.456 286.491 311.723 288.721 309.937C288.288 307.77 287.855 305.603 287.409 303.37Z" fill="#C0B081"/>
<path d="M304.459 392.674C303.161 393.107 301.863 393.541 300.525 393.987C301.39 393.987 302.256 393.987 303.148 393.987C304.558 397.47 305.895 400.926 307.082 404.493C305.784 404.927 304.486 405.36 303.148 405.807C304.013 406.673 304.879 407.54 305.771 408.433C308.725 404.903 310.862 402.331 312.328 397.927C311.03 397.927 309.731 397.927 308.394 397.927C306.157 395.379 306.157 395.379 304.459 392.674Z" fill="#D7BA84"/>
<path d="M232.327 342.769C229.73 342.769 227.133 342.769 224.458 342.769C224.025 344.069 223.592 345.369 223.146 346.708C224.443 348.704 224.443 348.704 227.081 350.648C230.793 350.721 234.151 350.6 237.819 350.238C238.802 350.157 239.785 350.077 240.798 349.994C243.221 349.793 245.643 349.567 248.064 349.335C248.064 348.902 248.064 348.468 248.064 348.022C237.678 347.372 237.678 347.372 227.081 346.708C228.812 345.408 230.543 344.108 232.327 342.769Z" fill="#1D1B17"/>
<path d="M364.787 330.949C365.22 331.816 365.653 332.682 366.099 333.575C373.889 333.575 381.679 333.575 389.705 333.575C389.705 333.142 389.705 332.709 389.705 332.262C386.291 331.786 382.876 331.323 379.459 330.867C378.491 330.73 377.523 330.594 376.526 330.454C372.09 329.871 369.088 329.513 364.787 330.949Z" fill="#886CC9"/>
<path d="M297.9 392.674C295.736 393.974 293.573 395.274 291.343 396.614C292.007 399.462 292.654 401.866 293.966 404.493C294.832 404.493 295.697 404.493 296.589 404.493C297.022 400.593 297.454 396.692 297.9 392.674Z" fill="#363126"/>
<path d="M175.935 392.674C173.771 393.974 171.607 395.274 169.377 396.614C170.243 399.214 171.108 401.814 172 404.493C172.866 404.493 173.731 404.493 174.623 404.493C175.056 400.593 175.489 396.692 175.935 392.674Z" fill="#393428"/>
<path d="M165.442 387.421C165.01 388.288 164.577 389.154 164.131 390.047C163.265 390.047 162.4 390.047 161.508 390.047C161.508 393.081 161.508 396.115 161.508 399.241C163.672 400.107 165.836 400.974 168.065 401.867C167.2 397.1 166.334 392.333 165.442 387.421Z" fill="#23231E"/>
<path d="M173.312 387.42C174.61 388.07 174.61 388.07 175.935 388.734C176.795 392.053 176.795 392.053 177.246 395.3C177.679 394.433 178.112 393.566 178.558 392.673C179.423 392.673 180.289 392.673 181.181 392.673C182.046 390.507 182.912 388.34 183.804 386.107C179.052 384.521 177.717 385.394 173.312 387.42Z" fill="#EBD89C"/>
<path d="M311.017 355.901C311.839 356.33 312.66 356.758 313.507 357.199C314.579 357.773 315.651 358.347 316.755 358.938C317.82 359.502 318.885 360.066 319.982 360.647C323.172 362.425 323.172 362.425 325.443 366.408C326.309 366.408 327.175 366.408 328.066 366.408C325.12 358.899 318.971 353.512 311.017 355.901Z" fill="#1D1B17"/>
<path d="M275.607 399.24C270.847 399.24 266.086 399.24 261.181 399.24C260.748 400.54 260.316 401.841 259.87 403.18C263.332 403.18 266.794 403.18 270.362 403.18C270.362 402.313 270.362 401.447 270.362 400.554C272.093 400.12 273.824 399.687 275.607 399.24Z" fill="#2B2A26"/>
<path d="M305.771 374.287C303.334 378.404 302.884 381.346 303.148 386.107C305.312 384.807 307.476 383.506 309.705 382.167C307.246 375.765 307.246 375.765 305.771 374.287Z" fill="#794830"/>
<path d="M185.114 375.601C184.249 375.601 183.383 375.601 182.491 375.601C182.059 379.068 181.626 382.535 181.18 386.107C183.344 384.807 185.508 383.507 187.737 382.167C186.872 380 186.006 377.833 185.114 375.601Z" fill="#7A462E"/>
<path d="M266.426 405.806C257.573 405.642 257.573 405.642 254.623 407.119C254.623 407.986 254.623 408.853 254.623 409.746C258.085 409.746 261.547 409.746 265.114 409.746C265.547 408.446 265.98 407.146 266.426 405.806Z" fill="#38322B"/>
<path d="M321.508 405.806C312.655 405.642 312.655 405.642 309.705 407.119C309.705 407.986 309.705 408.853 309.705 409.746C313.167 409.746 316.629 409.746 320.196 409.746C320.629 408.446 321.062 407.146 321.508 405.806Z" fill="#38322B"/>
<path d="M299.213 384.794C298.78 385.661 298.348 386.527 297.902 387.421C297.036 387.854 296.17 388.287 295.279 388.734C296.144 388.734 297.01 388.734 297.902 388.734C298.334 390.901 298.767 393.068 299.213 395.3C299.646 394.434 300.079 393.567 300.525 392.674C301.39 392.674 302.256 392.674 303.148 392.674C303.58 391.374 304.013 390.073 304.459 388.734C302.728 387.434 300.997 386.134 299.213 384.794Z" fill="#EEDB9E"/>
<path d="M199.541 405.807C195.115 405.561 195.115 405.561 190.361 405.807C189.495 407.107 188.63 408.407 187.738 409.747C191.2 409.747 194.662 409.747 198.23 409.747C198.662 408.446 199.095 407.146 199.541 405.807Z" fill="#38332B"/>
<path d="M212.657 390.047C211.791 390.047 210.926 390.047 210.034 390.047C211.099 392.591 211.099 392.591 212.657 395.3C213.955 395.733 215.253 396.167 216.591 396.613C216.591 395.747 216.591 394.88 216.591 393.987C219.188 394.42 221.785 394.854 224.46 395.3C224.893 394.433 225.326 393.566 225.771 392.673C221.444 392.673 217.116 392.673 212.657 392.673C212.657 391.807 212.657 390.94 212.657 390.047Z" fill="#1D1B17"/>
<path d="M438.23 365.095C434.985 365.745 434.985 365.745 431.673 366.408C433.476 369.691 433.476 369.691 435.608 372.974C436.473 372.974 437.339 372.974 438.23 372.974C438.23 370.374 438.23 367.774 438.23 365.095Z" fill="#D0C08A"/>
<path d="M397.573 354.589C395.409 355.022 393.245 355.456 391.016 355.902C391.449 357.202 391.881 358.502 392.327 359.842C394.491 359.409 396.655 358.975 398.885 358.529C398.452 357.229 398.019 355.928 397.573 354.589Z" fill="#1C2B39"/>
<path d="M271.672 392.674C262.983 393.659 262.983 393.659 258.557 396.614C258.557 397.48 258.557 398.347 258.557 399.24C265.114 396.614 265.114 396.614 271.672 393.987C271.672 393.554 271.672 393.12 271.672 392.674Z" fill="#8A6BD1"/>
<path d="M303.147 392.674C305.311 394.841 307.475 397.008 309.704 399.24C310.137 397.074 310.57 394.907 311.016 392.674C307.749 391.038 306.542 391.654 303.147 392.674Z" fill="#EE5F30"/>
<path d="M439.541 358.528C438.676 358.962 437.81 359.395 436.918 359.842C437.351 361.142 437.784 362.442 438.23 363.781C438.696 366.842 439.136 369.906 439.541 372.975C439.974 372.975 440.407 372.975 440.853 372.975C441.566 368.958 442.164 365.242 442.164 361.155C441.298 360.288 440.433 359.421 439.541 358.528Z" fill="#886CC9"/>
<path d="M228.393 324.383C227.96 324.383 227.527 324.383 227.081 324.383C226.649 327.85 226.216 331.317 225.77 334.889C230.098 334.456 234.426 334.022 238.885 333.576C238.885 333.142 238.885 332.709 238.885 332.263C235.422 332.263 231.96 332.263 228.393 332.263C228.393 329.662 228.393 327.062 228.393 324.383Z" fill="#5C5B4B"/>
<path d="M278.23 228.513C277.797 229.813 277.364 231.113 276.918 232.453C276.052 232.453 275.187 232.453 274.295 232.453C275.161 235.053 276.026 237.653 276.918 240.332C277.784 240.332 278.649 240.332 279.541 240.332C279.108 236.432 278.675 232.531 278.23 228.513Z" fill="#8A6BD1"/>
<path d="M182.491 391.36C184.787 397.763 184.787 397.763 187.737 399.24C188.17 397.073 188.603 394.906 189.049 392.674C185.114 391.36 185.114 391.36 182.491 391.36Z" fill="#F25C2C"/>
<path d="M170.689 378.228C168.066 383.152 168.066 383.152 168.066 386.107C170.23 386.107 172.394 386.107 174.623 386.107C172.164 379.705 172.164 379.705 170.689 378.228Z" fill="#3C3629"/>
<path d="M292.655 378.228C290.032 383.152 290.032 383.152 290.032 386.107C292.196 386.107 294.36 386.107 296.59 386.107C294.131 379.705 294.131 379.705 292.655 378.228Z" fill="#383326"/>
<path d="M370.032 366.408C368.734 366.408 367.436 366.408 366.098 366.408C367.082 368.953 367.082 368.953 368.721 371.661C371.508 372.646 371.508 372.646 373.967 372.975C371.508 367.886 371.508 367.886 370.032 366.408Z" fill="#D3C28C"/>
<path d="M168.066 387.421C168.066 389.588 168.066 391.755 168.066 393.987C171.312 392.687 171.312 392.687 174.623 391.361C174.623 390.494 174.623 389.627 174.623 388.734C170.689 387.421 170.689 387.421 168.066 387.421Z" fill="#3E382B"/>
<path d="M290.032 387.421C290.032 389.588 290.032 391.755 290.032 393.987C293.278 392.687 293.278 392.687 296.59 391.361C296.59 390.494 296.59 389.627 296.59 388.734C292.655 387.421 292.655 387.421 290.032 387.421Z" fill="#3A3528"/>
<path d="M366.098 362.469C363.068 362.469 360.039 362.469 356.917 362.469C356.917 363.336 356.917 364.202 356.917 365.095C359.514 365.529 362.111 365.962 364.786 366.409C365.219 365.108 365.652 363.808 366.098 362.469Z" fill="#2D3435"/>
<path d="M8.51367 412.414H625.626" stroke="#464646" stroke-width="3" stroke-miterlimit="10" stroke-linecap="round"/>
<path d="M386.723 169L398 172.698L384.219 210.002L376 207.307L386.723 169Z" fill="#48289B"/>
<path d="M412.241 197L419 201.469L402.925 223L398 219.742L412.241 197Z" fill="#48289B"/>
<path d="M353.369 180.977L361.248 178.867L367.207 205.412L361.465 206.949L353.369 180.977Z" fill="#48289B"/>
<path d="M542.115 293.256C542.115 291.843 544.264 290.696 546.917 290.696C549.569 290.696 551.717 291.843 551.717 293.256V408.844C551.717 410.259 549.569 411.405 546.917 411.405C544.264 411.405 542.115 410.259 542.115 408.844V293.256Z" fill="#C4C4C4"/>
<path d="M552.535 134.392C559.072 139.457 559.072 139.457 565.249 146.321C573.463 155.133 581.576 163.355 590.881 171C616.822 193.079 616.822 193.079 620 210.076C615.236 235.562 592.44 254.276 575.502 272.598C573.654 274.745 571.806 276.891 569.901 279.102C562.58 287.278 557.768 291.982 546.832 294C531.655 291.648 524.167 283.903 513.164 273.626C509.269 270.116 505.372 266.607 501.475 263.099C498.665 260.52 498.665 260.52 495.798 257.888C490.362 253.002 484.789 248.357 479.124 243.741C469.435 235.484 467.694 233.208 466 220.835C467.62 206.674 474.345 199.397 483.635 189.304C485.267 187.458 486.9 185.612 488.581 183.71C491.889 179.977 495.216 176.263 498.564 172.567C505.257 165.154 511.751 157.571 518.29 150.023C529.266 137.481 535.354 132.489 552.535 134.392Z" fill="#FEC039"/>
<path d="M516.83 238.8H525.26V241.42H519.81V244.11H525.21V246.65H519.81V249.38H525.26V252H516.83V238.8ZM527.454 238.8H532.834C533.6 238.8 534.284 238.96 534.884 239.28C535.484 239.6 535.957 240.063 536.304 240.67C536.657 241.27 536.834 241.987 536.834 242.82C536.834 243.653 536.684 244.337 536.384 244.87C536.09 245.397 535.737 245.793 535.324 246.06C534.91 246.32 534.527 246.477 534.174 246.53L537.384 252H534.024L531.164 246.76H530.444V252H527.454V238.8ZM530.444 244.69H531.764C532.297 244.69 532.764 244.56 533.164 244.3C533.564 244.04 533.764 243.58 533.764 242.92C533.764 242.26 533.567 241.803 533.174 241.55C532.78 241.29 532.317 241.16 531.784 241.16H530.444V244.69ZM539.29 238.8H544.67C545.436 238.8 546.12 238.96 546.72 239.28C547.32 239.6 547.793 240.063 548.14 240.67C548.493 241.27 548.67 241.987 548.67 242.82C548.67 243.653 548.52 244.337 548.22 244.87C547.926 245.397 547.573 245.793 547.16 246.06C546.746 246.32 546.363 246.477 546.01 246.53L549.22 252H545.86L543 246.76H542.28V252H539.29V238.8ZM542.28 244.69H543.6C544.133 244.69 544.6 244.56 545 244.3C545.4 244.04 545.6 243.58 545.6 242.92C545.6 242.26 545.403 241.803 545.01 241.55C544.616 241.29 544.153 241.16 543.62 241.16H542.28V244.69ZM553.172 245.39C553.172 246.143 553.326 246.827 553.632 247.44C553.946 248.047 554.376 248.53 554.922 248.89C555.476 249.25 556.116 249.43 556.842 249.43C557.569 249.43 558.206 249.25 558.752 248.89C559.306 248.53 559.736 248.047 560.042 247.44C560.356 246.827 560.512 246.143 560.512 245.39C560.512 244.637 560.356 243.957 560.042 243.35C559.736 242.743 559.306 242.26 558.752 241.9C558.206 241.533 557.569 241.35 556.842 241.35C556.116 241.35 555.476 241.533 554.922 241.9C554.376 242.26 553.946 242.743 553.632 243.35C553.326 243.957 553.172 244.637 553.172 245.39ZM550.062 245.39C550.062 244.43 550.232 243.537 550.572 242.71C550.912 241.877 551.389 241.15 552.002 240.53C552.616 239.91 553.336 239.427 554.162 239.08C554.989 238.733 555.882 238.56 556.842 238.56C557.816 238.56 558.712 238.733 559.532 239.08C560.359 239.427 561.076 239.91 561.682 240.53C562.296 241.15 562.769 241.877 563.102 242.71C563.442 243.537 563.612 244.43 563.612 245.39C563.612 246.357 563.449 247.257 563.122 248.09C562.796 248.917 562.329 249.643 561.722 250.27C561.116 250.89 560.399 251.373 559.572 251.72C558.746 252.067 557.836 252.24 556.842 252.24C555.829 252.24 554.906 252.067 554.072 251.72C553.246 251.373 552.532 250.89 551.932 250.27C551.332 249.643 550.869 248.917 550.542 248.09C550.222 247.257 550.062 246.357 550.062 245.39ZM565.266 238.8H570.646C571.413 238.8 572.096 238.96 572.696 239.28C573.296 239.6 573.769 240.063 574.116 240.67C574.469 241.27 574.646 241.987 574.646 242.82C574.646 243.653 574.496 244.337 574.196 244.87C573.903 245.397 573.549 245.793 573.136 246.06C572.723 246.32 572.339 246.477 571.986 246.53L575.196 252H571.836L568.976 246.76H568.256V252H565.266V238.8ZM568.256 244.69H569.576C570.109 244.69 570.576 244.56 570.976 244.3C571.376 244.04 571.576 243.58 571.576 242.92C571.576 242.26 571.379 241.803 570.986 241.55C570.593 241.29 570.129 241.16 569.596 241.16H568.256V244.69Z" fill="#464646"/>
<path d="M551.8 219.495C551.8 223.84 548.281 227.357 543.864 227.357C539.519 227.357 536 223.84 536 219.495C536 215.08 539.519 211.562 543.864 211.562C548.279 211.562 551.8 215.078 551.8 219.495ZM537.794 167H550.006L548.35 207.702H539.45L537.794 167Z" fill="#464646"/>
<path d="M110.369 355.204C110.369 355.204 111.546 369.395 100.502 375.884" stroke="#48289B" stroke-width="2" stroke-linecap="round" stroke-linejoin="round"/>
<path d="M122.778 361.047C122.778 361.047 123.955 375.238 112.911 381.727" stroke="#48289B" stroke-width="2" stroke-linecap="round" stroke-linejoin="round"/>
<path d="M418.584 306.231C418.584 306.231 429.474 315.407 426.281 327.812" stroke="#48289B" stroke-width="2" stroke-linecap="round" stroke-linejoin="round"/>
<path d="M431.5 301.559C431.5 301.559 442.388 310.734 439.197 323.137" stroke="#48289B" stroke-width="2" stroke-linecap="round" stroke-linejoin="round"/>
<path d="M1.52441 245.515H35.1244" stroke="#464646" stroke-width="2" stroke-linecap="round" stroke-linejoin="round"/>
<path d="M18.3271 259.005H51.9271" stroke="#464646" stroke-width="2" stroke-linecap="round" stroke-linejoin="round"/>
<path d="M43.7617 245.515H55.2817" stroke="#464646" stroke-width="2" stroke-linecap="round" stroke-linejoin="round"/>
<path d="M693.967 260.021H737.167" stroke="#464646" stroke-width="2" stroke-linecap="round" stroke-linejoin="round"/>
<path d="M746.754 260.021H756.354" stroke="#464646" stroke-width="2" stroke-linecap="round" stroke-linejoin="round"/>
<path d="M589.312 354.037H626.753" stroke="#464646" stroke-width="2" stroke-linecap="round" stroke-linejoin="round"/>
<path d="M633.469 354.037H650.749" stroke="#464646" stroke-width="2" stroke-linecap="round" stroke-linejoin="round"/>
</svg>
