<svg width="301" height="302" viewBox="0 0 301 302" fill="none" xmlns="http://www.w3.org/2000/svg">
<path d="M27.5888 157.2C22.3776 157.984 21.3359 283.867 21.3359 289.307C21.3359 294.747 30.3939 301.535 33.408 301.481C36.4189 301.43 195.949 303.546 291.62 294.573C291.62 294.573 303.052 149.084 300.621 142.724C298.18 136.338 179.672 49.4521 174.645 48.0446C169.604 46.634 159.505 43.3763 154.262 47.4911C149.019 51.6028 46.8035 154.467 44.2105 155.267C41.6175 156.071 27.5888 157.197 27.5888 157.197V157.2Z" fill="url(#paint0_linear_3301_2059)"/>
<g style="mix-blend-mode:multiply" opacity="0.31">
<path d="M27.5698 157.187C22.3047 154.898 65.4861 195.856 88.3892 209.839C97.6815 215.513 115.82 222.743 122.373 224.888C125.562 225.931 129.044 225.488 131.865 223.673C131.865 223.673 85.0743 161.679 83.8016 161.255C82.5289 160.831 27.5729 157.191 27.5729 157.191L27.5698 157.187Z" fill="#49258D"/>
</g>
<path style="mix-blend-mode:multiply" opacity="0.31" d="M33.398 301.487C36.4089 301.437 195.939 303.553 291.61 294.58C291.61 294.58 303.043 149.09 300.611 142.73C298.17 136.344 179.662 49.4586 174.635 48.0511C171.541 47.1845 166.542 45.6284 161.926 45.5051C161.676 45.524 161.442 45.524 161.22 45.5051C161.182 45.5051 161.144 45.5051 161.106 45.5051C154.932 45.116 289.061 142.205 289.061 142.205C288.979 142.376 288.9 142.641 288.824 142.951C284.927 142.018 279.319 142.101 269.394 144.175C265.839 144.919 278.018 156.292 287.358 164.474C286.164 204.392 286.94 283.279 286.94 283.279C286.94 283.279 27.2179 284.861 22.1143 292.312C24.3811 296.952 30.919 301.529 33.3917 301.484L33.398 301.487Z" fill="url(#paint1_linear_3301_2059)"/>
<g style="mix-blend-mode:multiply" opacity="0.31">
<path d="M27.5693 157.187C31.8086 156.821 130.164 224.236 131.861 223.67C133.558 223.104 259.652 150.081 264.176 146.488C268.7 142.892 279.965 142.515 279.965 142.515C279.965 142.515 162.255 64.7985 156.319 63.3879C150.383 61.9773 44.1942 155.258 44.1942 155.258L27.5725 157.187H27.5693Z" fill="#49258D"/>
</g>
<g style="mix-blend-mode:multiply" opacity="0.31">
<path d="M41.4158 289.225C28.0552 290.022 149.08 302.347 204.665 299.684C260.251 297.021 306.029 283.14 286.941 283.288C267.853 283.437 88.656 286.404 41.4158 289.225Z" fill="#49258D"/>
</g>
<g style="mix-blend-mode:multiply" opacity="0.31">
<path d="M287.357 164.51C287.646 160.455 296.032 166.844 297.824 173.619C299.619 180.393 286.879 283.874 286.794 263.541C286.708 243.207 287.357 164.507 287.357 164.507V164.51Z" fill="#49258D"/>
</g>
<g style="mix-blend-mode:color-dodge" opacity="0.13">
<path d="M143.288 217.299C136.712 221.05 277.832 166.887 276.901 160.466C275.973 154.049 267.118 144.712 265.649 145.63C264.18 146.55 143.288 217.296 143.288 217.296V217.299Z" fill="white"/>
</g>
<g style="mix-blend-mode:multiply" opacity="0.13">
<path d="M33.6615 160.282C33.3449 158.34 89.2538 148.386 131.875 147.327C174.496 146.267 198.776 184.819 198.776 184.819L131.875 223.724L33.6615 160.282Z" fill="#49258D"/>
</g>
<g style="mix-blend-mode:multiply" opacity="0.13">
<path d="M163.53 67.6275C149.099 61.4663 143.809 124.89 173.285 145.509C202.757 166.127 274.841 139.139 274.841 139.139L163.533 67.6275H163.53Z" fill="#49258D"/>
</g>
<g style="mix-blend-mode:multiply" opacity="0.31">
<path d="M289.071 142.198C292.18 143.751 297.613 139.358 296.059 138.051C273.095 118.755 202.664 67.2295 202.664 67.2295C202.664 67.2295 234.308 102.299 255.863 118.018C277.417 133.737 289.071 142.198 289.071 142.198Z" fill="#49258D"/>
</g>
<g style="mix-blend-mode:color-dodge" opacity="0.13">
<path d="M41.4411 289.239C18.9433 292.623 150.055 211.826 190.308 189.737C230.56 167.648 282.724 283.303 282.724 283.303L41.4411 289.239Z" fill="white"/>
</g>
<g style="mix-blend-mode:multiply" opacity="0.31">
<path d="M37.0303 162.452C33.649 160.266 151.536 200.551 154.42 201.398C157.308 202.246 218.678 173.604 218.678 173.604L131.862 223.712C130.555 223.25 124.292 230.316 111.578 215.732C98.8628 201.149 61.3866 177.861 61.3866 177.861L37.0303 162.452Z" fill="#49258D"/>
</g>
<g style="mix-blend-mode:color-dodge" opacity="0.13">
<path d="M250.889 154.746C250.889 154.746 185.742 212.141 147.351 214.652L250.889 154.746Z" fill="white"/>
</g>
<path d="M47.752 87.5581C47.752 87.5581 118.199 75.3402 177.759 76.7888C237.318 78.2373 239.297 81.3306 242.973 82.1149C246.648 82.8993 252.164 93.4916 252.588 96.0313C253.012 98.5742 250.891 154.777 250.891 154.777C202.65 186.099 131.864 223.692 131.864 223.692C131.864 223.692 81.5398 192.766 53.6439 172.802C53.6439 172.802 45.6307 101.958 47.752 87.555V87.5581Z" fill="#DFCDE7"/>
<path style="mix-blend-mode:color-dodge" opacity="0.37" d="M57.7899 175.839C48.6085 167.628 99.3662 87.3429 141.573 88.8295C207.749 91.1573 226.758 169.171 226.758 169.171L131.872 223.695L57.7931 175.842L57.7899 175.839Z" fill="url(#paint2_linear_3301_2059)"/>
<path style="mix-blend-mode:multiply" opacity="0.31" d="M250.902 154.766C250.902 154.766 253.023 98.5595 252.599 96.0198C252.174 93.4769 246.662 82.8878 242.983 82.1034C242.667 82.037 242.363 81.9516 242.037 81.8535C237.494 84.9784 242.983 159.839 242.983 159.839C242.983 159.839 149.969 211.681 143.073 211.681C136.178 211.681 53.6553 172.797 53.6553 172.797C81.5479 192.758 131.875 223.687 131.875 223.687C131.875 223.687 202.661 186.094 250.902 154.772V154.766Z" fill="url(#paint3_linear_3301_2059)"/>
<path style="mix-blend-mode:color-dodge" opacity="0.26" d="M168.624 78.3264C181.345 79.9426 217.818 90.1111 225.027 97.7366C232.236 105.362 237.327 157.005 239.445 147.282C241.566 137.563 238.666 83.7506 236.051 81.8719C233.439 79.9964 168.621 78.3232 168.621 78.3232L168.624 78.3264Z" fill="url(#paint4_linear_3301_2059)"/>
<g style="mix-blend-mode:multiply" opacity="0.39">
<path d="M75 119.14V126L209 120.563V112L75 119.14Z" fill="#2FC260"/>
</g>
<g style="mix-blend-mode:multiply" opacity="0.39">
<path d="M65 135.308L66.8177 141L219 137.904V132L65 135.308Z" fill="#2FC260"/>
</g>
<g style="mix-blend-mode:multiply" opacity="0.39">
<path d="M76 152.7L79.3311 159L209 153.801V148L76 152.7Z" fill="#2FC260"/>
</g>
<g style="mix-blend-mode:multiply" opacity="0.39">
<path d="M80 168.117L82.2734 174L204.734 170.329L205 163L80 168.117Z" fill="#2FC260"/>
</g>
<g style="mix-blend-mode:multiply" opacity="0.39">
<path d="M84.1777 187.619L84 183.859L176 182V187.172L88.4881 190L84.1777 187.619Z" fill="#2FC260"/>
</g>
<path d="M0.845906 19.0847C7.61804 11.5287 15.5679 1.55322 20.9375 0.0287477C26.3039 -1.49573 53.0284 58.1138 50.179 59.2177C47.3295 60.3215 40.7031 65.8248 34.3805 61.8523C28.0579 57.8829 -5.73627 26.4256 0.845906 19.0815V19.0847Z" fill="#FDBD15"/>
<path d="M68.1226 51.1155C64.2221 48.56 53.1885 21.0372 53.6571 18.0705C54.1256 15.1037 76.0567 13.4116 79.5109 15.1037C82.965 16.799 82.8415 49.4203 79.5109 51.1155C76.1802 52.8108 70.1014 52.4123 68.1226 51.1155Z" fill="#FDBD15"/>
<path d="M23.5059 1.70968C21.524 -0.640286 33.919 42.2759 35.7806 48.4592C37.6422 54.6425 34.8118 61.7114 38.0253 61.8791C41.2388 62.0499 52.6809 62.3946 51.6804 55.9836C50.6799 49.5725 31.9085 11.6726 23.5059 1.70652V1.70968Z" fill="#DF8103"/>
<path d="M72.3449 14.4507C69.8121 14.5329 73.8361 42.1981 73.1997 45.4969C72.5634 48.7957 68.3462 52.3602 72.3829 52.2021C76.4196 52.0439 79.7914 52.8757 81.5739 49.4283C83.3595 45.984 81.8398 19.6978 81.0451 16.3832C80.2505 13.0685 72.3449 14.4475 72.3449 14.4475V14.4507Z" fill="#DF8103"/>
<path d="M19.6565 85.3162C16.9116 86.6287 2.96838 81.8118 2.30351 80.2778C1.63865 78.7438 13.8437 62.6483 16.1011 61.2471C18.3585 59.846 28.2301 73.6327 27.065 76.3812C25.9031 79.1297 21.0527 84.6488 19.6565 85.3162Z" fill="#FDBD15"/>
<path d="M10.6111 67.2681C9.35735 68.8527 19.8116 78.0185 20.4954 79.7929C21.1793 81.5672 20.1377 85.6473 22.1259 83.1107C24.1142 80.5741 27.7298 76.8957 27.581 74.356C27.4322 71.8163 18.6623 61.6984 17.2534 60.7907C15.8445 59.883 10.6111 67.2681 10.6111 67.2681Z" fill="#DF8103"/>
<path d="M299.595 135.526C299.708 196.526 225.664 175.518 228.057 136.965C230.45 98.411 299.522 96.1364 299.595 135.526Z" fill="#2FC260"/>
<g style="mix-blend-mode:multiply" opacity="0.57">
<path d="M268.79 107.09C277.362 107.876 292.134 112.714 290.269 135.117C287.939 163.118 264.986 174.818 241.081 164.095C261.759 180.828 299.675 179.189 299.594 135.523C299.559 117.364 284.861 108.068 268.792 107.09H268.79Z" fill="#49258D"/>
</g>
<g style="mix-blend-mode:multiply" opacity="0.31">
<path d="M269.656 173.577C261.96 173.889 283.468 155.882 289.869 151.567C296.27 147.252 297.782 150.703 295.335 156.531C292.889 162.356 286.303 172.905 269.656 173.577Z" fill="#49258D"/>
</g>
<g style="mix-blend-mode:multiply" opacity="0.31">
<path d="M288.213 113.946C286.087 113.029 291.738 123.161 290.73 136.429C289.723 149.694 301.322 143.914 299.406 132.133C297.49 120.349 291.88 115.529 288.213 113.948V113.946Z" fill="#49258D"/>
</g>
<g style="mix-blend-mode:color-dodge" opacity="0.24">
<path d="M290.271 129.653C289.295 122.795 287.846 148.456 272.96 157.613C258.075 166.77 240.511 163.412 244.882 165.618C249.253 167.824 266.512 170.522 277.396 161.608C288.279 152.694 291.297 136.855 290.271 129.653Z" fill="white"/>
</g>
<g style="mix-blend-mode:color-dodge" opacity="0.24">
<path d="M228.727 140.889C228.574 146.083 284.4 110.686 269.583 109.045C254.767 107.402 229.59 111.653 228.727 140.889Z" fill="white"/>
</g>
<path d="M277.179 128.295L258.59 146.884L249.296 137.59" stroke="#D7ECDE" stroke-width="5.33" stroke-linecap="round" stroke-linejoin="round"/>
<defs>
<linearGradient id="paint0_linear_3301_2059" x1="161.148" y1="347.105" x2="161.148" y2="131.48" gradientUnits="userSpaceOnUse">
<stop stop-color="#DCD6EA"/>
<stop offset="1" stop-color="#B195C9"/>
</linearGradient>
<linearGradient id="paint1_linear_3301_2059" x1="161.537" y1="301.671" x2="161.537" y2="45.5019" gradientUnits="userSpaceOnUse">
<stop stop-color="#49258D"/>
<stop offset="1" stop-color="white"/>
</linearGradient>
<linearGradient id="paint2_linear_3301_2059" x1="141.731" y1="260.485" x2="141.731" y2="10.515" gradientUnits="userSpaceOnUse">
<stop stop-color="white"/>
<stop offset="0.04" stop-color="#EEEEEE"/>
<stop offset="0.18" stop-color="#B0B0B0"/>
<stop offset="0.33" stop-color="#7A7A7A"/>
<stop offset="0.47" stop-color="#4E4E4E"/>
<stop offset="0.6" stop-color="#2C2C2C"/>
<stop offset="0.73" stop-color="#131313"/>
<stop offset="0.85" stop-color="#050505"/>
<stop offset="0.94"/>
</linearGradient>
<linearGradient id="paint3_linear_3301_2059" x1="153.157" y1="223.68" x2="153.157" y2="81.8504" gradientUnits="userSpaceOnUse">
<stop stop-color="#49258D"/>
<stop offset="1" stop-color="white"/>
</linearGradient>
<linearGradient id="paint4_linear_3301_2059" x1="168.624" y1="113.412" x2="240.18" y2="113.412" gradientUnits="userSpaceOnUse">
<stop offset="0.06"/>
<stop offset="0.15" stop-color="#050505"/>
<stop offset="0.27" stop-color="#131313"/>
<stop offset="0.4" stop-color="#2C2C2C"/>
<stop offset="0.53" stop-color="#4E4E4E"/>
<stop offset="0.67" stop-color="#7A7A7A"/>
<stop offset="0.82" stop-color="#B0B0B0"/>
<stop offset="0.96" stop-color="#EEEEEE"/>
<stop offset="1" stop-color="white"/>
</linearGradient>
</defs>
</svg>
