<svg width="490" height="435" viewBox="0 0 490 435" fill="none" xmlns="http://www.w3.org/2000/svg">
<g clip-path="url(#clip0_1048_2651)">
<path d="M370.488 371.596H490V212.348L370.488 212.348V371.596Z" fill="#F5F5F5"/>
<path d="M347.689 371.596H370.487V212.348H347.689V371.596Z" fill="#E6E6E6"/>
<path d="M378.245 262.837H481.629V224.164H378.245V262.837Z" fill="white"/>
<path d="M443.417 224.165L442.965 229.32C442.816 231.02 441.395 232.325 439.689 232.325H420.182C418.478 232.325 417.056 231.02 416.906 229.32L416.454 224.165H443.417Z" fill="#D2D2D2"/>
<path d="M378.245 305.734H481.629V267.062H378.245V305.734Z" fill="white"/>
<path d="M443.417 267.061L442.965 272.216C442.816 273.916 441.395 275.222 439.689 275.222H420.182C418.478 275.222 417.056 273.918 416.906 272.216L416.454 267.061H443.417Z" fill="#D2D2D2"/>
<path d="M378.245 348.631H481.629V309.958H378.245V348.631Z" fill="white"/>
<path d="M443.417 309.958L442.965 315.114C442.816 316.814 441.395 318.119 439.689 318.119H420.182C418.478 318.119 417.056 316.814 416.906 315.114L416.454 309.958H443.417Z" fill="#D2D2D2"/>
<path d="M378.244 379.546H480.373L481.629 371.583H378.244V379.546Z" fill="#E6E6E6"/>
<path d="M356.897 379.546H378.244V371.583H355.642L356.897 379.546Z" fill="#E0E0E0"/>
<path d="M426.25 212.519H467.059L462.531 160.693H421.722L426.25 212.519Z" fill="white"/>
<path d="M426.25 212.519H424.302L419.774 160.693H421.722L426.25 212.519Z" fill="#D2D2D2"/>
<path d="M429.95 207.236H462.438L458.834 165.977H426.346L429.95 207.236Z" fill="#F0F0F0"/>
<path d="M432.328 203.839H459.467L456.456 169.373H429.316L432.328 203.839Z" fill="#E6E6E6"/>
<path d="M414.784 212.519L417.586 180.441H376.962L374.159 212.519H414.784Z" fill="#F0F0F0"/>
<path d="M414.784 212.519L417.586 180.441H419.774L416.972 212.519H414.784Z" fill="#E0E0E0"/>
<path d="M410.928 209.249L413.158 183.711H380.818L378.587 209.249H410.928Z" fill="#D2D2D2"/>
<path d="M408.45 207.146L410.313 185.814H383.297L381.433 207.146H408.45Z" fill="#F5F5F5"/>
<path d="M320.977 357.986C320.977 366.487 319.645 371.984 317.401 375.512C315.713 378.166 312.684 379.659 309.541 379.659H297.251C294.109 379.659 291.08 378.166 289.391 375.512C287.147 371.984 285.816 366.487 285.816 357.986C285.816 345.657 291.184 335.786 292.937 327.904C293.569 325.066 291.467 316.368 291.467 316.368H315.325C315.325 316.368 313.223 325.067 313.855 327.904C315.608 335.787 320.976 345.657 320.976 357.986H320.977Z" fill="#D2D2D2"/>
<path d="M361.605 308.088C361.605 297.384 344.847 301.827 340.622 285.221C339.021 278.927 352.652 264.684 352.652 264.684H310.153C310.153 264.684 323.784 278.927 322.183 285.221C317.959 301.827 301.2 297.384 301.2 308.088C301.2 319.878 324.841 344.432 325.98 372.069C326.082 374.54 321.534 379.66 321.534 379.66H341.27C341.27 379.66 336.722 374.54 336.824 372.069C337.964 344.432 361.604 319.878 361.604 308.088H361.605Z" fill="#F5F5F5"/>
<path d="M348.761 335.907C351.231 330.703 346.123 313.015 346.123 313.015H364.54C364.54 313.015 359.432 330.704 361.902 335.907C363.646 339.579 367.613 341.925 367.613 346.27V372.39C367.613 379.154 362.086 379.659 355.331 379.659C348.575 379.659 343.049 379.155 343.049 372.39V346.27C343.049 341.925 347.016 339.579 348.76 335.907H348.761Z" fill="#F0F0F0"/>
<path d="M138.285 181.642C127.704 177.053 121.667 167.371 124.83 160.058C127.992 152.745 139.175 150.528 149.756 155.115C160.338 159.703 166.375 169.387 163.213 176.7C160.05 184.013 148.868 186.23 138.285 181.642ZM146.708 162.163C141.749 160.013 136.511 161.053 135.029 164.479C133.547 167.906 136.375 172.442 141.334 174.593C146.292 176.743 151.532 175.704 153.014 172.278C154.496 168.851 151.667 164.313 146.708 162.163Z" fill="#E6E6E6"/>
<path d="M150.734 162.569L145.706 160.389L176.09 90.0539C176.691 88.6632 178.304 88.0232 179.692 88.6255C181.08 89.2278 181.719 90.8424 181.118 92.2318L150.734 162.569Z" fill="#E6E6E6"/>
<path d="M183.445 99.0306L173.798 94.8107L175.974 89.7759L185.623 93.9958L183.445 99.0306Z" fill="#E6E6E6"/>
<path d="M178.69 104.662L171.781 101.656L173.959 96.6216L180.866 99.6269L178.69 104.662Z" fill="#E6E6E6"/>
<path d="M171.154 106.242L168.978 111.276L176.724 114.636L178.901 109.601L171.154 106.242Z" fill="#E6E6E6"/>
<path d="M152.689 155.059L149.926 153.862C148.55 153.265 147.917 151.664 148.514 150.286L148.532 150.243C149.129 148.865 150.727 148.232 152.104 148.829L154.866 150.026C156.242 150.623 156.875 152.224 156.279 153.602L156.26 153.645C155.663 155.023 154.065 155.657 152.689 155.059Z" fill="#E6E6E6"/>
<path d="M368.473 130.881C376.856 136.474 379.02 148.026 373.293 156.634C367.567 165.241 356.086 167.691 347.703 162.098C339.319 156.504 337.157 144.951 342.883 136.345C348.608 127.738 360.088 125.288 368.472 130.883L368.473 130.881ZM353.223 153.803C357.152 156.424 362.53 155.276 365.214 151.242C367.897 147.209 366.884 141.796 362.955 139.175C359.027 136.554 353.646 137.702 350.963 141.734C348.279 145.767 349.294 151.181 353.222 153.802L353.223 153.803Z" fill="#E6E6E6"/>
<path d="M351.193 151.571L356.391 155.039L319.205 212.026C318.249 213.463 316.31 213.853 314.874 212.895C313.439 211.938 313.051 209.997 314.006 208.561L351.193 151.571Z" fill="#E6E6E6"/>
<path d="M314.24 196.135L325.177 203.489L319.717 211.695L308.758 204.326C307.185 203.268 306.762 201.134 307.813 199.555L309.458 197.084C310.514 195.496 312.657 195.071 314.24 196.135Z" fill="#E6E6E6"/>
<path d="M216.62 21.9813L210.848 36.9548C210.328 38.3041 208.814 38.9755 207.466 38.4549C206.119 37.9344 205.448 36.4179 205.968 35.0687L211.741 20.0951C213.605 15.2603 211.194 9.80426 206.365 7.93697L201.016 5.86849C196.188 4.00119 190.741 6.41924 188.877 11.2553L186.52 17.369L181.641 15.4816L183.998 9.36793C186.901 1.83589 195.383 -1.9251 202.901 0.980831L208.25 3.04931C215.768 5.95525 219.525 14.4492 216.622 21.98L216.62 21.9813Z" fill="#F0F0F0"/>
<path d="M215.708 24.3415C215.323 23.8448 214.802 23.4399 214.175 23.1973L185.042 11.9344C184.393 11.6829 183.71 11.6314 183.076 11.7596C181.912 11.9885 180.881 12.7945 180.422 13.9828L169.175 43.1565C168.463 45.0025 169.379 47.0697 171.222 47.7827L200.355 59.0455C202.198 59.7585 204.263 58.8431 204.975 56.9959L216.222 27.8221C216.689 26.6112 216.457 25.301 215.708 24.3415ZM193.588 46.8848L184.349 43.3125L189.233 34.7732C188.618 33.5346 188.505 32.0484 189.043 30.6526C190.062 28.0095 193.028 26.6866 195.668 27.7077C198.307 28.7287 199.624 31.7063 198.606 34.3495C198.068 35.7452 196.987 36.77 195.693 37.2705L193.588 46.8848Z" fill="#E6E6E6"/>
<path d="M17.7451 362.622L250.209 362.622L250.209 237.341L17.7451 237.341L17.7451 362.622Z" fill="#E6E6E6"/>
<path d="M231.574 378.878H246.184V367.824H231.574V378.878Z" fill="#E6E6E6"/>
<path d="M0.000447273 378.878H14.6104L14.6104 228.021H0.000447273L0.000447273 378.878Z" fill="#E6E6E6"/>
<path d="M14.4355 228.021V378.878H22.2271V370.424H246.182V378.878H253.975V228.021H14.4355ZM22.2271 241.677H130.309V294.073H22.2283L22.2271 241.677ZM246.182 356.77H138.101V241.677H246.182V356.77ZM22.2271 356.77V301.875H130.309V356.77H22.2271Z" fill="#F0F0F0"/>
<path d="M138.102 356.77H238.878V247.313H138.102V356.77Z" fill="#F5F5F5"/>
<path d="M142.665 298.761C142.665 301.35 144.761 303.45 147.347 303.45C149.934 303.45 152.03 301.351 152.03 298.761C152.03 296.17 149.934 294.072 147.347 294.072C144.761 294.072 142.665 296.17 142.665 298.761Z" fill="white"/>
<path d="M147.347 303.45C149.235 303.45 150.853 302.324 151.592 300.712C151.866 301.308 152.028 301.965 152.028 302.662C152.028 305.251 149.932 307.351 147.346 307.351C144.759 307.351 142.663 305.253 142.663 302.662C142.663 301.965 142.825 301.307 143.099 300.712C143.84 302.324 145.457 303.45 147.344 303.45H147.347Z" fill="#E0E0E0"/>
<path d="M199.795 356.77H175.752L164.264 247.311H188.306L199.795 356.77Z" fill="white"/>
<path d="M169.594 356.77H164.809L153.32 247.311H158.106L169.594 356.77Z" fill="white"/>
<path d="M105.952 294.021H115.476V247.203H105.952V294.021Z" fill="white"/>
<path d="M66.4652 294.021H75.9883V247.203H66.4652V294.021Z" fill="#F5F5F5"/>
<path d="M96.4268 294.021H105.951V250.494H96.4268V294.021Z" fill="#F5F5F5"/>
<path d="M75.9873 294.021H85.5117V250.494H75.9873V294.021Z" fill="white"/>
<path d="M85.5109 294.021H91.665V247.203H85.5109V294.021Z" fill="#D2D2D2"/>
<path d="M91.6662 294.021H96.4277V250.494H91.6662V294.021Z" fill="white"/>
<path d="M56.9417 294.021H66.4648V247.203H56.9417L56.9417 294.021Z" fill="#D2D2D2"/>
<path d="M47.4173 294.021H56.9404L56.9404 250.494H47.4173L47.4173 294.021Z" fill="#E6E6E6"/>
<path d="M26.9788 294.021H36.502L36.502 250.494H26.9788L26.9788 294.021Z" fill="#E6E6E6"/>
<path d="M36.5002 294.021H42.6543L42.6543 247.203H36.5002L36.5002 294.021Z" fill="white"/>
<path d="M42.6554 294.021H47.417L47.417 250.494H42.6554L42.6554 294.021Z" fill="#D2D2D2"/>
<path d="M22.216 294.021H26.9775L26.9775 248.312H22.216L22.216 294.021Z" fill="#D2D2D2"/>
<path d="M31.7389 309.952H22.2158V356.77H31.7389V309.952Z" fill="#D2D2D2"/>
<path d="M71.2262 309.952H61.7031V356.77H71.2262V309.952Z" fill="white"/>
<path d="M41.2614 313.242H31.7383V356.77H41.2614V313.242Z" fill="white"/>
<path d="M61.7018 313.242H52.1787V356.77H61.7018V313.242Z" fill="#D2D2D2"/>
<path d="M52.1785 309.952H46.0244V356.77H52.1785V309.952Z" fill="white"/>
<path d="M46.0243 313.242H41.2627V356.77H46.0243V313.242Z" fill="#F5F5F5"/>
<path d="M80.7497 309.952H71.2266V356.77H80.7497V309.952Z" fill="#D2D2D2"/>
<path d="M90.2734 313.242H80.749V356.77H90.2734V313.242Z" fill="#F5F5F5"/>
<path d="M110.713 313.242H101.189V356.77H110.713V313.242Z" fill="#E6E6E6"/>
<path d="M101.189 309.952H95.0352V356.77H101.189V309.952Z" fill="white"/>
<path d="M121.63 309.952H115.476V356.77H121.63V309.952Z" fill="white"/>
<path d="M95.035 313.242H90.2734V356.77H95.035V313.242Z" fill="#D2D2D2"/>
<path d="M115.475 311.061H110.714V356.77H115.475V311.061Z" fill="#D2D2D2"/>
<path d="M32.8407 147.389C32.8407 147.389 31.2422 148.126 30.5114 149.615C29.7806 151.103 32.0471 153.852 32.0471 153.852C32.0471 153.852 33.9494 155.179 35.8405 154.319L37.7316 153.459C37.7316 153.459 34.4982 147.84 32.9286 147.784L32.8407 147.389Z" fill="#E6E6E6"/>
<path d="M40.9373 147.345C41.1684 150.01 39.5184 153.372 37.1426 153.578C34.7669 153.784 32.5644 150.758 32.3333 148.092C32.1023 145.427 34.021 145.167 36.3967 144.961C38.7725 144.755 40.7063 144.679 40.9373 147.345Z" fill="#E6E6E6"/>
<path d="M33.9783 146.56C33.9783 146.56 35.7941 148.009 39.5348 147.163C39.5348 147.163 33.6343 151.103 33.9783 146.56Z" fill="#E6E6E6"/>
<path d="M35.5791 146.031C35.5791 146.031 37.6736 145.666 37.7037 146.542C37.7037 146.542 39.4805 146.442 39.2344 145.698C38.9883 144.954 35.5791 146.031 35.5791 146.031Z" fill="#E6E6E6"/>
<g opacity="0.2">
<path d="M33.9783 146.56C33.9783 146.56 35.7941 148.009 39.5348 147.163C39.5348 147.163 33.6343 151.103 33.9783 146.56Z" fill="white"/>
</g>
<g opacity="0.2">
<path d="M35.5791 146.031C35.5791 146.031 37.6736 145.666 37.7037 146.542C37.7037 146.542 39.4805 146.442 39.2344 145.698C38.9883 144.954 35.5791 146.031 35.5791 146.031Z" fill="white"/>
</g>
<path d="M33.1543 154.421C33.9102 155.648 35.4522 156.279 36.8812 156.108C38.3114 155.937 39.5985 155.043 40.4235 153.861C41.2484 152.679 41.6415 151.234 41.7331 149.796C41.757 149.424 41.7859 148.492 41.2962 148.349C40.8454 148.216 40.5691 148.846 40.3607 149.139C39.7617 149.984 39.1263 150.775 38.3629 151.481C37.6233 152.164 36.8058 152.762 35.9306 153.258C35.6858 153.396 33.2887 154.638 33.1543 154.421Z" fill="#E6E6E6"/>
<path d="M43.3483 149.098C43.7978 150.178 43.6346 151.491 42.9326 152.428C42.4718 153.042 41.8189 153.481 41.1609 153.879C40.7038 154.155 40.1149 154.417 39.6666 154.126C39.1832 153.813 39.2271 153.101 39.3376 152.536C39.5084 151.664 39.703 150.797 39.9215 149.935C40.0998 149.23 40.2091 148.047 40.6222 147.447C41.0114 146.882 41.5627 147.217 42.1504 147.627C42.6752 147.993 43.1022 148.504 43.3483 149.098Z" fill="#E6E6E6"/>
<g opacity="0.2">
<path d="M33.7609 152.943C32.843 152.904 31.9753 152.283 31.6413 151.425C31.3952 150.792 31.399 149.183 32.219 148.98C32.5818 150.408 32.897 151.706 33.7609 152.943Z" fill="white"/>
</g>
<g opacity="0.2">
<path d="M39.9541 152.88C40.8205 152.633 41.5425 151.923 41.8062 151.061C41.9519 150.584 41.7661 148.149 41.0453 149.172C40.8092 149.507 40.8532 150.575 40.7301 151.008C40.5455 151.659 40.2843 152.289 39.9541 152.88Z" fill="white"/>
</g>
<g opacity="0.2">
<path d="M36.6365 154.384C37.3071 154.955 38.3782 154.983 39.0763 154.447C38.9846 154.917 37.5029 155.312 37.0434 155.447C35.8467 155.799 35.2201 155.272 34.0586 154.787C34.0586 154.787 35.8982 155.067 36.6365 154.384Z" fill="white"/>
</g>
<path d="M34.5576 203.361L34.6719 167.082L36.5303 156.049L37.236 156.167L35.3864 167.151L35.2558 204.05L34.5576 203.361Z" fill="#E0E0E0"/>
<path d="M35.3133 166.898L34.7457 167.334C34.1769 166.593 33.6645 165.624 33.0719 164.503C32.1552 162.77 31.1155 160.805 29.5371 159.067L30.067 158.585C31.7057 160.391 32.768 162.398 33.7047 164.168C34.2823 165.261 34.7821 166.204 35.3145 166.898H35.3133Z" fill="#E0E0E0"/>
<path d="M35.7504 162.032C36.7147 161.778 37.5786 161.163 38.1349 160.334C38.7665 159.394 38.9863 158.243 39.1922 157.129C37.9415 157.503 36.5979 156.895 35.3008 157.045C34.2674 157.164 33.3043 157.794 32.7819 158.696C32.1051 159.863 31.8301 161.187 32.4278 161.721C32.92 162.161 34.4595 162.373 35.7491 162.033L35.7504 162.032Z" fill="#E6E6E6"/>
<path d="M30.9355 159.527C29.7803 160.259 28.2948 160.446 26.9939 160.021C25.6943 159.598 25.3151 157.641 24.8115 156.367C25.9906 156.125 28.9854 156.294 29.6635 156.362C30.3416 156.43 31.0297 156.737 31.3951 157.313C31.7592 157.89 31.6927 158.754 31.1402 159.152C31.105 159.127 30.9355 159.527 30.9355 159.527Z" fill="#E6E6E6"/>
<path d="M24.9926 161.646C25.7875 160.683 27.7464 159.985 28.9732 160.207C30.2 160.431 31.2472 161.277 31.6867 162.282C31.3627 163.062 30.4938 163.503 29.6525 163.563C28.8112 163.624 27.9812 163.375 27.1738 163.128C26.3676 162.882 25.5376 162.632 24.6963 162.692L24.9939 161.646H24.9926Z" fill="#E6E6E6"/>
<path d="M49.1628 155.409C49.1628 155.409 50.4737 156.585 50.7362 158.222C50.9973 159.86 48.0239 161.821 48.0239 161.821C48.0239 161.821 45.8151 162.529 44.2606 161.15L42.7061 159.771C42.7061 159.771 47.4463 155.352 48.9619 155.761L49.1628 155.409Z" fill="#E6E6E6"/>
<path d="M41.4368 152.983C40.4335 155.463 41.0237 159.161 43.2349 160.058C45.4462 160.954 48.4397 158.71 49.4418 156.23C50.4451 153.75 48.6871 152.938 46.4771 152.042C44.2671 151.145 42.4401 150.504 41.4368 152.983Z" fill="#E6E6E6"/>
<path d="M48.3197 154.281C48.3197 154.281 46.1586 155.131 42.8311 153.221C42.8311 153.221 47.3139 158.725 48.3197 154.281Z" fill="#E6E6E6"/>
<path d="M46.9444 153.304C46.9444 153.304 45.0496 152.338 44.7633 153.166C44.7633 153.166 43.0945 152.548 43.5478 151.908C44.0011 151.27 46.9444 153.304 46.9444 153.304Z" fill="#E6E6E6"/>
<g opacity="0.2">
<path d="M48.3197 154.281C48.3197 154.281 46.1586 155.131 42.8311 153.221C42.8311 153.221 47.3139 158.725 48.3197 154.281Z" fill="white"/>
</g>
<g opacity="0.2">
<path d="M46.9444 153.304C46.9444 153.304 45.0496 152.338 44.7633 153.166C44.7633 153.166 43.0945 152.548 43.5478 151.908C44.0011 151.27 46.9444 153.304 46.9444 153.304Z" fill="white"/>
</g>
<path d="M46.7977 162.037C45.7153 162.988 44.0566 163.137 42.7394 162.553C41.4221 161.968 40.4553 160.734 40.0133 159.361C39.5725 157.989 39.6202 156.492 39.9555 155.09C40.0421 154.726 40.2883 153.827 40.7993 153.835C41.2689 153.841 41.3481 154.524 41.4611 154.866C41.7863 155.85 42.1605 156.792 42.6828 157.691C43.1889 158.561 43.7954 159.374 44.486 160.106C44.6794 160.311 46.6056 162.204 46.7965 162.036L46.7977 162.037Z" fill="#E6E6E6"/>
<path d="M38.6174 153.949C37.8702 154.849 37.6417 156.153 38.0372 157.255C38.2972 157.978 38.7931 158.59 39.3042 159.162C39.6608 159.561 40.1468 159.985 40.6604 159.839C41.2154 159.682 41.3811 158.989 41.4414 158.416C41.5343 157.532 41.6021 156.646 41.6473 155.759C41.6837 155.031 41.9273 153.869 41.7076 153.175C41.5017 152.521 40.8763 152.678 40.1945 152.897C39.5842 153.092 39.028 153.455 38.6174 153.949Z" fill="#E6E6E6"/>
<g opacity="0.2">
<path d="M46.6523 160.446C47.5414 160.679 48.5522 160.341 49.1235 159.619C49.5454 159.086 50.0126 157.548 49.2893 157.112C48.5233 158.37 47.8427 159.517 46.6523 160.446Z" fill="white"/>
</g>
<g opacity="0.2">
<path d="M40.7522 158.563C39.9963 158.071 39.5153 157.181 39.5166 156.278C39.5166 155.78 40.4094 153.505 40.7987 154.696C40.9255 155.086 40.5701 156.094 40.5601 156.543C40.545 157.22 40.6091 157.9 40.7509 158.561L40.7522 158.563Z" fill="white"/>
</g>
<g opacity="0.2">
<path d="M43.481 160.977C42.6736 161.325 41.6415 161.036 41.1304 160.319C41.0789 160.796 42.3798 161.609 42.7804 161.874C43.8213 162.563 44.5735 162.243 45.8267 162.121C45.8267 162.121 43.9858 161.847 43.481 160.977Z" fill="white"/>
</g>
<path d="M33.5293 197.944L33.9801 196.458L34.5891 194.456L35.2935 192.119L40.9265 173.546L41.631 168.216L42.2563 163.485L42.3857 162.505L42.736 162.55L42.741 162.555L43.0964 162.6L43.0863 162.686L42.9608 163.611L42.2965 168.666L41.7515 172.785L41.631 173.691L41.5858 173.837L35.2885 194.582L34.5791 196.908L34.2538 197.989L33.8043 199.466L33.5293 197.944Z" fill="#E0E0E0"/>
<path d="M41.0723 173.329L41.4866 173.914C42.2476 173.372 43.0223 172.597 43.9176 171.7C45.3027 170.313 46.8735 168.743 48.8927 167.545L48.5285 166.928C46.4315 168.171 44.828 169.777 43.4129 171.194C42.5402 172.068 41.7855 172.822 41.0723 173.329Z" fill="#E0E0E0"/>
<path d="M42.0834 168.548C41.237 168.021 40.5916 167.179 40.3028 166.224C39.9751 165.139 40.1032 163.975 40.2337 162.849C41.3187 163.575 42.7815 163.39 43.9769 163.914C44.93 164.332 45.6646 165.218 45.8994 166.234C46.2033 167.55 46.0777 168.895 45.3494 169.231C44.7492 169.506 43.216 169.255 42.0834 168.551V168.548Z" fill="#E6E6E6"/>
<path d="M47.4208 167.571C48.3098 168.611 49.6747 169.227 51.0422 169.204C52.4096 169.182 53.3464 167.423 54.2015 166.354C53.1455 165.775 50.2335 165.055 49.5655 164.92C48.8975 164.786 48.1491 164.876 47.6317 165.319C47.1144 165.763 46.9248 166.609 47.3354 167.154C47.3768 167.141 47.4208 167.571 47.4208 167.571Z" fill="#E6E6E6"/>
<path d="M52.4784 171.347C52.0012 170.194 50.3349 168.948 49.0956 168.801C47.8574 168.654 46.608 169.154 45.8936 169.985C45.9752 170.826 46.6758 171.503 47.4619 171.808C48.248 172.114 49.1144 172.12 49.9582 172.122C50.802 172.123 51.6672 172.129 52.4545 172.433L52.4771 171.346L52.4784 171.347Z" fill="#E6E6E6"/>
<path d="M23.7301 153.959C23.7301 153.959 22.2898 154.971 21.8377 156.568C21.3857 158.164 24.1093 160.461 24.1093 160.461C24.1093 160.461 26.2188 161.425 27.9253 160.238L29.6305 159.051C29.6305 159.051 25.4416 154.105 23.8883 154.333L23.7301 153.959Z" fill="#E6E6E6"/>
<path d="M31.687 152.459C32.3914 155.039 31.3718 158.643 29.0714 159.273C26.7709 159.903 24.0612 157.322 23.3555 154.741C22.651 152.161 24.4906 151.561 26.791 150.93C29.0915 150.299 30.9813 149.878 31.6857 152.458L31.687 152.459Z" fill="#E6E6E6"/>
<path d="M24.6992 152.939C24.6992 152.939 26.746 154.037 30.2745 152.532C30.2745 152.532 25.1764 157.471 24.6992 152.939Z" fill="#E6E6E6"/>
<path d="M26.1797 152.13C26.1797 152.13 28.1737 151.394 28.3608 152.249C28.3608 152.249 30.0911 151.832 29.7157 151.144C29.3402 150.456 26.1797 152.13 26.1797 152.13Z" fill="#E6E6E6"/>
<g opacity="0.2">
<path d="M24.6992 152.939C24.6992 152.939 26.746 154.037 30.2745 152.532C30.2745 152.532 25.1764 157.471 24.6992 152.939Z" fill="white"/>
</g>
<g opacity="0.2">
<path d="M26.1797 152.13C26.1797 152.13 28.1737 151.394 28.3608 152.249C28.3608 152.249 30.0911 151.832 29.7157 151.144C29.3402 150.456 26.1797 152.13 26.1797 152.13Z" fill="white"/>
</g>
<path d="M25.2998 160.82C26.2629 161.891 27.8928 162.234 29.269 161.809C30.6453 161.384 31.7503 160.273 32.3505 158.961C32.9494 157.65 33.0775 156.158 32.9093 154.726C32.8653 154.355 32.7272 153.434 32.2186 153.381C31.7515 153.332 31.592 154.001 31.4401 154.328C31.0019 155.267 30.5197 156.158 29.8956 156.99C29.2904 157.794 28.5935 158.53 27.8212 159.175C27.6052 159.356 25.4693 161.01 25.2998 160.821V160.82Z" fill="#E6E6E6"/>
<path d="M34.3735 153.751C35.0101 154.733 35.0842 156.054 34.5618 157.102C34.219 157.789 33.6552 158.339 33.0789 158.847C32.6783 159.2 32.1459 159.565 31.6524 159.36C31.12 159.139 31.0359 158.431 31.0434 157.854C31.0547 156.966 31.0911 156.077 31.1514 155.19C31.2004 154.464 31.0949 153.28 31.3937 152.616C31.675 151.991 32.2777 152.222 32.9282 152.518C33.5108 152.784 34.0232 153.211 34.3722 153.751H34.3735Z" fill="#E6E6E6"/>
<g opacity="0.2">
<path d="M25.6326 159.258C24.7222 159.385 23.7579 158.929 23.2757 158.147C22.9191 157.567 22.6353 155.985 23.405 155.637C24.019 156.977 24.559 158.194 25.6326 159.258Z" fill="white"/>
</g>
<g opacity="0.2">
<path d="M31.7122 158.081C32.5209 157.681 33.1022 156.855 33.2065 155.957C33.2642 155.462 32.6452 153.099 32.1178 154.236C31.9457 154.608 32.1806 155.652 32.1379 156.099C32.0738 156.773 31.9319 157.441 31.7122 158.081Z" fill="white"/>
</g>
<g opacity="0.2">
<path d="M28.7188 160.157C29.4798 160.599 30.5396 160.433 31.1297 159.78C31.1247 160.259 29.7372 160.914 29.309 161.129C28.1952 161.691 27.4845 161.285 26.2539 161.016C26.2539 161.016 28.1136 160.961 28.7176 160.156L28.7188 160.157Z" fill="white"/>
</g>
<path d="M35.4595 208.712L29.0631 173.002L28.9111 161.815L29.6269 161.804L29.7788 172.942L36.2707 209.264L35.4595 208.712Z" fill="#E0E0E0"/>
<path d="M29.6606 172.706L29.1797 173.238C28.4865 172.611 27.8097 171.751 27.0249 170.754C25.8119 169.213 24.437 167.468 22.5723 166.042L23.0067 165.472C24.943 166.954 26.3481 168.737 27.5875 170.31C28.3522 171.281 29.0127 172.119 29.6606 172.706Z" fill="#E0E0E0"/>
<path d="M29.2187 167.84C30.1215 167.416 30.8611 166.656 31.2604 165.741C31.7137 164.703 31.7238 163.532 31.725 162.398C30.5623 162.991 29.1308 162.634 27.8826 163.014C26.8869 163.317 26.0531 164.111 25.7015 165.091C25.2457 166.361 25.2118 167.713 25.8962 168.132C26.4587 168.476 28.012 168.407 29.22 167.84H29.2187Z" fill="#E6E6E6"/>
<path d="M24.0325 166.242C23.0267 167.17 21.599 167.62 20.2441 167.438C18.8892 167.254 18.1647 165.398 17.4414 164.236C18.5577 163.786 21.5349 163.414 22.2143 163.359C22.8936 163.303 23.6257 163.481 24.0878 163.982C24.5498 164.484 24.639 165.347 24.1669 165.838C24.1279 165.821 24.0325 166.242 24.0325 166.242Z" fill="#E6E6E6"/>
<path d="M18.5668 169.397C19.1758 168.307 20.9777 167.267 22.2246 167.267C23.4715 167.267 24.6531 167.909 25.2659 168.82C25.0864 169.646 24.3103 170.234 23.4941 170.445C22.6779 170.657 21.8165 170.56 20.979 170.463C20.1415 170.365 19.2801 170.269 18.4639 170.479L18.5668 169.397Z" fill="#E6E6E6"/>
<path d="M38.0846 186.803H30.5769C30.0143 186.792 29.5108 187.154 29.3438 187.692C28.7272 189.643 27.415 194.772 27.415 202.851C27.415 211.727 29.7268 223.509 30.4538 226.99C30.5756 227.576 31.0892 227.997 31.6869 228.002H36.913C37.5108 227.997 38.0243 227.576 38.1461 226.99C38.8732 223.509 41.1849 211.726 41.1849 202.851C41.1849 194.772 39.8714 189.643 39.2562 187.692C39.0942 187.177 38.6245 186.821 38.0846 186.803Z" fill="#F0F0F0"/>
<path d="M244.827 434.999C379.288 434.999 488.291 428.624 488.291 420.761C488.291 412.897 379.288 406.523 244.827 406.523C110.366 406.523 1.36328 412.897 1.36328 420.761C1.36328 428.624 110.366 434.999 244.827 434.999Z" fill="#9A81D4" fill-opacity="0.12"/>
<path d="M82.5721 371.821C82.1452 371.794 81.8124 371.432 81.8225 370.999C82.7517 334.043 84.6553 273.419 84.7545 273.089C84.8813 272.664 85.3284 272.432 85.7515 272.548C86.1747 272.675 86.4183 273.121 86.294 273.546C86.2701 273.628 84.3477 334.462 83.4273 371.042C83.416 371.484 83.048 371.835 82.6048 371.825C82.5935 371.825 82.5834 371.824 82.5721 371.823V371.821Z" fill="#263238"/>
<path d="M77.6118 248.415C77.9207 251.262 81.3236 261.129 84.1665 260.82C87.0094 260.511 88.2136 250.14 87.9047 247.294C87.5958 244.448 85.0404 242.391 82.1988 242.7C79.356 243.01 77.3029 245.568 77.6118 248.414V248.415Z" fill="#6F4BC1"/>
<path d="M91.4067 279.542C91.0978 276.695 87.6949 266.828 84.8521 267.137C82.0092 267.447 80.8037 277.817 81.1139 280.663C81.4228 283.509 83.9781 285.566 86.8197 285.257C89.6626 284.948 91.7156 282.389 91.4067 279.542Z" fill="#6F4BC1"/>
<path d="M68.968 270.886C71.8109 270.576 81.6643 267.169 81.3554 264.322C81.0465 261.476 70.6908 260.269 67.8492 260.578C65.0063 260.888 62.9533 263.447 63.2622 266.292C63.5711 269.139 66.1264 271.195 68.968 270.886Z" fill="#6F4BC1"/>
<path d="M100.052 257.072C97.2088 257.381 87.3554 260.789 87.6643 263.635C87.9745 266.482 98.3289 267.689 101.172 267.379C104.015 267.069 106.068 264.511 105.759 261.665C105.45 258.819 102.893 256.762 100.052 257.072Z" fill="#6F4BC1"/>
<path d="M68.6414 257.859C70.8702 259.652 80.2439 264.22 82.0358 261.989C83.8277 259.757 77.3571 251.571 75.1295 249.778C72.9007 247.985 69.6422 248.34 67.8503 250.571C66.0585 252.803 66.4138 256.066 68.6414 257.859Z" fill="#6F4BC1"/>
<path d="M100.376 270.1C98.1472 268.305 88.7735 263.738 86.9816 265.97C85.1898 268.201 91.6603 276.387 93.8892 278.181C96.118 279.975 99.3765 279.62 101.167 277.389C102.959 275.157 102.605 271.894 100.376 270.1Z" fill="#6F4BC1"/>
<path d="M78.398 279.869C80.1887 277.637 84.7506 268.25 82.5217 266.456C80.2929 264.661 72.1196 271.141 70.3278 273.373C68.5359 275.605 68.8913 278.868 71.1201 280.662C73.3489 282.455 76.6074 282.101 78.3993 279.869H78.398Z" fill="#6F4BC1"/>
<path d="M90.6227 248.09C88.8321 250.322 84.2702 259.708 86.499 261.503C88.7279 263.296 96.9024 256.817 98.693 254.585C100.485 252.354 100.129 249.09 97.9007 247.297C95.6731 245.503 92.4133 245.858 90.6227 248.09Z" fill="#6F4BC1"/>
<g opacity="0.6">
<path d="M77.6118 248.415C77.9207 251.262 81.3236 261.129 84.1665 260.82C87.0094 260.511 88.2136 250.14 87.9047 247.294C87.5958 244.448 85.0404 242.391 82.1988 242.7C79.356 243.01 77.3029 245.568 77.6118 248.414V248.415Z" fill="white"/>
<path d="M91.4067 279.542C91.0978 276.695 87.6949 266.828 84.8521 267.137C82.0092 267.447 80.8037 277.817 81.1139 280.663C81.4228 283.509 83.9781 285.566 86.8197 285.257C89.6626 284.948 91.7156 282.389 91.4067 279.542Z" fill="white"/>
<path d="M68.968 270.886C71.8109 270.576 81.6643 267.169 81.3554 264.322C81.0465 261.476 70.6908 260.269 67.8492 260.578C65.0063 260.888 62.9533 263.447 63.2622 266.292C63.5711 269.139 66.1264 271.195 68.968 270.886Z" fill="white"/>
<path d="M100.052 257.072C97.2088 257.381 87.3554 260.789 87.6643 263.635C87.9745 266.482 98.3289 267.689 101.172 267.379C104.015 267.069 106.068 264.511 105.759 261.665C105.45 258.819 102.893 256.762 100.052 257.072Z" fill="white"/>
<path d="M68.6414 257.859C70.8702 259.652 80.2439 264.22 82.0358 261.989C83.8277 259.757 77.3571 251.571 75.1295 249.778C72.9007 247.985 69.6422 248.34 67.8503 250.571C66.0585 252.803 66.4138 256.066 68.6414 257.859Z" fill="white"/>
<path d="M100.376 270.1C98.1472 268.305 88.7735 263.738 86.9816 265.97C85.1898 268.201 91.6603 276.387 93.8892 278.181C96.118 279.975 99.3765 279.62 101.167 277.389C102.959 275.157 102.605 271.894 100.376 270.1Z" fill="white"/>
<path d="M78.398 279.869C80.1887 277.637 84.7506 268.25 82.5217 266.456C80.2929 264.661 72.1196 271.141 70.3278 273.373C68.5359 275.605 68.8913 278.868 71.1201 280.662C73.3489 282.455 76.6074 282.101 78.3993 279.869H78.398Z" fill="white"/>
<path d="M90.6227 248.09C88.8321 250.322 84.2702 259.708 86.499 261.503C88.7279 263.296 96.9024 256.817 98.693 254.585C100.485 252.354 100.129 249.09 97.9007 247.297C95.6731 245.503 92.4133 245.858 90.6227 248.09Z" fill="white"/>
</g>
<path d="M78.4143 264.643C78.7797 268.014 81.8059 270.449 85.1724 270.082C88.5389 269.716 90.9711 266.686 90.6045 263.315C90.2378 259.943 87.2116 257.508 83.8464 257.875C80.4799 258.242 78.0489 261.271 78.4143 264.643Z" fill="#6F4BC1"/>
<path d="M79.017 344.744C71.9425 344.9 59.8377 338.355 55.0748 331.967C50.2417 325.485 63.7956 329.476 62.3905 324.38C60.9841 319.283 44.2985 323.102 41.1958 315.805C38.093 308.508 50.145 310.153 49.6553 306.42C49.1668 302.686 36.6878 303.482 32.6583 295.729C28.6288 287.974 39.6199 292.292 37.887 289.08C36.1542 285.866 22.3542 272.359 28.1052 269.519C33.855 266.678 46.7961 280.749 51.122 282.312C55.4478 283.874 56.4297 274.125 62.0665 278.77C67.7033 283.416 63.5545 303.8 70.182 306.469C75.1181 308.457 72.9935 299.134 78.6767 301.472C88.6255 305.563 81.8888 344.681 79.0158 344.745L79.017 344.744Z" fill="#6F4BC1"/>
<g opacity="0.2">
<path d="M79.017 344.744C71.9425 344.9 59.8377 338.355 55.0748 331.967C50.2417 325.485 63.7956 329.476 62.3905 324.38C60.9841 319.283 44.2985 323.102 41.1958 315.805C38.093 308.508 50.145 310.153 49.6553 306.42C49.1668 302.686 36.6878 303.482 32.6583 295.729C28.6288 287.974 39.6199 292.292 37.887 289.08C36.1542 285.866 22.3542 272.359 28.1052 269.519C33.855 266.678 46.7961 280.749 51.122 282.312C55.4478 283.874 56.4297 274.125 62.0665 278.77C67.7033 283.416 63.5545 303.8 70.182 306.469C75.1181 308.457 72.9935 299.134 78.6767 301.472C88.6255 305.563 81.8888 344.681 79.0158 344.745L79.017 344.744Z" fill="white"/>
</g>
<path d="M89.1848 335.754C89.3028 335.953 88.2442 336.958 91.7376 337.102C100.339 337.457 115.55 336.876 121.263 329.043C129.418 317.861 110.608 318.887 112.438 312.721C114.267 306.554 134.474 311.59 138.418 302.787C142.362 293.983 127.665 295.702 128.346 291.173C129.028 286.644 144.447 292.512 149.529 283.175C154.611 273.837 141.141 278.833 143.324 274.963C145.506 271.096 162.606 254.989 155.678 251.399C148.751 247.809 132.682 264.622 127.383 266.422C122.084 268.22 120.858 251.73 113.893 257.249C106.928 262.768 111.498 287.66 103.375 290.751C97.3241 293.053 100.625 284.131 93.159 284.473C83.0156 284.94 79.6805 319.844 89.1848 335.754Z" fill="#6F4BC1"/>
<g opacity="0.3">
<path d="M89.1848 335.754C89.3028 335.953 88.2442 336.958 91.7376 337.102C100.339 337.457 115.55 336.876 121.263 329.043C129.418 317.861 110.608 318.887 112.438 312.721C114.267 306.554 134.474 311.59 138.418 302.787C142.362 293.983 127.665 295.702 128.346 291.173C129.028 286.644 144.447 292.512 149.529 283.175C154.611 273.837 141.141 278.833 143.324 274.963C145.506 271.096 162.606 254.989 155.678 251.399C148.751 247.809 132.682 264.622 127.383 266.422C122.084 268.22 120.858 251.73 113.893 257.249C106.928 262.768 111.498 287.66 103.375 290.751C97.3241 293.053 100.625 284.131 93.159 284.473C83.0156 284.94 79.6805 319.844 89.1848 335.754Z" fill="white"/>
</g>
<path d="M82.7371 366.238C82.722 366.238 82.707 366.236 82.6906 366.235C82.3843 366.198 82.1658 365.919 82.2034 365.611C89.2642 307.749 122.549 284.23 122.883 284C123.138 283.825 123.485 283.889 123.66 284.144C123.834 284.398 123.77 284.748 123.516 284.922C123.184 285.151 90.3089 308.415 83.3135 365.747C83.2771 366.038 83.0247 366.251 82.7371 366.238Z" fill="#263238"/>
<path d="M115.31 292.038C115.083 292.029 114.874 291.88 114.8 291.652C114.705 291.358 114.865 291.042 115.159 290.947C115.366 290.879 120.322 289.31 128.443 291.036C128.746 291.1 128.939 291.398 128.875 291.7C128.811 292.002 128.513 292.198 128.212 292.133C120.408 290.475 115.553 291.998 115.506 292.013C115.44 292.034 115.375 292.043 115.311 292.041L115.31 292.038Z" fill="#263238"/>
<path d="M109.157 299.066C108.86 299.053 108.623 298.812 108.62 298.511C108.448 281.012 118.564 267.34 118.667 267.204C118.852 266.957 119.203 266.907 119.451 267.093C119.698 267.279 119.747 267.63 119.561 267.878C119.461 268.011 109.571 281.394 109.739 298.501C109.742 298.811 109.494 299.064 109.185 299.067C109.175 299.067 109.167 299.067 109.157 299.067V299.066Z" fill="#263238"/>
<path d="M99.2441 313.877C99.1034 313.871 98.964 313.813 98.8598 313.701C98.6476 313.478 98.6577 313.123 98.8824 312.909C98.9578 312.839 106.447 305.905 116.254 309.424C116.544 309.528 116.696 309.849 116.591 310.14C116.487 310.431 116.167 310.584 115.876 310.479C106.708 307.185 99.72 313.657 99.6509 313.724C99.5366 313.831 99.3885 313.881 99.2441 313.876V313.877Z" fill="#263238"/>
<path d="M94.0636 324.208C93.8552 324.2 93.6593 324.074 93.5727 323.869C93.4157 323.502 89.7478 314.703 91.7695 302.168C91.8185 301.864 92.0947 301.65 92.4112 301.705C92.7163 301.754 92.9235 302.041 92.8745 302.347C90.9081 314.544 94.5646 323.342 94.6023 323.43C94.7229 323.714 94.591 324.044 94.3072 324.164C94.2281 324.198 94.1453 324.212 94.0649 324.21L94.0636 324.208Z" fill="#263238"/>
<path d="M82.9621 386.907C82.672 386.895 82.436 386.659 82.4259 386.365L81.7001 371.039C79.5579 320.082 44.6536 285.423 44.3008 285.08C44.0798 284.863 44.0748 284.509 44.2907 284.287C44.508 284.066 44.8608 284.062 45.0818 284.277C45.4372 284.624 80.6579 319.579 82.8177 370.999L83.5435 386.331C83.5535 386.64 83.3112 386.898 83.0023 386.908C82.9885 386.908 82.9746 386.908 82.9608 386.908L82.9621 386.907Z" fill="#263238"/>
<path d="M58.6984 304.221C58.6683 304.22 58.6369 304.216 58.6068 304.21C58.5578 304.2 58.4975 304.176 58.4435 304.147L58.2627 304.074C53.6933 302.173 48.5877 301.187 43.8889 301.29C43.575 301.305 43.3238 301.053 43.3176 300.742C43.31 300.433 43.5549 300.176 43.8638 300.17C48.7157 300.066 53.9821 301.08 58.6922 303.039L58.878 303.116C58.9119 303.129 58.9433 303.144 58.9747 303.161C59.1944 303.273 59.3213 303.522 59.2685 303.775C59.212 304.048 58.9672 304.231 58.6984 304.22V304.221Z" fill="#263238"/>
<path d="M63.6344 310.784C63.6256 310.784 63.6156 310.784 63.6068 310.781C63.2991 310.755 63.0719 310.481 63.0995 310.174C64.4506 295.134 56.6729 282.759 56.5938 282.636C56.428 282.376 56.5034 282.029 56.7633 281.863C57.0257 281.697 57.3698 281.772 57.5355 282.033C57.6159 282.158 65.5995 294.842 64.2133 310.275C64.1869 310.574 63.9295 310.797 63.6344 310.784Z" fill="#263238"/>
<path d="M68.728 319.497C68.5924 319.492 68.4568 319.435 68.3538 319.332C68.2973 319.274 62.6291 313.672 54.3341 315.885C54.034 315.967 53.7288 315.786 53.6497 315.488C53.5706 315.189 53.7477 314.882 54.0465 314.803C62.9882 312.414 68.9025 318.293 69.1499 318.545C69.3671 318.765 69.3646 319.118 69.1449 319.337C69.0293 319.45 68.8787 319.504 68.728 319.498V319.497Z" fill="#263238"/>
<path d="M75.1932 333.855C75.1129 333.852 75.0325 333.831 74.9572 333.792C74.6834 333.649 74.578 333.311 74.7211 333.037C74.76 332.961 78.6012 325.443 77.726 314.596C77.7008 314.288 77.9306 314.018 78.2383 313.994C78.5484 313.956 78.8159 314.198 78.841 314.507C79.7451 325.693 75.8776 333.24 75.7131 333.556C75.6089 333.755 75.4029 333.864 75.1932 333.855Z" fill="#263238"/>
<path d="M114.434 389.32C114.434 407.193 106.406 421.689 82.0948 421.689C58.8922 421.689 49.7559 407.193 49.7559 389.32C49.7559 382.579 51.824 376.308 55.3437 371.124H108.846C112.366 376.308 114.434 382.579 114.434 389.32Z" fill="#6F4BC1"/>
<path opacity="0.7" d="M114.434 389.32C114.434 407.193 106.406 421.689 82.0948 421.689C58.8922 421.689 49.7559 407.193 49.7559 389.32C49.7559 382.579 51.824 376.308 55.3437 371.124H108.846C112.366 376.308 114.434 382.579 114.434 389.32Z" fill="white"/>
<path d="M300.204 405.886L312.711 404.058L309.553 374.757L297.045 376.586L300.204 405.886Z" fill="#E79084"/>
<path d="M322.327 404.497C323.413 404.416 324.44 403.97 325.24 403.229C325.582 402.798 325.689 402.227 325.529 401.7C325.457 401.371 325.22 401.102 324.901 400.991C323.23 400.394 318.655 403.769 318.144 404.15C318.045 404.23 318.002 404.36 318.034 404.483C318.076 404.601 318.188 404.68 318.314 404.68C319.655 404.742 320.997 404.68 322.327 404.497ZM324.086 401.559C324.274 401.513 324.472 401.519 324.656 401.575C324.788 401.616 324.886 401.725 324.915 401.861C325.018 402.208 324.949 402.584 324.729 402.872C324.086 403.674 322.044 404.127 319.196 404.126C320.679 402.989 322.346 402.115 324.124 401.541L324.086 401.558V401.559Z" fill="#6F4BC1"/>
<path d="M318.383 404.694L318.486 404.647C319.873 403.731 322.376 400.541 321.906 399.163C321.762 398.855 321.501 398.46 320.662 398.506C320.054 398.517 319.48 398.786 319.082 399.245C317.727 400.801 317.996 404.232 318 404.371C317.996 404.477 318.042 404.577 318.125 404.641C318.198 404.698 318.295 404.717 318.384 404.693L318.383 404.694ZM320.486 399.138L320.653 399.06C321.205 399.037 321.269 399.242 321.287 399.311C321.582 400.145 319.923 402.596 318.542 403.727C318.414 402.285 318.749 400.839 319.496 399.599C319.764 399.32 320.126 399.15 320.511 399.125L320.486 399.138Z" fill="#6F4BC1"/>
<path d="M311.433 398.871L300.342 401.518C299.842 401.621 299.501 402.086 299.554 402.594L299.912 418.666C300.067 419.792 301.104 420.579 302.228 420.425C302.305 420.414 302.383 420.398 302.459 420.38C307.263 419.181 309.531 418.364 315.64 416.953C319.383 416.09 331.245 415.194 336.105 413.027C340.963 410.861 339.071 405.929 336.854 406.394C329.727 407.93 320.569 404.874 315.367 400.223C314.661 399.877 312.193 398.672 311.432 398.87L311.433 398.871Z" fill="#263238"/>
<path opacity="0.2" d="M309.552 374.757L311.18 389.86L298.674 391.703L297.033 376.603L309.552 374.757Z" fill="black"/>
<path d="M316.233 383.645L293.092 387.972C293.092 387.972 281.855 371.907 279.735 360.498C277.528 348.619 279.886 308.177 279.735 307.64C273.189 285.513 255.406 228.17 246.817 207.069C242.062 195.375 238.725 187.502 238.725 187.502L241.129 186.962L260.019 179.213L273.783 181.811C273.783 181.811 315.614 266.515 319.999 298.379C323.272 322.169 316.234 383.644 316.234 383.644L316.233 383.645Z" fill="#6F4BC1"/>
<path opacity="0.3" d="M316.233 383.645L293.092 387.972C293.092 387.972 281.855 371.907 279.735 360.498C277.528 348.619 279.886 308.177 279.735 307.64C273.189 285.513 255.406 228.17 246.817 207.069C242.062 195.375 238.725 187.502 238.725 187.502L241.129 186.962L260.019 179.213L273.783 181.811C273.783 181.811 315.614 266.515 319.999 298.379C323.272 322.169 316.234 383.644 316.234 383.644L316.233 383.645Z" fill="white"/>
<path opacity="0.2" d="M274.283 288.477C267.737 266.35 254.534 232.783 245.946 211.682L240.256 191.575L239.161 187.707L241.153 191.36L263.572 241.087C273.463 260.129 274.433 289.014 274.283 288.477Z" fill="black"/>
<path d="M172.716 398.987L183.863 403.69L195.759 378.129L184.612 373.427L172.716 398.987Z" fill="#E79084"/>
<path d="M191.124 409.04C192.008 409.593 193.052 409.83 194.088 409.71C194.596 409.571 195.001 409.19 195.174 408.693C195.306 408.398 195.274 408.056 195.09 407.79C194.137 406.383 188.7 406.401 188.091 406.405C187.969 406.411 187.863 406.486 187.817 406.599C187.783 406.715 187.825 406.84 187.922 406.911C188.922 407.717 189.993 408.43 191.124 409.041V409.04ZM194.14 407.768C194.31 407.838 194.46 407.954 194.572 408.102C194.65 408.209 194.665 408.35 194.609 408.469C194.493 408.796 194.228 409.046 193.895 409.145C192.946 409.4 191.114 408.594 188.916 406.982C190.703 406.944 192.483 407.212 194.18 407.774L194.14 407.766V407.768Z" fill="#6F4BC1"/>
<path d="M187.967 406.962L188.074 406.983C189.662 407.062 193.394 406.015 193.809 404.684C193.872 404.365 193.892 403.912 193.219 403.473C192.745 403.138 192.149 403.019 191.583 403.15C189.658 403.585 187.93 406.387 187.853 406.496C187.79 406.575 187.77 406.68 187.797 406.777C187.822 406.862 187.885 406.93 187.968 406.963L187.967 406.962ZM192.727 403.861L192.9 403.895C193.34 404.19 193.275 404.384 193.247 404.448C193.005 405.259 190.34 406.212 188.635 406.304C189.351 405.118 190.424 404.19 191.701 403.657C192.065 403.593 192.441 403.667 192.752 403.866L192.727 403.861Z" fill="#6F4BC1"/>
<path d="M185.889 398.53L175.831 394.297C175.388 394.094 174.861 394.26 174.615 394.683L165.822 407.293C165.306 408.25 165.661 409.445 166.617 409.963C166.683 409.999 166.751 410.031 166.821 410.059C171.207 411.852 173.419 412.504 178.932 414.873C182.31 416.326 191.975 422.349 196.949 423.425C201.923 424.503 203.246 419.623 201.271 418.727C194.901 415.878 189.554 408.336 188.163 401.801C187.814 401.135 186.587 398.807 185.888 398.529L185.889 398.53Z" fill="#263238"/>
<path opacity="0.2" d="M196.246 378.43L189.797 391.452L178.762 386.493L185.2 373.466L196.246 378.43Z" fill="black"/>
<path d="M198.568 392.622L176.367 380.77C176.367 380.77 172.111 364.943 176.367 354.847C184.56 335.417 205.872 306.85 206.017 306.311C211.704 283.947 221.68 222.702 225.087 200.172C226.979 187.689 228.09 184.995 228.09 184.995L230.432 185.763L264.402 185.831C264.402 185.831 270.811 237.346 246.25 317.104C240.139 336.949 229.901 353.449 213.056 375.77C206.66 384.245 198.569 392.622 198.569 392.622H198.568Z" fill="#6F4BC1"/>
<path opacity="0.3" d="M198.568 392.622L176.367 380.77C176.367 380.77 172.111 364.943 176.367 354.847C184.56 335.417 205.872 306.85 206.017 306.311C211.704 283.947 221.68 222.702 225.087 200.172C226.979 187.689 228.09 184.995 228.09 184.995L230.432 185.763L264.402 185.831C264.402 185.831 270.811 237.346 246.25 317.104C240.139 336.949 229.901 353.449 213.056 375.77C206.66 384.245 198.569 392.622 198.569 392.622H198.568Z" fill="white"/>
<path d="M294.496 143.74C294.745 139.92 297.275 134.999 299.457 132.725C300.158 131.998 302.806 130.891 304.307 129.913C311.683 125.067 326.444 119.022 326.444 119.022L331 123.001C331 123.001 322.008 131.705 316.659 135.878C315.608 136.698 314.39 137.694 313.107 138.747C310.781 140.691 299.828 147.925 297.737 149.738L294.496 143.74Z" fill="#E79084"/>
<path d="M339.434 116.773L331.008 123.007L326.28 119.521C326.28 119.521 328.209 117.061 330.192 115.154C331.062 114.317 331.532 113.164 331.543 111.955C331.559 110.097 331.839 107.94 332.847 106.359C332.873 106.322 332.885 106.284 332.909 106.259C334.736 103.503 339.007 104.332 339.871 107.519L341.087 112.017C341.567 113.791 340.912 115.679 339.435 116.771L339.434 116.773Z" fill="#E79084"/>
<path d="M297.192 145.426L294.971 147.465C294.28 146.91 293.181 146.019 291.799 144.87C280.975 135.872 253.84 114.045 264.657 107.815C273.929 102.476 283.776 118.815 288.689 123.721C289.688 124.735 292.428 127.899 294.638 131.867C296.946 136.032 298.66 141.075 297.192 145.426Z" fill="#263238"/>
<path d="M294.631 129.915C290.79 132.726 287.51 136.305 285.043 140.378C286.822 146.284 291.304 151.423 296.956 153.878C300.052 146.681 301.495 138.944 300.881 131.132C298.922 130.709 296.592 130.337 294.631 129.915Z" fill="#263238"/>
<path d="M235.042 106.544C231.169 107.79 226.737 106.793 224.252 110.017C221.767 113.241 221.02 117.496 221.023 121.569C221.028 127.234 222.322 132.808 223.609 138.323C225.168 145.011 226.728 151.698 228.288 158.387C229.354 162.959 228.232 184.217 229.37 184.573C229.37 184.573 264.867 183.876 273.767 182.628C273.767 182.628 274.541 160.775 275.254 153.332C275.412 151.681 277.916 144.669 278.21 142.908C279.596 134.606 276.879 128.751 274.008 120.84C274.008 120.84 267.722 108.166 264.654 107.82C259.194 107.203 245.832 103.072 235.042 106.544Z" fill="#263238"/>
<path d="M233.549 117.031C233.423 116.292 227.123 103.548 221.086 112.456C212.682 124.854 212.115 140.421 212.115 140.421C212.115 140.421 206.951 155.558 210.548 158.864C214.147 162.17 218.028 164.298 220.544 162.423C223.057 160.549 224.689 156.802 224.689 156.802C224.689 156.802 235.756 130.001 233.549 117.031Z" fill="#263238"/>
<path d="M233.143 101.817C230.492 103.888 230.841 108.688 233.763 110.351C233.029 112.921 233.888 115.879 235.884 117.654C237.881 119.43 240.915 119.934 243.377 118.899C242.312 120.809 243.513 123.33 245.35 124.512C247.187 125.694 249.457 125.909 251.62 126.2C253.784 126.49 256.072 126.957 257.643 128.476C259.88 125.252 262.117 122.029 264.354 118.805C265.226 117.55 266.129 116.203 266.196 114.677C266.264 113.149 265.104 111.465 263.582 111.577C265.13 109.961 265.162 107.128 263.65 105.479C262.138 103.829 259.317 103.618 257.577 105.023C257.889 103.731 257.133 102.36 256.044 101.601C254.954 100.841 253.598 100.582 252.277 100.453L233.144 101.817H233.143Z" fill="#263238"/>
<path d="M237.171 85.4062C238.917 91.8229 241.037 103.654 236.799 108.331C236.799 108.331 248.788 113.138 257.309 122.785C261.275 118.927 260.863 114.593 259.649 111.423C258.707 108.967 256.684 107.144 254.265 106.115C249.599 104.128 249.559 99.5285 250.335 95.1187L237.171 85.4062Z" fill="#E79084"/>
<path opacity="0.2" d="M239.783 96.3335L244.191 97.5318C246.08 98.0449 248.054 98.1631 249.989 97.8764C249.971 98.827 249.8 100.846 250.398 101.911C247.867 103.136 243.583 102.295 241.691 100.062C240.908 99.1891 240.209 97.4262 239.781 96.3335H239.783Z" fill="black"/>
<path d="M228.613 79.9427C233.28 89.806 235.046 94.0776 242.231 97.2174C253.056 101.963 264.1 94.0398 262.464 82.9794C260.993 73.0318 253.602 58.5713 242.114 58.5198C233.904 58.4393 227.184 65.0371 227.102 73.2594C227.08 75.5744 227.597 77.8629 228.613 79.9427Z" fill="#E79084"/>
<path d="M233.741 61.1064C230.341 59.5157 226.114 60.8122 223.283 63.3069C220.401 65.8457 218.647 69.3967 216.965 72.8521C216.051 74.7295 215.128 76.632 214.705 78.6778C214.282 80.7237 214.404 82.9606 215.483 84.7487C216.541 86.5016 218.51 87.6521 220.546 87.7716C221.717 87.8395 223.087 88.687 223.466 89.7986C223.817 90.8309 223.65 91.9488 223.485 93.0214C223.325 94.0588 223.173 95.1439 223.5 96.1411C224.041 97.8009 225.815 98.8081 227.551 98.9766C229.286 99.1451 231.01 98.6421 232.681 98.1442C233.741 97.8286 234.807 98.0109 235.631 98.7503C235.837 98.9351 236.005 99.1564 236.133 99.4004C236.653 100.39 238.159 100.234 238.592 99.2029C240.111 95.5878 237.9 89.8074 234.606 85.3963C232.858 83.055 232.954 83.6522 232.267 80.8104C231.696 78.4452 232.561 75.9794 233.618 73.7889C235.028 70.8679 236.843 68.0185 236.283 64.5317C236.045 63.0567 235.094 61.7376 233.742 61.1064H233.741Z" fill="#263238"/>
<path d="M228.908 90.0335C230.456 91.6832 232.595 92.6502 234.855 92.7219C237.854 92.7873 238.615 89.9228 237.167 87.4796C235.86 85.2766 232.725 82.5983 230.011 83.662C227.296 84.7258 227.02 87.9763 228.908 90.0335Z" fill="#E79084"/>
<path d="M247.381 78.1883C247.727 79.0522 248.413 79.5086 248.955 79.286C249.498 79.0635 249.631 78.2436 249.331 77.4062C249.029 76.5687 248.301 76.0947 247.756 76.3084C247.211 76.5222 247.055 77.3672 247.381 78.1883Z" fill="#263238"/>
<path d="M256.571 74.2263C256.909 75.0927 257.603 75.5466 258.137 75.3266C258.67 75.1065 258.812 74.2842 258.512 73.4467C258.212 72.6093 257.483 72.1352 256.946 72.3465C256.41 72.5577 256.237 73.4077 256.571 74.2263Z" fill="#263238"/>
<path d="M256.711 72.496L258.456 71.1279C258.456 71.1279 258.08 73.0757 256.711 72.496Z" fill="#263238"/>
<path d="M254.186 76.0747C256.319 78.1834 257.925 78.5695 260.235 80.018C260.169 82.0727 258.238 82.5442 258.238 82.5442L254.186 76.0747Z" fill="#ED847E"/>
<path d="M257.263 86.5706C257.661 86.421 258.046 86.2387 258.415 86.0249C258.536 85.9608 258.581 85.8111 258.517 85.6904C258.515 85.6867 258.512 85.6829 258.51 85.6779C258.438 85.5584 258.287 85.5119 258.161 85.571C256.213 86.7039 253.841 86.8297 251.785 85.908C251.657 85.8401 251.497 85.8878 251.429 86.0174C251.36 86.1456 251.409 86.3066 251.538 86.3745C253.344 87.2044 255.406 87.2761 257.263 86.5706Z" fill="#263238"/>
<path d="M247.038 71.3418C247.025 71.5769 246.863 71.7781 246.636 71.841C244.228 72.5565 243.159 75.6171 243.154 75.6422C243.059 75.9264 242.752 76.0798 242.469 75.9842C242.185 75.8887 242.032 75.5819 242.127 75.2977C242.22 75.182 243.385 71.6712 246.321 70.7935C246.607 70.7131 246.906 70.8753 246.994 71.1607C247.023 71.2173 247.038 71.2789 247.038 71.3418Z" fill="#263238"/>
<path d="M258.15 69.8618C257.949 69.985 257.692 69.9674 257.512 69.8152C255.552 68.2409 252.431 69.106 252.409 69.1161C252.121 69.2004 251.821 69.0344 251.737 68.7464C251.653 68.4585 251.818 68.1579 252.106 68.0737C252.254 68.0838 255.799 67.0426 258.192 68.9589C258.422 69.1488 258.458 69.4871 258.275 69.7222C258.245 69.7775 258.202 69.8253 258.151 69.8618H258.15Z" fill="#263238"/>
<path d="M247.538 76.453L249.285 75.0938C249.285 75.0938 248.888 77.0377 247.538 76.453Z" fill="#263238"/>
<path d="M234.489 59.4602C231.747 59.6803 229.144 61.242 227.656 63.5607C226.657 65.1162 226.306 67.4814 227.782 68.5905C228.473 69.1098 229.383 69.2041 230.244 69.2795C234.066 69.6153 238.777 66.6591 238.777 66.6591C237.304 60.4096 250.397 55.5747 256.852 65.2545C258.748 68.0988 258.235 70.1648 261.388 71.4788C262.873 72.0975 264.829 71.9265 265.78 73.2254C267.357 75.3794 264.325 79.0272 266.25 80.8769C267.568 82.1419 270.554 81.659 270.737 83.4773C270.824 84.3323 270.265 85.5696 271.086 85.8199C271.541 85.9582 271.959 85.542 272.253 85.1685C272.962 84.2657 273.692 83.3213 273.936 82.1997C274.18 81.0781 273.781 79.7251 272.737 79.2498C271.935 78.8838 269.814 79.2925 269.958 80.1627C270.132 81.2101 269.234 76.0697 269.636 74.127C269.986 72.4357 271.6 70.9695 271.11 69.3122C270.588 67.5443 268.491 66.8389 266.671 66.5685C264.85 66.2982 262.785 66.0769 261.666 64.6132C260.416 62.9785 260.985 60.6435 260.583 58.624C260.074 56.0564 257.934 54.057 255.534 53.0146C248.256 49.8534 236.997 50.3011 234.489 59.4602Z" fill="#263238"/>
<path d="M255.168 93.0122L230.062 105.643C221.807 109.795 218.073 119.559 221.445 128.173L233.554 159.097C236.927 167.709 246.297 172.338 255.173 169.774L282.173 161.978C292.291 159.057 297.707 148.06 293.863 138.243L279.861 102.486C276.018 92.6702 264.577 88.2792 255.168 93.0122ZM251.018 146.121C245.42 148.315 239.102 145.55 236.907 139.946C234.712 134.342 237.473 128.019 243.071 125.825C248.669 123.631 254.985 126.395 257.18 131.999C259.375 137.603 256.616 143.927 251.018 146.121Z" fill="#6F4BC1"/>
<path d="M255.168 93.0122L230.062 105.643C221.807 109.795 218.073 119.559 221.445 128.173L233.554 159.097C236.927 167.709 246.297 172.338 255.173 169.774L282.173 161.978C292.291 159.057 297.707 148.06 293.863 138.243L279.861 102.486C276.018 92.6702 264.577 88.2792 255.168 93.0122ZM251.018 146.121C245.42 148.315 239.102 145.55 236.907 139.946C234.712 134.342 237.473 128.019 243.071 125.825C248.669 123.631 254.985 126.395 257.18 131.999C259.375 137.603 256.616 143.927 251.018 146.121Z" fill="#6F4BC1"/>
<path opacity="0.1" d="M293.867 138.248L279.859 102.491C276.02 92.6655 264.578 88.2771 255.173 93.0113L247.879 96.6818L242.979 99.1413L230.068 105.642C221.811 109.796 218.072 119.56 221.441 128.174L233.549 159.098C236.931 167.713 246.299 172.335 255.173 169.778L282.179 161.979C284.388 161.337 286.376 160.311 288.091 158.988C289.425 157.974 290.585 156.787 291.559 155.466C295.102 150.695 296.213 144.256 293.867 138.248ZM251.013 146.12C245.422 148.321 239.102 145.552 236.906 139.94C234.708 134.341 237.473 128.013 243.077 125.825C248.668 123.625 254.987 126.394 257.185 131.993C259.37 137.604 256.617 143.92 251.013 146.12Z" fill="white"/>
<path d="M255.428 95.3649L231.881 107.21C224.139 111.104 220.637 120.262 223.8 128.341L235.157 157.343C238.32 165.42 247.107 169.761 255.433 167.358L280.756 160.045C290.245 157.305 295.325 146.993 291.72 137.786L278.588 104.249C274.983 95.0429 264.252 90.9248 255.428 95.3649ZM236.907 139.945C234.712 134.34 237.473 128.018 243.071 125.824C248.669 123.63 254.985 126.393 257.18 131.998C259.375 137.602 256.616 143.926 251.018 146.12C245.421 148.314 239.102 145.549 236.907 139.945Z" fill="#6F4BC1"/>
<path opacity="0.1" d="M255.428 95.3649L231.881 107.21C224.139 111.104 220.637 120.262 223.8 128.341L235.157 157.343C238.32 165.42 247.107 169.761 255.433 167.358L280.756 160.045C290.245 157.305 295.325 146.993 291.72 137.786L278.588 104.249C274.983 95.0429 264.252 90.9248 255.428 95.3649ZM236.907 139.945C234.712 134.34 237.473 128.018 243.071 125.824C248.669 123.63 254.985 126.393 257.18 131.998C259.375 137.602 256.616 143.926 251.018 146.12C245.421 148.314 239.102 145.549 236.907 139.945Z" fill="#6F4BC1"/>
<path d="M372.428 84.1814L371.708 85.4979L371.309 86.2285L370.172 88.307L370.648 93.6272C370.668 93.8548 370.642 94.0799 370.576 94.2874C370.424 94.7476 370.075 95.1311 369.605 95.316L359.68 99.2065C359.212 99.3901 358.697 99.3486 358.272 99.1109C358.135 99.0355 358.007 98.9399 357.896 98.8255L352.286 93.1129L352.271 93.0966L344.293 96.2238L345.449 99.1763L337.471 102.304L339.374 107.166L333.5 109.468C333.019 109.657 332.488 109.623 332.042 109.392C331.895 109.319 331.76 109.221 331.637 109.106L328.251 105.917L320.273 109.045L322.176 113.907L313.788 117.195L315.701 122.078C316.013 122.875 315.62 123.776 314.824 124.087L291.849 133.094L281.879 107.634L364.986 75.0562L366.286 75.7239L370.5 77.8892C372.797 79.0699 373.67 81.9155 372.43 84.1826L372.428 84.1814Z" fill="#6F4BC1"/>
<g opacity="0.1">
<path d="M372.428 84.1814L371.708 85.4979L371.309 86.2285L370.172 88.307L370.648 93.6272C370.668 93.8548 370.642 94.0799 370.576 94.2874C370.424 94.7476 370.075 95.1311 369.605 95.316L359.68 99.2065C359.212 99.3901 358.697 99.3486 358.272 99.1109C358.135 99.0355 358.007 98.9399 357.896 98.8255L352.286 93.1129L352.271 93.0966L344.293 96.2238L345.449 99.1763L337.471 102.304L339.374 107.166L333.5 109.468C333.019 109.657 332.488 109.623 332.042 109.392C331.895 109.319 331.76 109.221 331.637 109.106L328.251 105.917L320.273 109.045L322.176 113.907L313.788 117.195L315.701 122.078C316.013 122.875 315.62 123.776 314.824 124.087L291.849 133.094L281.879 107.634L364.986 75.0562L366.286 75.7239L370.5 77.8892C372.797 79.0699 373.67 81.9155 372.43 84.1826L372.428 84.1814Z" fill="white"/>
</g>
<path d="M372.101 81.2832L283.247 116.113L280.658 109.578L365.376 76.3691L369.59 78.5344C371.194 79.3593 372.115 80.1264 372.101 81.2832Z" fill="#6F4BC1"/>
<path opacity="0.1" d="M372.101 81.2832L283.247 116.113L280.658 109.578L365.376 76.3691L369.59 78.5344C371.194 79.3593 372.115 80.1264 372.101 81.2832Z" fill="black"/>
<path d="M370.347 86.1896L369.487 88.1223C369.473 88.1537 369.467 88.1889 369.471 88.2229L369.952 93.4903C369.969 93.6827 369.953 93.8738 369.908 94.0536C369.893 94.1152 369.845 94.1643 369.786 94.1869L358.996 98.4396C358.938 98.4622 358.871 98.4584 358.817 98.4257C358.713 98.3603 358.614 98.2811 358.526 98.1906L352.354 91.9801C352.298 91.9223 352.212 91.9047 352.137 91.9348L343.377 95.3878C343.273 95.4292 343.223 95.5462 343.263 95.6506L344.305 98.2975C344.347 98.4018 344.295 98.5188 344.191 98.5603L336.721 101.505C336.617 101.547 336.567 101.664 336.607 101.768L338.406 106.339C338.448 106.443 338.396 106.56 338.292 106.602L332.811 108.762C332.756 108.783 332.692 108.782 332.639 108.752C332.523 108.685 332.415 108.605 332.316 108.512L328.309 104.815C328.253 104.762 328.17 104.747 328.098 104.775L319.396 108.205C319.292 108.246 319.242 108.363 319.282 108.468L321.125 113.15C321.167 113.255 321.115 113.372 321.011 113.413L287.6 126.58C287.496 126.621 287.379 126.57 287.337 126.467L284.004 118.086C283.962 117.981 284.014 117.863 284.118 117.823L371.182 83.5088C371.352 83.4421 371.516 83.6156 371.441 83.7816L370.347 86.1921V86.1896Z" fill="#6F4BC1"/>
<path opacity="0.1" d="M370.347 86.1896L369.487 88.1223C369.473 88.1537 369.467 88.1889 369.471 88.2229L369.952 93.4903C369.969 93.6827 369.953 93.8738 369.908 94.0536C369.893 94.1152 369.845 94.1643 369.786 94.1869L358.996 98.4396C358.938 98.4622 358.871 98.4584 358.817 98.4257C358.713 98.3603 358.614 98.2811 358.526 98.1906L352.354 91.9801C352.298 91.9223 352.212 91.9047 352.137 91.9348L343.377 95.3878C343.273 95.4292 343.223 95.5462 343.263 95.6506L344.305 98.2975C344.347 98.4018 344.295 98.5188 344.191 98.5603L336.721 101.505C336.617 101.547 336.567 101.664 336.607 101.768L338.406 106.339C338.448 106.443 338.396 106.56 338.292 106.602L332.811 108.762C332.756 108.783 332.692 108.782 332.639 108.752C332.523 108.685 332.415 108.605 332.316 108.512L328.309 104.815C328.253 104.762 328.17 104.747 328.098 104.775L319.396 108.205C319.292 108.246 319.242 108.363 319.282 108.468L321.125 113.15C321.167 113.255 321.115 113.372 321.011 113.413L287.6 126.58C287.496 126.621 287.379 126.57 287.337 126.467L284.004 118.086C283.962 117.981 284.014 117.863 284.118 117.823L371.182 83.5088C371.352 83.4421 371.516 83.6156 371.441 83.7816L370.347 86.1921V86.1896Z" fill="black"/>
<path opacity="0.3" d="M242.407 123.105C235.385 125.858 231.923 133.789 234.676 140.82C237.43 147.852 245.354 151.318 252.376 148.566C259.399 145.813 262.86 137.883 260.107 130.851C257.354 123.82 249.43 120.352 242.407 123.105ZM251.019 146.121C245.421 148.316 239.102 145.551 236.907 139.946C234.712 134.342 237.474 128.019 243.071 125.825C248.669 123.631 254.985 126.395 257.18 131.999C259.375 137.604 256.616 143.927 251.019 146.121Z" fill="white"/>
<path opacity="0.1" d="M291.555 155.452C290.579 156.774 289.42 157.96 288.087 158.974L242.975 99.1273L242.938 99.0783C242.938 99.0783 246.912 97.0764 247.812 96.4829C247.812 96.532 247.837 96.5936 247.874 96.669C249.849 100.908 285.308 147.01 291.554 155.453L291.555 155.452Z" fill="white"/>
<path opacity="0.1" d="M285.038 160.866C284.754 161.002 271.608 165.007 271.608 165.007L256.958 145.577C260.747 141.856 262.167 136.097 260.105 130.844C257.353 123.811 249.429 120.338 242.406 123.094C241.788 123.329 241.208 123.613 240.653 123.934L227.693 106.741C227.693 106.741 239.086 101.303 240.344 100.512C240.677 102.922 285.038 160.359 285.038 160.866Z" fill="white"/>
<path d="M231.25 66.4754C229.783 68.2233 229.184 70.6702 229.678 72.8997C230.173 75.1291 231.748 77.092 233.817 78.0552C234.889 78.5544 236.07 78.7933 237.13 79.3164C238.191 79.8395 239.174 80.7612 239.287 81.9394C239.411 83.2408 238.453 84.4568 238.543 85.7607C238.626 86.9553 239.559 87.9034 240.501 88.6415C241.443 89.3796 242.495 90.0762 243.014 91.1551C243.532 92.234 243.196 93.8322 242.042 94.1466C241.798 94.52 241.704 95.4103 242.015 95.7309C242.326 96.0503 242.863 96.1182 243.242 95.8843C245.014 94.7929 246.231 92.7345 246.245 90.6509C246.258 88.5673 244.953 86.534 243.054 85.6815C242.711 84.9874 242.976 84.1097 243.264 83.3917C243.839 81.952 244.413 80.5122 244.988 79.0724C245.214 78.5066 245.013 77.4767 244.627 77.0065C244.242 76.5362 243.66 76.2797 243.102 76.0395L239.4 74.4501C238.002 73.8503 233.856 68.2849 238.778 66.6603C238.135 65.2306 237.024 64.7817 235.483 64.5C233.943 64.2183 232.258 65.2758 231.25 66.4754Z" fill="#263238"/>
<path d="M237.969 60.4898C237.846 61.9535 237.723 63.4159 237.6 64.8795C238.826 62.8626 241.099 58.9532 241.021 59.1054C240.056 59.6297 238.934 59.9655 237.969 60.4898Z" fill="#263238"/>
<path d="M239.63 62.8945C241.345 61.3064 243.059 59.7195 244.774 58.1313C243.451 57.6347 241.849 58.0043 240.876 59.0317C240.904 58.9235 240.111 61.363 239.63 62.8945Z" fill="#263238"/>
<path d="M229.172 181.858C222.474 190.18 224.703 196.562 215.46 211.296C227.118 219.949 239.899 221.383 255.789 220.147C257.666 216.816 258.615 213.339 260.494 210.007C263.187 213.353 265.35 216.166 268.042 219.512C276.367 218.205 286.258 215.863 292.843 211.614C287.029 204.937 283.419 196.596 279.696 189.234C277.95 185.782 278.681 184.329 274.05 179.802C259.298 180.484 244.668 180.844 229.917 181.526C230.306 181.546 228.784 181.838 229.173 181.858H229.172Z" fill="#263238"/>
<path d="M231.008 180.466L230.084 184.35C229.95 184.656 230.31 184.945 230.806 184.917L271.469 183.115C271.858 183.121 272.168 182.89 272.185 182.654L272.401 178.793C272.404 178.534 272.067 178.316 271.641 178.343L231.688 180.11C231.414 180.099 231.155 180.234 231.008 180.466Z" fill="#6F4BC1"/>
<path d="M231.008 180.466L230.084 184.35C229.95 184.656 230.31 184.945 230.806 184.917L271.469 183.115C271.858 183.121 272.168 182.89 272.185 182.654L272.401 178.793C272.404 178.534 272.067 178.316 271.641 178.343L231.688 180.11C231.414 180.099 231.155 180.234 231.008 180.466Z" fill="#6F4BC1"/>
<path d="M239.964 184.923L238.783 184.975C238.559 184.971 238.372 184.874 238.387 184.732L238.704 179.715C238.707 179.573 238.909 179.447 239.145 179.438L240.327 179.374C240.551 179.378 240.739 179.476 240.723 179.63L240.406 184.635C240.392 184.777 240.187 184.916 239.964 184.923Z" fill="#263238"/>
<path d="M269.323 183.656L268.143 183.707C267.918 183.704 267.731 183.606 267.746 183.465L268.064 178.459C268.066 178.306 268.268 178.179 268.493 178.17L269.673 178.118C269.898 178.122 270.085 178.22 270.07 178.361L269.753 183.365C269.75 183.519 269.559 183.646 269.323 183.653V183.656Z" fill="#263238"/>
<path d="M245.215 160.505C245.291 160.876 248.449 165.907 250.924 165.559C250.945 165.557 250.966 165.553 250.986 165.55C251.708 165.448 252.428 165.741 252.872 166.32C253.867 167.616 254.467 168.359 255.139 169.211C256.227 170.593 258.121 171.035 259.716 170.293C260.188 170.073 260.655 169.832 261.119 169.585C262.653 168.771 263.435 167.011 263.018 165.324C262.561 163.474 261.849 161.687 260.906 160.034C260.583 159.468 260.213 158.897 259.651 158.57C259.09 158.243 253.642 156.594 251.526 156.66C249.323 156.731 247.234 159.618 245.216 160.507L245.215 160.505Z" fill="#E79084"/>
<path d="M251.58 156.494C251.58 156.494 218.202 146.373 211.002 153.112C206.769 157.074 208.768 160.815 211.133 163.227C212.894 165.021 216.729 164.58 219.238 164.463L245.53 161.88L251.58 156.494Z" fill="#E79084"/>
<path d="M232.4 151.871C232.219 150.061 230.82 148.558 229.195 147.747C227.571 146.936 225.73 146.696 223.929 146.467C219.735 145.935 215.541 145.402 211.347 144.87C209.217 147.568 207.686 151.272 207.752 154.71C207.819 158.148 209.111 161.549 211.342 164.161C213.349 160.275 215.996 156.275 219.915 154.345C223.835 152.415 228.102 151.09 232.4 151.871Z" fill="#263238"/>
</g>
<defs>
<clipPath id="clip0_1048_2651">
<rect width="490" height="435" fill="white"/>
</clipPath>
</defs>
</svg>
