<svg width="24" height="25" viewBox="0 0 24 25" fill="none" xmlns="http://www.w3.org/2000/svg">
<g clip-path="url(#clip0_752_308)">
<path d="M11.2031 1.10371C10.3359 1.39902 3.01402 4.08496 2.84527 4.16934C2.26402 4.45996 1.8984 5.20527 2.01558 5.84278C2.04371 5.98809 2.13746 6.30215 2.22652 6.5459C2.31558 6.78496 2.39058 7.00059 2.39058 7.01934C2.39058 7.03809 2.24996 7.08027 2.08121 7.11309C1.45308 7.23027 0.76871 7.69902 0.417147 8.24277C0.33746 8.37403 0.210897 8.61777 0.145272 8.79121L0.0233972 9.10527L0.0093347 15.8787C-4.03007e-05 22.5068 -4.02988e-05 22.6568 0.0937097 23.0178C0.215585 23.5006 0.417147 23.8475 0.792147 24.2225C1.1484 24.574 1.57027 24.8037 2.0484 24.9021C2.52652 25.0053 20.0671 25.0053 20.5453 24.9021C21.2343 24.7568 21.914 24.26 22.2562 23.6553C22.5609 23.1209 22.5937 22.8537 22.5937 21.049V19.4412H22.7015C22.8843 19.4412 23.2875 19.2209 23.5078 18.9959C23.6296 18.8787 23.7843 18.6584 23.85 18.5131L23.9765 18.2459V15.9725V13.699L23.8546 13.4412C23.639 12.9771 23.2828 12.6678 22.814 12.5271L22.6171 12.4709L22.5937 10.7881C22.5656 9.12402 22.5656 9.10059 22.4484 8.79121C22.1015 7.90059 21.3468 7.2584 20.4515 7.10371L20.114 7.04746L20.1 5.98809L20.0859 4.92871L19.9312 4.61934C19.7625 4.27246 19.4859 4.00059 19.1343 3.82246L18.914 3.71465L16.4296 3.69121L13.9453 3.66777L13.6359 2.80996C13.2656 1.79277 13.2093 1.67559 12.9468 1.43184C12.6656 1.17402 12.3046 1.01934 11.9203 0.991213C11.6531 0.972462 11.5359 0.991213 11.2031 1.10371ZM11.939 2.41621C12.0046 2.4584 12.0843 2.63652 12.3 3.24121L12.4546 3.67715L12.0703 3.70527C11.7515 3.72402 11.6296 3.75215 11.3953 3.87871C11.0531 4.06153 10.814 4.31465 10.6453 4.6709C10.5281 4.92871 10.5234 4.96152 10.5093 5.99746L10.4953 7.06621H7.20465H3.91402L3.64215 6.33027C3.40308 5.67871 3.37965 5.58496 3.44058 5.50059C3.48746 5.42559 4.58433 5.0084 7.62184 3.89746C9.8859 3.06777 11.775 2.38809 11.8125 2.3834C11.85 2.3834 11.9062 2.39746 11.939 2.41621ZM18.6281 5.17246C18.689 5.2334 18.7031 5.38809 18.7031 6.15684V7.06621H15.3046H11.9062V6.15684C11.9062 5.38809 11.9203 5.2334 11.9812 5.17246C12.0468 5.10684 12.4125 5.09746 15.3046 5.09746C18.1968 5.09746 18.5625 5.10684 18.6281 5.17246ZM20.4046 8.53809C20.6625 8.63184 20.8875 8.82402 21.0328 9.07246L21.164 9.29277L21.1781 10.8725L21.1921 12.4521L19.5609 12.4662L17.9296 12.4803L17.5546 12.6115C16.364 13.0287 15.525 13.91 15.2062 15.0818C15.0984 15.4615 15.089 16.3943 15.1828 16.7646C15.4406 17.7818 16.1296 18.649 17.0343 19.0896C17.7609 19.4459 17.8171 19.4553 19.6078 19.4787L21.1875 19.4928V21.0303C21.1875 22.76 21.1734 22.8631 20.864 23.1818C20.7703 23.2803 20.6062 23.4021 20.5078 23.449C20.325 23.5428 20.1703 23.5428 11.2968 23.5428C2.4234 23.5428 2.26871 23.5428 2.0859 23.449C1.98746 23.4021 1.8234 23.2756 1.72965 23.1771C1.38277 22.8209 1.40152 23.3131 1.41558 15.9256L1.42965 9.29277L1.5609 9.07246C1.70621 8.82402 1.93121 8.63184 2.18902 8.53809C2.45152 8.44434 20.1421 8.44434 20.4046 8.53809ZM22.5187 13.9381C22.5843 13.999 22.5937 14.2521 22.5937 15.9584C22.5937 17.7068 22.5843 17.9178 22.514 17.9975C22.4437 18.0771 22.3171 18.0818 20.4187 18.0818C18.2296 18.0818 18.1125 18.0725 17.6156 17.8193C17.1187 17.5662 16.6734 16.9756 16.5515 16.4037C16.3687 15.5271 16.7625 14.6225 17.5359 14.1584C18.0046 13.8771 18.0937 13.8678 20.3765 13.8678C22.2 13.8631 22.4531 13.8725 22.5187 13.9381Z" fill="white"/>
<path d="M18.2905 15.349C17.7842 15.5974 17.7936 16.3333 18.3045 16.5818C18.4124 16.6333 18.5483 16.6755 18.6092 16.6755C18.8202 16.6755 19.1014 16.4974 19.2139 16.2958C19.5467 15.7052 18.9045 15.0443 18.2905 15.349Z" fill="white"/>
</g>
<defs>
<clipPath id="clip0_752_308">
<rect width="24" height="24" fill="white" transform="translate(0 0.972412)"/>
</clipPath>
</defs>
</svg>
