<svg width="24" height="24" viewBox="0 0 24 24" fill="none" xmlns="http://www.w3.org/2000/svg">
<path d="M7.19512 1.56562C6.85293 1.72031 6.7498 1.95469 6.7498 2.55937V3H5.11855C3.80605 3 3.43574 3.01406 3.21074 3.07031C2.40449 3.28125 1.78105 3.90937 1.57012 4.72031C1.4623 5.12344 1.4623 20.3766 1.57012 20.7797C1.78105 21.5906 2.40449 22.2188 3.21074 22.4297C3.45449 22.4906 4.50918 22.5 11.9998 22.5C19.4904 22.5 20.5451 22.4906 20.7889 22.4297C21.5951 22.2188 22.2186 21.5906 22.4295 20.7797C22.5373 20.3766 22.5373 5.12344 22.4295 4.72031C22.2186 3.90937 21.5951 3.28125 20.7889 3.07031C20.5639 3.01406 20.1936 3 18.8857 3H17.2592L17.2404 2.48906C17.2264 1.93594 17.1842 1.82812 16.9029 1.62187C16.7201 1.48594 16.2795 1.48594 16.0967 1.62187C15.8154 1.82812 15.7732 1.93594 15.7592 2.48906L15.7404 3H11.9998H8.25918L8.24043 2.48906C8.22637 1.93594 8.18418 1.82812 7.9123 1.62656C7.75293 1.50937 7.38262 1.47656 7.19512 1.56562ZM20.6529 4.62187C20.7232 4.67344 20.8264 4.77656 20.8779 4.84687C20.9717 4.96875 20.9764 5.04844 20.9904 6.23906L21.0045 7.5H11.9998H2.9998V6.30937C2.9998 5.07187 3.01855 4.94062 3.20137 4.73906C3.43105 4.49062 2.94355 4.50469 12.0561 4.51406L20.5264 4.52344L20.6529 4.62187ZM20.9904 14.7609C20.9764 20.4984 20.9764 20.5266 20.8779 20.6531C20.8264 20.7234 20.7232 20.8266 20.6529 20.8781L20.5264 20.9766H11.9998H3.47324L3.34668 20.8781C3.27637 20.8266 3.17324 20.7234 3.12168 20.6531C3.02324 20.5266 3.02324 20.4984 3.00918 14.7609L2.9998 9H11.9998H20.9998L20.9904 14.7609Z" fill="white"/>
<path d="M15.4453 11.3063C15.3938 11.3344 14.2688 12.286 12.9469 13.4203L10.5375 15.4828L9.59533 14.5453C8.88283 13.8375 8.60158 13.5891 8.47033 13.5469C7.95002 13.3828 7.44377 13.8328 7.52345 14.386C7.55158 14.5922 7.60314 14.6485 8.82658 15.8766C9.7172 16.7719 10.1485 17.1703 10.2563 17.2078C10.486 17.2828 10.7578 17.2313 10.9594 17.0813C11.5172 16.6547 16.3735 12.4407 16.4297 12.3282C16.6078 11.9813 16.4672 11.5172 16.125 11.3391C15.9422 11.2407 15.5906 11.2219 15.4453 11.3063Z" fill="white"/>
</svg>
