<svg width="22" height="22" viewBox="0 0 22 22" fill="none" xmlns="http://www.w3.org/2000/svg">
<path d="M9.92202 1.44482C10.4914 0.851726 11.441 0.851726 12.0103 1.44482C12.8542 2.32395 14.1004 2.69221 15.2868 2.41215C16.0706 2.22712 16.8772 2.74387 17.0395 3.55748C17.2767 4.74637 18.1216 5.7444 19.273 6.15806C20.0422 6.43442 20.4434 7.31087 20.1418 8.09094C19.7037 9.22435 19.8831 10.5195 20.6247 11.4891C21.1334 12.154 20.996 13.1076 20.3261 13.5982C19.3389 14.3212 18.8093 15.5168 18.9132 16.7242C18.9847 17.5548 18.3538 18.2809 17.5471 18.3266C16.3273 18.3958 15.2355 19.1098 14.6742 20.1872C14.2928 20.9193 13.378 21.187 12.6745 20.7846C11.6161 20.1792 10.3163 20.1792 9.25787 20.7846C8.55434 21.187 7.63956 20.9193 7.25816 20.1872C6.6969 19.1098 5.60504 18.3958 4.38526 18.3266C3.57856 18.2809 2.94767 17.5548 3.01915 16.7242C3.12306 15.5168 2.59345 14.3212 1.60625 13.5982C0.936413 13.1076 0.799013 12.154 1.30764 11.4891C2.0493 10.5195 2.22867 9.22436 1.79052 8.09094C1.48897 7.31087 1.89017 6.43442 2.65939 6.15806C3.81077 5.7444 4.65571 4.74637 4.89287 3.55748C5.05516 2.74387 5.86174 2.22712 6.64558 2.41215C7.832 2.69221 9.07813 2.32395 9.92202 1.44482Z" stroke="white" stroke-width="2"/>
<path d="M9.59422 12.6801L7.99669 11.0662C7.91068 10.9791 7.7939 10.9301 7.67212 10.9301C7.55034 10.9301 7.43357 10.9791 7.34755 11.0662C7.168 11.2475 7.168 11.5406 7.34755 11.722L9.27195 13.6662C9.4515 13.8476 9.74154 13.8476 9.92109 13.6662L14.7919 8.74522C14.9715 8.56383 14.9715 8.2708 14.7919 8.08941C14.7059 8.00231 14.5891 7.95337 14.4674 7.95337C14.3456 7.95337 14.2288 8.00231 14.1428 8.08941L9.59422 12.6801Z" stroke="white"/>
</svg>
