<svg width="10" height="13" viewBox="0 0 10 13" fill="none" xmlns="http://www.w3.org/2000/svg">
<path fill-rule="evenodd" clip-rule="evenodd" d="M0.0996094 11.3999C0.0996094 11.0133 0.413013 10.6999 0.799609 10.6999H9.19961C9.58622 10.6999 9.89961 11.0133 9.89961 11.3999C9.89961 11.7865 9.58622 12.0999 9.19961 12.0999H0.799609C0.413013 12.0999 0.0996094 11.7865 0.0996094 11.3999ZM2.40463 6.00493C2.678 5.73156 3.12122 5.73156 3.39459 6.00493L4.29961 6.90996V1.5999C4.29961 1.21331 4.61301 0.899902 4.99961 0.899902C5.38622 0.899902 5.69961 1.2133 5.69961 1.5999V6.90996L6.60464 6.00493C6.87799 5.73156 7.32123 5.73156 7.59458 6.00493C7.86793 6.2783 7.86793 6.72152 7.59458 6.99487L5.49458 9.09487C5.36333 9.22612 5.18525 9.2999 4.99961 9.2999C4.81395 9.2999 4.63591 9.22612 4.50463 9.09487L2.40463 6.99487C2.13127 6.72152 2.13127 6.2783 2.40463 6.00493Z" fill="white"/>
</svg>
