<svg width="23" height="22" viewBox="0 0 23 22" fill="none" xmlns="http://www.w3.org/2000/svg">
<path d="M18.2516 0.287502C18.0641 0.337502 17.7828 0.450002 17.6266 0.543752C17.3078 0.725002 8.70781 9.26875 8.48281 9.625C8.35156 9.8375 8.34531 9.91875 8.32656 11.5938C8.31406 12.5563 8.32031 13.4875 8.34531 13.6688C8.39531 14.0563 8.57656 14.35 8.87656 14.525C9.08281 14.65 9.18906 14.6562 11.1266 14.6562C13.1078 14.6562 13.1641 14.65 13.3766 14.5188C13.4953 14.4438 15.5703 12.4063 17.9766 9.9875C22.7266 5.225 22.6078 5.3625 22.7641 4.5125C22.8516 4.0375 22.7578 3.45 22.5203 2.975C22.2953 2.51875 20.5391 0.756252 20.0703 0.512502C19.4641 0.193752 18.8766 0.118752 18.2516 0.287502ZM19.9516 3.05C21.0203 4.11875 21.0141 4.0625 20.2141 4.875L19.6016 5.50625L18.5516 4.45625L17.5016 3.40625L18.1266 2.7875C18.9391 1.9875 18.8828 1.98125 19.9516 3.05ZM17.1266 5.90625L18.1578 6.9375L15.2828 9.8125L12.4078 12.6875L11.3766 12.675L10.3453 12.6563L10.3266 11.625L10.3078 10.6L13.1703 7.7375C14.7453 6.1625 16.0453 4.875 16.0641 4.875C16.0828 4.875 16.5578 5.3375 17.1266 5.90625Z" fill="#A4A4A4"/>
<path d="M3.25626 2.10005C2.20001 2.38755 1.36876 3.22505 1.09376 4.2938C0.950013 4.83755 0.956263 19.1688 1.09376 19.7188C1.38751 20.8313 2.32501 21.725 3.43126 21.9375C3.88751 22.025 18.1063 22.025 18.5688 21.9375C19.7188 21.725 20.725 20.7125 20.9375 19.5563C20.9813 19.3313 20.9938 17.6563 20.9875 14.9188C20.9688 10.7001 20.9688 10.6313 20.8375 10.4626C20.5938 10.1313 20.3938 10.0313 20 10.0313C19.6063 10.0313 19.4063 10.1313 19.1625 10.4626C19.0313 10.6313 19.0313 10.7126 19 15C18.9688 19.2875 18.9688 19.3688 18.8375 19.5375C18.7688 19.6313 18.6313 19.7688 18.5375 19.8375C18.3688 19.9688 18.3438 19.9688 11.0063 19.9688H3.64376L3.41251 19.7875C2.96876 19.4563 2.99376 19.9688 3.01251 11.9125C3.03126 4.6688 3.03126 4.6313 3.16251 4.46255C3.23126 4.3688 3.36876 4.2313 3.46251 4.16255C3.63126 4.0313 3.71251 4.0313 8.00001 4.00005C12.2875 3.9688 12.3688 3.9688 12.5375 3.83755C12.8688 3.5938 12.9688 3.3938 12.9688 3.00005C12.9688 2.6063 12.8688 2.4063 12.5375 2.16255C12.3688 2.0313 12.3 2.0313 7.98126 2.0188C4.30626 2.0063 3.53751 2.0188 3.25626 2.10005Z" fill="#A4A4A4"/>
</svg>
