<svg width="24" height="25" viewBox="0 0 24 25" fill="none" xmlns="http://www.w3.org/2000/svg">
<g clip-path="url(#clip0_752_313)">
<path d="M13.2891 1.02844C12.375 1.20187 11.5172 2.07375 11.3484 3.00656C11.3109 3.19875 11.2969 5.21906 11.2969 9.32531C11.2969 15.2878 11.2969 15.3675 11.3906 15.5503C11.55 15.8597 11.9531 16.005 12.2672 15.8644C12.3375 15.8362 13.0734 15.2316 13.8984 14.5331L15.3984 13.2534H18.5437C20.5781 13.2534 21.7828 13.2347 21.9656 13.2019C22.9219 13.0284 23.775 12.1753 23.9484 11.2191C24.0187 10.8347 24.0187 3.39093 23.9484 3.00656C23.775 2.05031 22.9219 1.19719 21.9656 1.02375C21.6094 0.958123 13.6312 0.962811 13.2891 1.02844ZM22.0594 2.5425C22.2 2.63156 22.3406 2.77219 22.4297 2.91281L22.5703 3.1425V7.10812C22.5703 11.505 22.5937 11.1862 22.2609 11.5144C21.9328 11.8425 22.1859 11.8191 18.375 11.8472C15.5484 11.8659 14.9109 11.8847 14.8172 11.9362C14.7516 11.9737 14.2875 12.3534 13.7812 12.78C13.2797 13.2066 12.8297 13.5862 12.7828 13.6237C12.7031 13.6847 12.7031 13.4409 12.7125 8.42062L12.7266 3.15187L12.8578 2.93156C12.9984 2.6925 13.1859 2.53781 13.4484 2.44406C13.5844 2.3925 14.4469 2.38312 17.7234 2.3925L21.8297 2.40187L22.0594 2.5425Z" fill="white"/>
<path d="M17.3344 3.88311C17.1328 3.98623 16.9688 4.26279 16.9688 4.48779C16.9688 4.72217 17.1328 4.98936 17.3438 5.09717C17.4422 5.14873 17.5922 5.19092 17.6719 5.19092C17.7516 5.19092 17.9016 5.14873 18 5.09717C18.2109 4.98936 18.375 4.72217 18.375 4.48779C18.375 4.25342 18.2109 3.98623 18 3.87842C17.7703 3.76123 17.5594 3.76123 17.3344 3.88311Z" fill="white"/>
<path d="M17.3435 6.67686C17.1231 6.78936 16.9825 7.01904 16.945 7.31904C16.9263 7.45498 16.9216 8.08779 16.931 8.73467C16.945 9.80342 16.9544 9.91592 17.0388 10.0565C17.17 10.2769 17.381 10.394 17.6481 10.394C17.9153 10.394 18.1263 10.2769 18.2575 10.0565C18.3466 9.91123 18.3513 9.81748 18.3513 8.51904C18.3513 7.22061 18.3466 7.12686 18.2575 6.97686C18.056 6.63936 17.6669 6.50811 17.3435 6.67686Z" fill="white"/>
<path d="M4.49978 8.63614C3.37478 8.87521 2.48416 9.55489 1.98728 10.558C1.67791 11.1955 1.63103 11.4111 1.6076 12.419C1.58416 13.2486 1.58885 13.3096 1.68728 13.5065C1.76697 13.6705 1.83728 13.7408 2.01541 13.8252L2.24041 13.933L2.25916 14.7533C2.27791 15.3158 2.30603 15.658 2.3576 15.8455C2.47947 16.2721 2.76541 16.8018 3.06072 17.1533C3.21072 17.3315 3.32791 17.4861 3.31853 17.4955C3.30916 17.5002 3.17791 17.5705 3.02322 17.6502C1.63103 18.3533 0.566972 19.7174 0.154472 21.3393C0.0466594 21.7705 0.0325969 21.9111 0.0138469 23.0877C-0.0142781 24.569 -0.000215614 24.6533 0.351347 24.8596L0.548222 24.9721H5.65291C11.3482 24.9721 10.9592 24.9955 11.1888 24.6486C11.292 24.494 11.2967 24.4611 11.2967 23.2846C11.2967 21.7096 11.1935 21.1236 10.7576 20.2143C10.256 19.1643 9.25291 18.1283 8.26853 17.6361C8.11853 17.5565 7.9826 17.4908 7.97322 17.4861C7.96385 17.4815 8.07635 17.3455 8.21697 17.1861C8.54041 16.8346 8.83103 16.2815 8.95291 15.8033C9.02791 15.5174 9.04666 15.283 9.04666 14.6783V13.919L9.17322 13.8861C9.35603 13.844 9.55291 13.6893 9.63728 13.5252C9.70291 13.4033 9.7076 13.2299 9.69353 12.4143C9.67478 11.5752 9.65603 11.4065 9.56697 11.1205C9.17791 9.92521 8.23572 9.01114 7.05447 8.67833C6.66541 8.57052 4.94041 8.54239 4.49978 8.63614ZM6.57166 10.0236C7.12478 10.1408 7.70603 10.5486 8.00135 11.0315C8.17947 11.3268 8.29666 11.7721 8.29666 12.1565V12.5033H7.72478C7.40603 12.5033 7.06853 12.4799 6.9701 12.4518C6.76385 12.3955 6.44041 12.1236 6.39353 11.9736C6.3326 11.7721 6.14041 11.5752 5.92947 11.4955C5.54041 11.3455 5.14197 11.5049 4.9451 11.8893C4.80916 12.1658 4.56072 12.3861 4.32635 12.4518C4.22791 12.4799 3.89041 12.5033 3.57635 12.5033H2.99978V12.208C2.99978 11.1861 3.6701 10.3096 4.65447 10.0424C4.95447 9.96271 6.21541 9.94864 6.57166 10.0236ZM6.4826 13.769C6.65135 13.8252 6.95603 13.8815 7.20916 13.8955L7.64978 13.9236L7.63103 14.7018C7.61697 15.4658 7.61228 15.4846 7.46697 15.7986C7.18572 16.394 6.6326 16.8111 5.98103 16.9236C5.11853 17.069 4.21853 16.5861 3.83885 15.7705C3.68416 15.4377 3.67947 15.419 3.66541 14.6783L3.64666 13.9236L4.08728 13.8955C4.59822 13.8627 4.99197 13.7408 5.37635 13.4924L5.64822 13.319L5.9201 13.4924C6.0701 13.5908 6.32322 13.7127 6.4826 13.769ZM4.96853 19.4361C4.96853 20.3736 4.97322 20.4158 5.07635 20.5705C5.36228 20.9971 5.92478 20.9877 6.25291 20.5471C6.34197 20.4299 6.35135 20.3408 6.36541 19.4361L6.37947 18.4565L6.50603 18.4846C7.92166 18.794 9.07947 19.7643 9.60447 21.0815C9.8201 21.6299 9.89041 22.0658 9.89041 22.8627V23.5658H5.64353H1.39197L1.4201 22.7549C1.43416 22.1549 1.46697 21.8596 1.53728 21.5924C1.85603 20.3971 2.67635 19.394 3.77322 18.8455C4.10135 18.6815 4.68728 18.4846 4.91228 18.4611C4.95447 18.4565 4.96853 18.6815 4.96853 19.4361Z" fill="white"/>
</g>
<defs>
<clipPath id="clip0_752_313">
<rect width="24" height="24" fill="white" transform="translate(0 0.972168)"/>
</clipPath>
</defs>
</svg>
