<svg width="24" height="24" viewBox="0 0 24 24" fill="none" xmlns="http://www.w3.org/2000/svg">
<g clip-path="url(#clip0_2108_3716)">
<path d="M14.766 2.53941C12.2769 3.17222 11.4331 3.4066 11.3581 3.4816C11.2363 3.58941 11.2128 3.82378 11.3113 3.94566C11.3394 3.98785 11.7613 4.3066 12.2488 4.66285C12.7316 5.01441 13.1253 5.30972 13.1253 5.31441C13.1253 5.3191 13.041 5.74566 12.9378 6.2566C12.8347 6.76753 12.7503 7.28785 12.7503 7.40972C12.7503 8.41753 14.2597 9.74878 15.9613 10.241C16.9363 10.5222 18.1738 10.5738 19.0831 10.3628C20.1753 10.1144 21.0285 9.56597 21.2113 8.99878C21.2347 8.93316 21.3378 8.45035 21.4456 7.92535L21.6378 6.96441L22.7113 6.69253C23.6019 6.46285 23.8081 6.39722 23.8972 6.29878C24.0378 6.1441 24.0285 5.98472 23.8738 5.81597C23.7988 5.73628 22.6691 4.88785 21.3519 3.9316C18.141 1.58316 18.2863 1.68628 18.1691 1.69097C18.1175 1.69566 16.5847 2.07535 14.766 2.53941ZM20.4191 4.18003C22.2331 5.5066 22.7206 5.88628 22.655 5.91441C22.6081 5.93316 21.3519 6.2566 19.8613 6.6316L17.1566 7.31597L16.041 6.50035C15.4316 6.05503 14.3863 5.29097 13.7206 4.80347C12.9331 4.22691 12.53 3.90816 12.5722 3.88472C12.605 3.86597 13.73 3.57535 15.0706 3.23785C16.4113 2.90035 17.616 2.59566 17.7425 2.55816C17.8738 2.52066 18.005 2.48785 18.0378 2.48785C18.0706 2.48316 19.1441 3.24722 20.4191 4.18003ZM15.3378 6.91753C16.1628 7.52222 16.8847 8.04253 16.9456 8.07066C17.0253 8.10816 17.4425 8.01441 18.9144 7.6441C19.941 7.3816 20.7894 7.17535 20.7988 7.18941C20.8081 7.19878 20.7519 7.55972 20.6675 7.99097C20.5269 8.72222 20.5081 8.79253 20.3628 8.95191C19.8331 9.53785 18.1691 9.88941 16.9128 9.68316C15.6003 9.46753 14.4472 8.84878 13.7722 8.00035C13.4722 7.62066 13.4675 7.53628 13.641 6.61285C13.7253 6.17222 13.805 5.81128 13.8144 5.81128C13.8238 5.81128 14.5081 6.30816 15.3378 6.91753Z" fill="white"/>
<path d="M2.95897 7.3729C2.70585 7.46665 2.47616 7.68697 2.35897 7.94478L2.24647 8.18853L2.25585 14.1276L2.26991 20.062H1.24804H0.226161L0.113661 20.1792C-0.205089 20.4932 0.141786 21.5385 0.708973 21.9885C1.15429 22.3401 0.273036 22.312 11.6215 22.312C20.523 22.312 21.8543 22.3026 22.0605 22.2417C22.6887 22.0542 23.1668 21.3932 23.2324 20.6151C23.2558 20.3245 23.2512 20.2963 23.1387 20.1838L23.0168 20.062H21.9949H20.973L20.9871 15.4917L20.9965 10.9167L20.884 10.8042C20.7293 10.6495 20.5137 10.6495 20.3637 10.8042L20.2465 10.9167V15.3745V19.8323L20.1293 19.9448L20.0168 20.062H11.6215H3.22616L3.11366 19.9448L2.99647 19.8323V14.0479V8.26353L3.10429 8.16509L3.2121 8.06197H7.44022C10.4355 8.06197 11.6965 8.0479 11.7762 8.0104C12.0058 7.90728 12.0621 7.60728 11.8793 7.42915L11.7668 7.31197L7.44022 7.31665C4.23397 7.31665 3.07616 7.3354 2.95897 7.3729ZM22.4496 20.8354C22.4496 20.8495 22.4074 20.9385 22.3605 21.037C22.2527 21.2479 22.0512 21.4448 21.873 21.5104C21.6855 21.5807 1.55741 21.5807 1.36991 21.5104C1.19179 21.4448 0.990223 21.2479 0.882411 21.037C0.835536 20.9385 0.793348 20.8495 0.793348 20.8354C0.793348 20.8213 5.66835 20.812 11.6215 20.812C17.5793 20.812 22.4496 20.8213 22.4496 20.8354Z" fill="white"/>
<path d="M9.09375 10.6406C9 10.7344 9 10.7953 9 14.2453V17.7609L9.12187 17.8547C9.19219 17.9109 9.3 17.9531 9.36094 17.9531C9.47344 17.9531 15.8203 14.6578 15.9891 14.5125C16.1156 14.4094 16.1531 14.2078 16.0734 14.0719C15.9797 13.9031 9.57187 10.5469 9.34687 10.5469C9.24844 10.5469 9.15 10.5844 9.09375 10.6406ZM12.8578 13.1484C13.9828 13.7391 14.9062 14.2359 14.9062 14.25C14.9062 14.2641 14.0156 14.7375 12.9281 15.3047C11.8359 15.8719 10.6781 16.4766 10.35 16.65L9.75 16.9641V14.2453V11.5219L10.2797 11.7984C10.5656 11.9531 11.7281 12.5578 12.8578 13.1484Z" fill="white"/>
</g>
<defs>
<clipPath id="clip0_2108_3716">
<rect width="24" height="24" fill="white"/>
</clipPath>
</defs>
</svg>
