<svg width="24" height="24" viewBox="0 0 24 24" fill="none" xmlns="http://www.w3.org/2000/svg">
<path d="M2.4422 1.57495C1.65001 1.78589 1.03126 2.4187 0.820322 3.22026C0.71251 3.62807 0.717197 15.8765 0.820322 16.289C1.03126 17.0953 1.65938 17.7187 2.47032 17.9296C2.67657 17.9859 3.03282 17.9999 3.99376 17.9999H5.24532L5.25938 20.0109C5.27345 21.9609 5.27813 22.0265 5.37188 22.1531C5.60157 22.4671 5.98126 22.5796 6.28595 22.4343C6.37501 22.3921 7.66876 21.3796 9.16407 20.1796L11.8828 18.0046L16.5703 17.9999C21.6703 17.9999 21.5063 18.0093 22.0406 17.7374C22.3734 17.5687 22.7859 17.1609 22.9641 16.8328C23.2641 16.2656 23.25 16.6406 23.25 9.74995C23.25 4.27964 23.2406 3.45464 23.1797 3.21089C22.9688 2.40464 22.3406 1.7812 21.5297 1.57026C21.1313 1.46714 2.83126 1.47182 2.4422 1.57495ZM21.4031 3.12182C21.4734 3.17339 21.5766 3.27651 21.6281 3.34682C21.7266 3.47339 21.7266 3.48745 21.7266 9.74526V16.0171L21.5906 16.1906C21.3422 16.5187 21.6563 16.4999 16.3172 16.4999C13.3359 16.4999 11.4469 16.5187 11.3719 16.5468C11.3063 16.5703 10.2516 17.3906 9.02345 18.3749C7.80001 19.3546 6.78751 20.1562 6.77813 20.1562C6.76407 20.1562 6.74532 19.439 6.74063 18.5671C6.72657 17.0437 6.72188 16.9687 6.62813 16.8468C6.57657 16.7765 6.47345 16.6734 6.40313 16.6218C6.28126 16.5281 6.20157 16.5234 4.50001 16.4999C2.79845 16.4765 2.71876 16.4718 2.59688 16.3781C2.52657 16.3265 2.42345 16.2234 2.37188 16.1531C2.27345 16.0265 2.27345 16.0031 2.25938 9.87651C2.2547 6.49214 2.25938 3.66089 2.27345 3.57651C2.30626 3.38901 2.50313 3.14995 2.69532 3.06557C2.81251 3.01401 4.46251 3.00464 12.0563 3.01401L21.2766 3.02339L21.4031 3.12182Z" fill="white"/>
<path d="M5.69546 7.56552C5.3814 7.70145 5.20327 8.06239 5.2689 8.41395C5.31109 8.63427 5.54546 8.89208 5.7564 8.95302C5.87827 8.99052 7.86109 8.99989 12.1033 8.99052C18.2533 8.97645 18.2767 8.97645 18.4033 8.87802C18.6517 8.6952 18.7267 8.5452 18.7267 8.24989C18.7267 7.95458 18.6517 7.80458 18.4033 7.62177C18.2767 7.52333 18.258 7.52333 12.0564 7.51395C6.9564 7.50458 5.81265 7.51395 5.69546 7.56552Z" fill="white"/>
<path d="M5.69546 10.5655C5.3814 10.7015 5.20327 11.0624 5.2689 11.414C5.31109 11.6343 5.54546 11.8921 5.7564 11.953C5.87359 11.9905 6.96109 11.9999 9.10327 11.9905C12.2205 11.9765 12.2767 11.9765 12.4033 11.878C12.6517 11.6952 12.7267 11.5452 12.7267 11.2499C12.7267 10.9546 12.6517 10.8046 12.4033 10.6218C12.2767 10.5233 12.2251 10.5233 9.0564 10.514C6.45015 10.5046 5.80796 10.514 5.69546 10.5655Z" fill="white"/>
</svg>
