<svg width="24" height="24" viewBox="0 0 24 24" fill="none" xmlns="http://www.w3.org/2000/svg">
<g clip-path="url(#clip0_2108_3721)">
<path d="M4.16686 0.15C3.95592 0.267187 3.79654 0.539062 3.79654 0.768749C3.79654 0.890624 3.77311 0.946875 3.71686 0.970312C3.66998 0.984375 3.51998 1.04531 3.37936 1.10625L3.13092 1.21875L2.97154 1.07812C2.79342 0.923437 2.56373 0.867188 2.30592 0.914062C2.16529 0.942188 2.01998 1.05469 1.53248 1.5375C0.894981 2.17031 0.801231 2.32031 0.862168 2.63906C0.880918 2.72812 0.955918 2.8875 1.03092 2.99062L1.16686 3.17812L1.04029 3.48281C0.913731 3.7875 0.913731 3.79219 0.698106 3.82031C0.402793 3.8625 0.210606 3.98906 0.0934183 4.21875C-0.000331663 4.40156 -0.00501917 4.47656 0.00904333 5.25C0.0231058 6.00938 0.0324808 6.09844 0.121543 6.21562C0.280918 6.43125 0.449668 6.52969 0.698106 6.55312C0.829356 6.5625 0.937168 6.59531 0.937168 6.62344C0.937168 6.64687 0.993418 6.79219 1.05904 6.94219L1.18561 7.21875L1.04029 7.38281C0.960606 7.47188 0.880918 7.62187 0.862168 7.71562C0.801231 8.03437 0.904356 8.22656 1.44342 8.775C2.08092 9.42656 2.16998 9.4875 2.53561 9.45937C2.75592 9.44531 2.84029 9.4125 2.94342 9.31406C3.01373 9.24375 3.09342 9.1875 3.11686 9.1875C3.14029 9.1875 3.29967 9.24375 3.47311 9.30937L3.78717 9.43125L3.80592 9.66562C3.83404 9.92812 3.94654 10.1062 4.17623 10.2422C4.32154 10.3266 4.41998 10.3359 5.15592 10.3359C5.90123 10.3359 5.99029 10.3266 6.14029 10.2375C6.37467 10.1016 6.51529 9.87187 6.51529 9.62812C6.51529 9.44062 6.52467 9.42656 6.69342 9.37031C6.78717 9.34219 6.94186 9.27656 7.04029 9.22969C7.18092 9.15937 7.21842 9.15469 7.26061 9.20625C7.29811 9.24844 7.30748 9.89531 7.30279 11.4094L7.28873 13.5516L6.89029 13.6828C6.66998 13.7578 6.27623 13.9078 6.00904 14.0109C5.74654 14.1187 5.52154 14.2031 5.51217 14.2031C5.50279 14.2031 5.48873 14.0578 5.47467 13.8797C5.45592 13.5094 5.32467 13.2797 5.02936 13.0781L4.85592 12.9609L2.52623 12.9469L0.191856 12.9328L0.0981058 13.0406C-0.0800192 13.2281 -0.00501916 13.4953 0.252793 13.5938C0.332481 13.6219 1.14811 13.6406 2.50279 13.6406C4.49967 13.6406 4.63092 13.6453 4.70123 13.725C4.77154 13.8047 4.78092 13.9875 4.78092 15.3891C4.78092 16.3641 4.79967 17.0109 4.82779 17.0906C4.92623 17.3484 5.14654 17.4141 5.36217 17.2453L5.48404 17.1516V16.0594V14.9672L6.36061 14.6297C7.57936 14.1703 7.71529 14.1375 8.53092 14.1375C9.95592 14.1328 11.0247 14.5219 12.8669 15.7125C13.795 16.3125 14.0669 16.5469 14.3387 16.9641C14.6247 17.4141 14.7419 17.8359 14.7419 18.4453C14.7419 18.9281 14.7325 18.975 14.6059 19.2094C14.3997 19.5797 14.1653 19.7016 13.72 19.6781C13.4856 19.6687 13.3028 19.6266 13.12 19.5375C12.9747 19.4719 12.1028 18.9281 11.1794 18.3281C10.2606 17.7281 9.44498 17.2125 9.36998 17.1891C9.25748 17.1469 9.21529 17.1516 9.10748 17.2312C8.95748 17.3437 8.91061 17.5969 9.00904 17.7234C9.06529 17.7984 12.1684 19.8187 12.609 20.0719C13.1106 20.3625 13.9028 20.475 14.334 20.325C14.6247 20.2219 14.9012 20.0156 15.0887 19.7672L15.2575 19.5375L18.5622 18.2484C21.5294 17.0859 21.8997 16.9547 22.1997 16.9312C22.7294 16.8984 23.0434 17.0437 23.2075 17.4094C23.3247 17.6672 23.32 17.9297 23.184 18.2109C22.9544 18.7125 22.9825 18.6984 18.459 20.7984C16.1856 21.8578 14.1934 22.7766 14.0387 22.8422C12.9278 23.2969 12.1731 23.3578 11.3059 23.0672C10.7528 22.8844 10.2934 22.65 9.25748 22.0312C7.43873 20.9484 7.01686 20.775 5.91998 20.6953L5.48404 20.6578V19.5469C5.48404 18.5297 5.47467 18.4312 5.39967 18.3609C5.27311 18.2484 5.00123 18.2578 4.89342 18.3797C4.80904 18.4734 4.80436 18.5812 4.79029 20.1328C4.77623 21.7359 4.77623 21.7875 4.68248 21.8719C4.58873 21.9562 4.44811 21.9609 2.36217 21.9844C0.215293 22.0078 0.140293 22.0125 0.0746683 22.1016C-0.0753317 22.2937 0.00904332 22.5469 0.252793 22.6406C0.421543 22.7016 4.30279 22.7063 4.64498 22.6406C4.94029 22.5844 5.17936 22.4297 5.34342 22.1906C5.43248 22.0594 5.46061 21.9422 5.47467 21.6891L5.49342 21.3609L5.91061 21.3937C6.76842 21.4594 7.27936 21.6656 8.72779 22.5375C10.5465 23.6344 11.3575 23.9531 12.3231 23.9531C13.2419 23.9531 13.6872 23.7938 16.8372 22.3312C22.2887 19.8047 22.8606 19.5328 23.1372 19.3312C23.4512 19.1109 23.7044 18.7969 23.8684 18.4359C23.9528 18.2578 23.9715 18.1266 23.9715 17.7891C23.9715 17.4234 23.9575 17.3297 23.845 17.1047C23.634 16.6687 23.1934 16.3266 22.7294 16.2422L22.5606 16.2094L22.5325 14.9859C22.5137 14.3109 22.4997 13.3219 22.4997 12.7875V11.8172L22.3778 11.7234C22.2231 11.6016 22.0731 11.5969 21.9325 11.7141L21.82 11.8031L21.8294 14.025L21.8434 16.2469L21.595 16.3266C21.4637 16.3687 20.034 16.9172 18.4215 17.55L15.4919 18.6937L15.459 18.2391C15.4122 17.5266 15.1825 16.9078 14.7465 16.3266C14.4512 15.9375 14.2262 15.7547 13.1762 15.075C11.3622 13.9031 10.1012 13.4391 8.66217 13.4344L8.01529 13.4297V11.4562V9.47812L8.15123 9.42656C8.32467 9.35156 9.35592 8.31094 9.41685 8.1375C9.52935 7.85625 9.4731 7.59375 9.25279 7.35938L9.14029 7.2375L9.27623 6.91406L9.41685 6.58594L9.63717 6.55312C10.0497 6.49219 10.3122 6.19219 10.3122 5.78437V5.53125H11.7419H13.1715V7.31719C13.1715 8.1375 13.1622 8.31562 13.2512 8.46094C13.4294 8.74687 13.5231 8.76562 14.9294 8.76562C16.795 8.76562 16.6872 9 16.6872 7.275V5.53125H18.9512C21.5059 5.53125 21.4825 5.53125 21.7075 5.8875L21.82 6.07031L21.834 8.25937L21.8481 10.4484L21.97 10.5469C22.0356 10.5984 22.1387 10.6406 22.1997 10.6406C22.3309 10.6406 22.4856 10.5 22.5231 10.35C22.5372 10.2891 22.5465 9.28125 22.5372 8.10937C22.5231 6.19219 22.5137 5.95312 22.434 5.75625C22.3169 5.44687 22.0262 5.1375 21.7122 4.98281L21.445 4.85156L15.8809 4.8375L10.3122 4.82812V4.57969C10.3122 4.15781 10.0497 3.87656 9.60904 3.81562C9.3981 3.7875 9.3981 3.7875 9.27623 3.47812L9.15436 3.16406L9.29498 2.99062C9.50592 2.72812 9.52467 2.39531 9.33717 2.10938C9.16373 1.8375 8.20279 0.951562 8.03873 0.909374C7.8231 0.857812 7.54654 0.923437 7.35904 1.07344L7.18092 1.21875L6.92779 1.10625C6.79186 1.04531 6.64186 0.984375 6.59967 0.970312C6.53404 0.946875 6.51529 0.890625 6.51529 0.735937C6.51529 0.482812 6.37467 0.257812 6.14029 0.135937C5.99967 0.0562492 5.86842 0.046875 5.15592 0.046875C4.40592 0.046875 4.32154 0.0562496 4.16686 0.15ZM5.81217 0.99375C5.81217 1.38281 5.86842 1.44844 6.37467 1.64062C6.61842 1.73438 6.90904 1.85625 7.01686 1.9125C7.12467 1.96875 7.24654 2.01562 7.28873 2.01562C7.33092 2.01562 7.46685 1.91719 7.5981 1.79531L7.83248 1.575L8.30592 2.05312L8.78404 2.52656L8.56373 2.76094C8.44186 2.89219 8.34342 3.02812 8.34342 3.07031C8.34342 3.10781 8.40435 3.2625 8.47935 3.4125C8.55435 3.55781 8.67154 3.83906 8.73717 4.03125C8.80748 4.22344 8.89654 4.41094 8.93873 4.43906C8.98092 4.47187 9.14967 4.5 9.31373 4.5H9.60904V5.17969V5.85938H9.31373C8.95748 5.85938 8.86842 5.93437 8.74185 6.32812C8.69498 6.46875 8.58717 6.72656 8.50279 6.9C8.41373 7.07344 8.34342 7.26094 8.34342 7.3125C8.34342 7.36875 8.44186 7.51406 8.56373 7.64531L8.78404 7.87969L8.34342 8.32031C8.09967 8.56406 7.87936 8.76562 7.85123 8.76562C7.82311 8.76562 7.71529 8.68125 7.61686 8.57812C7.38717 8.33906 7.25123 8.33437 6.81529 8.55C6.63717 8.63906 6.36998 8.74687 6.21998 8.78906C5.89654 8.88281 5.81217 9.00937 5.81217 9.39844V9.66094L5.16998 9.64687L4.52311 9.63281L4.49967 9.32344C4.48561 9.15469 4.44811 8.98125 4.41529 8.93906C4.38248 8.89687 4.21373 8.82187 4.04498 8.76562C3.87623 8.70937 3.61373 8.60625 3.46373 8.52656C3.08404 8.33906 2.95279 8.34844 2.69029 8.5875L2.47936 8.78437L2.01529 8.32031L1.55123 7.85625L1.75748 7.63594C1.87467 7.50937 1.96842 7.36875 1.96842 7.3125C1.96842 7.26094 1.91217 7.10625 1.84186 6.97031C1.77623 6.83437 1.65904 6.55781 1.58404 6.35156C1.51373 6.14531 1.41529 5.94844 1.37311 5.91562C1.33092 5.8875 1.16217 5.85938 0.998106 5.85938H0.698106L0.712168 5.18906L0.726231 4.52344L1.03561 4.50937C1.40123 4.49531 1.44811 4.45312 1.56998 4.07812C1.61686 3.9375 1.72467 3.675 1.80904 3.50156C1.89811 3.32812 1.96842 3.13125 1.96842 3.06562C1.96842 2.99062 1.88873 2.86406 1.75748 2.72344L1.55123 2.50312L2.01529 2.03906L2.47936 1.575L2.71373 1.79531C2.84498 1.91719 2.98561 2.01562 3.02779 2.01562C3.06998 2.01562 3.25748 1.94531 3.44029 1.85625C3.62311 1.76719 3.89029 1.65938 4.03092 1.61719C4.40123 1.5 4.49967 1.37344 4.49967 1.02656V0.75H5.15592H5.81217V0.99375ZM15.984 7.19531L15.97 8.0625H14.9153H13.8606L13.8747 7.19531V5.53125H14.9294H15.984V7.19531Z" fill="white"/>
<path d="M14.912 10.1172C14.8464 10.1781 14.7948 10.2813 14.7948 10.3422C14.7948 10.4125 14.7573 10.4734 14.6823 10.5063C14.476 10.6 14.2182 10.8672 14.1104 11.1016C13.8854 11.5797 14.012 12.1516 14.4198 12.4984C14.6354 12.6813 14.7807 12.7422 15.1323 12.7891C15.4089 12.8266 15.5401 12.9297 15.5729 13.1453C15.6104 13.375 15.4464 13.5672 15.2073 13.5766C15.0667 13.5813 14.9964 13.5438 14.8182 13.3797C14.6307 13.2063 14.5792 13.1828 14.4526 13.2063C13.9229 13.3141 14.0354 13.9328 14.6448 14.2375C14.7526 14.2938 14.7948 14.3453 14.7948 14.4344C14.7948 14.6031 14.9917 14.7812 15.1792 14.7812C15.3807 14.7766 15.4932 14.6875 15.5635 14.4766C15.6057 14.3547 15.6807 14.2703 15.8073 14.2C16.0323 14.0734 16.276 13.7594 16.3464 13.5016C16.5432 12.7797 16.0464 12.0953 15.2448 11.9922C14.8323 11.9359 14.6635 11.6125 14.9073 11.3313C15.076 11.1297 15.3151 11.1484 15.5214 11.3734C15.6057 11.4672 15.7276 11.5563 15.7932 11.5703C16.0604 11.6406 16.3464 11.3172 16.2526 11.0641C16.187 10.8906 15.9667 10.6563 15.7792 10.5625C15.6526 10.4969 15.5964 10.4359 15.5776 10.3328C15.512 10.0141 15.137 9.8875 14.912 10.1172Z" fill="white"/>
<path d="M4.8532 2.55849C3.9907 2.68036 3.19382 3.23818 2.81882 3.98818C2.57976 4.46161 2.51414 4.78505 2.54695 5.34286C2.59851 6.3413 3.14695 7.14755 4.05632 7.57411C5.23757 8.12255 6.63445 7.7288 7.35632 6.65068C8.48132 4.96318 7.3657 2.69443 5.34539 2.56318C5.1532 2.54911 4.93289 2.54911 4.8532 2.55849ZM5.4907 3.28036C6.52195 3.47255 7.23914 4.4663 7.07976 5.46943C6.94382 6.30849 6.31101 6.94599 5.46726 7.0913C4.63289 7.23193 3.8032 6.79599 3.41414 6.01318C3.26882 5.71318 3.25945 5.67099 3.25945 5.1788C3.25945 4.6913 3.26882 4.64443 3.40945 4.3538C3.66726 3.82411 4.22507 3.39755 4.79226 3.28505C5.0782 3.2288 5.20476 3.2288 5.4907 3.28036Z" fill="white"/>
<path d="M17.6822 13.6056C17.4947 13.8072 17.5931 14.1072 17.8743 14.1775C17.9306 14.1915 18.4743 14.2009 19.0743 14.1915L20.1665 14.1775L20.279 14.0462C20.415 13.8869 20.4197 13.7837 20.2931 13.6197L20.1993 13.4978H18.99C17.79 13.4978 17.7806 13.4978 17.6822 13.6056Z" fill="white"/>
<path d="M17.6953 15.0234C17.6297 15.0844 17.5781 15.1922 17.5781 15.2578C17.5781 15.3234 17.6297 15.4312 17.6953 15.4922L17.8078 15.6094H18.975C20.2781 15.6094 20.3156 15.6 20.3719 15.2953C20.3953 15.1734 20.3766 15.1219 20.2828 15.0281L20.1609 14.9062H18.9844H17.8078L17.6953 15.0234Z" fill="white"/>
</g>
<defs>
<clipPath id="clip0_2108_3721">
<rect width="24" height="24" fill="white"/>
</clipPath>
</defs>
</svg>
