<svg width="24" height="24" viewBox="0 0 24 24" fill="none" xmlns="http://www.w3.org/2000/svg">
<g clip-path="url(#clip0_2108_3727)">
<path d="M1.13906 0.0656264C0.726563 0.196876 0.314063 0.567189 0.126563 0.975001L0.0234375 1.19531V9.58594V17.9766L0.145313 18.2391C0.389063 18.75 0.792188 19.0688 1.33125 19.1672C1.51406 19.2 2.59688 19.2188 4.41563 19.2188H7.21406L7.22813 21.0375C7.24219 22.8141 7.24219 22.8563 7.35 23.0672C7.51875 23.4141 7.75781 23.6531 8.1 23.8219L8.41406 23.9766H12H15.5859L15.9 23.8219C16.2422 23.6531 16.4813 23.4141 16.65 23.0672C16.7578 22.8563 16.7578 22.8141 16.7719 21.0328L16.7859 19.2188H19.5844C21.4031 19.2188 22.4859 19.2 22.6688 19.1672C23.2078 19.0688 23.6109 18.75 23.8547 18.2391L23.9766 17.9766V9.58594V1.19531L23.85 0.937501C23.6859 0.604689 23.3953 0.314064 23.0672 0.150001L22.8047 0.0234389H19.1953H15.5859L15.3609 0.126564C15.0328 0.281251 14.7047 0.609376 14.55 0.951564L14.4141 1.24219L14.4 3.00938L14.3859 4.78125H12H9.61406L9.6 3.00938L9.58594 1.24219L9.45 0.951564C9.29531 0.609376 8.96719 0.281251 8.63906 0.126564L8.41406 0.0234389L4.875 0.0140639C2.05313 0.00468893 1.29844 0.0187514 1.13906 0.0656264ZM8.325 0.885939C8.65781 1.03594 8.83594 1.36406 8.80313 1.78125L8.78906 1.99219L4.79531 2.00625L0.796875 2.01563V1.73906C0.796875 1.40625 0.853125 1.24219 1.02188 1.05938C1.275 0.792189 1.14844 0.801564 4.78125 0.801564C7.94531 0.796876 8.14219 0.801564 8.325 0.885939ZM22.6734 0.848439C22.8516 0.914064 23.0625 1.11563 23.1375 1.29844C23.175 1.38281 23.2031 1.57969 23.2031 1.73438V2.01563L19.2094 2.00625L15.2109 1.99219L15.1969 1.78125C15.1641 1.36406 15.3422 1.03594 15.675 0.885939C15.8578 0.801564 16.0594 0.796876 19.2047 0.796876C21.45 0.796876 22.5844 0.810939 22.6734 0.848439ZM8.8125 3.79219C8.8125 4.86094 8.82188 4.82813 8.54063 4.82813C8.18438 4.82813 7.59844 5.26406 7.36875 5.69531L7.24219 5.92969L7.22813 7.55625L7.21406 9.1875H4.00781H0.796875V6V2.8125H4.80469H8.8125V3.79219ZM23.2031 6V9.1875H19.9922H16.7859L16.7719 7.55625L16.7578 5.92969L16.6313 5.69531C16.4016 5.26406 15.8156 4.82813 15.4594 4.82813C15.1781 4.82813 15.1875 4.86094 15.1875 3.79219V2.8125H19.1953H23.2031V6ZM15.3469 5.625C15.5719 5.67656 15.7406 5.79375 15.8813 6C15.9609 6.12188 15.9844 6.22031 15.9844 6.47344V6.79688H12H8.01563V6.47344C8.01563 6.22031 8.03906 6.12188 8.12344 6C8.25469 5.79844 8.43281 5.67188 8.62969 5.625C8.85469 5.57344 15.1219 5.56875 15.3469 5.625ZM15.9844 10.8047V14.0156H12H8.01563V10.8047V7.59375H12H15.9844V10.8047ZM7.20938 10.6031L7.22344 11.2031H5.93906H4.65469L4.52813 11.3203C4.39688 11.4422 4.36406 11.6813 4.46719 11.8172C4.59844 11.9859 4.70625 12 5.97188 12H7.21875V12.7969V13.5938H5.95781H4.69688L4.55156 13.7156C4.37813 13.8609 4.35469 14.0859 4.49531 14.2547C4.58438 14.3672 4.58906 14.3672 5.89219 14.3906L7.19531 14.4141L7.20938 15.1969L7.21875 15.9797L5.925 15.9938L4.63125 16.0078L4.51875 16.1391C4.38281 16.2984 4.37344 16.4953 4.49531 16.6453C4.58438 16.7578 4.58906 16.7578 5.89219 16.7813L7.19531 16.8047V17.6016V18.3984L4.54688 18.4125C3.08906 18.4219 1.76719 18.4125 1.60781 18.3984C1.24688 18.3609 1.04531 18.2344 0.904688 17.9531L0.796875 17.7469V13.8656V9.98438L3.99844 9.99375L7.19531 10.0078L7.20938 10.6031ZM23.2031 13.8656V17.7469L23.1 17.9531C22.9547 18.2344 22.7531 18.3609 22.3922 18.3984C22.2328 18.4125 20.9109 18.4219 19.4531 18.4125L16.8047 18.3984V17.6016V16.8047L17.0859 16.7906C17.4281 16.7719 17.5781 16.6594 17.5781 16.4203C17.5781 16.3313 17.5594 16.2188 17.5313 16.1719C17.475 16.0641 17.2453 15.9844 16.9828 15.9844H16.7813L16.7906 15.1969L16.8047 14.4141L17.0906 14.3906C17.4516 14.3625 17.5781 14.2641 17.5781 14.0156C17.5781 13.725 17.4563 13.6266 17.0906 13.6031L16.7813 13.5844V12.8813V12.1734L17.1797 11.7703C17.5219 11.4188 17.5781 11.3391 17.5781 11.2031C17.5781 10.8656 17.1844 10.7063 16.9031 10.9266L16.7813 11.0203V10.5328C16.7813 10.2656 16.7953 10.0313 16.8141 10.0172C16.8281 9.99844 18.2766 9.98438 20.025 9.98438H23.2031V13.8656ZM15.9844 18.7078C15.9844 23.0766 16.0031 22.8141 15.6422 23.0531L15.45 23.1797L12.075 23.1938C8.29688 23.2078 8.41875 23.2172 8.16563 22.8844L8.03906 22.7203L8.025 18.7641L8.01563 14.8125H12H15.9844V18.7078Z" fill="white"/>
<path d="M4.52136 3.72656C4.45573 3.7875 4.40417 3.89063 4.40417 3.95156C4.40417 4.02188 4.36667 4.08281 4.29167 4.11563C4.08542 4.20938 3.82761 4.47656 3.7198 4.71094C3.4948 5.18906 3.62136 5.76094 4.02917 6.10781C4.2448 6.29063 4.39011 6.35156 4.74167 6.39844C5.01823 6.43594 5.14948 6.53906 5.1823 6.75469C5.2198 6.98438 5.05573 7.17656 4.81667 7.18594C4.67605 7.19063 4.60573 7.15313 4.42761 6.98906C4.24011 6.81563 4.18855 6.79219 4.06198 6.81563C3.5323 6.92344 3.6448 7.54219 4.25417 7.84688C4.36198 7.90313 4.40417 7.95469 4.40417 8.04375C4.40417 8.2125 4.60105 8.39062 4.78855 8.39062C4.99011 8.38594 5.10261 8.29688 5.17292 8.08594C5.21511 7.96406 5.29011 7.87969 5.41667 7.80938C5.64167 7.68281 5.88542 7.36875 5.95573 7.11094C6.15261 6.38906 5.65573 5.70469 4.85417 5.60156C4.44167 5.54531 4.27292 5.22188 4.51667 4.94063C4.68542 4.73906 4.92448 4.75781 5.13073 4.98281C5.21511 5.07656 5.33698 5.16563 5.40261 5.17969C5.6698 5.25 5.95573 4.92656 5.86198 4.67344C5.79636 4.5 5.57605 4.26563 5.38855 4.17188C5.26198 4.10625 5.20573 4.04531 5.18698 3.94219C5.12136 3.62344 4.74636 3.49688 4.52136 3.72656Z" fill="white"/>
<path d="M18.9419 3.70772C18.8856 3.75928 18.8247 3.86709 18.8106 3.94678C18.7966 4.03115 18.745 4.10147 18.6841 4.1249C18.3606 4.24678 18.056 4.68272 18.0138 5.07178C17.9481 5.74209 18.431 6.31397 19.1435 6.40303C19.556 6.45459 19.7247 6.77803 19.481 7.05928C19.3169 7.25615 19.0685 7.2374 18.8622 7.0124C18.7778 6.92334 18.6606 6.83428 18.595 6.82022C18.3278 6.7499 18.0419 7.07334 18.1356 7.32647C18.2013 7.4999 18.4216 7.73428 18.6091 7.82803C18.7356 7.89365 18.7919 7.95459 18.8106 8.05772C18.8763 8.37647 19.2513 8.50303 19.4763 8.27334C19.5419 8.2124 19.5935 8.10928 19.5935 8.04834C19.5935 7.97803 19.631 7.91709 19.706 7.88428C19.9122 7.79053 20.17 7.52334 20.2778 7.28897C20.5028 6.81084 20.3763 6.23897 19.9685 5.89209C19.7528 5.70928 19.6075 5.64834 19.2466 5.60147C18.8341 5.54522 18.6653 5.22178 18.9091 4.94053C19.0778 4.73897 19.3075 4.75772 19.5466 4.99209C19.6919 5.13272 19.7716 5.1749 19.8935 5.1749C20.1981 5.1749 20.3716 4.8749 20.231 4.60303C20.1466 4.44365 19.8653 4.18115 19.706 4.1249C19.6263 4.09209 19.5935 4.04522 19.5935 3.96084C19.5935 3.66553 19.1669 3.49678 18.9419 3.70772Z" fill="white"/>
<path d="M11.8017 8.463C11.722 8.50519 11.6517 8.59425 11.6188 8.71144C11.5813 8.84269 11.5251 8.913 11.4313 8.95519C11.2579 9.0255 10.9813 9.33019 10.8829 9.55519C10.7751 9.80363 10.7938 10.2396 10.9204 10.5114C11.1032 10.8958 11.5673 11.2005 11.9751 11.2005C12.0595 11.2005 12.1813 11.2427 12.2517 11.2989C12.5188 11.5099 12.3407 11.9974 11.9985 11.9974C11.886 11.9974 11.8017 11.9505 11.6657 11.8099C11.436 11.5802 11.2204 11.5568 11.0376 11.7396C10.8079 11.9646 10.9438 12.3208 11.3517 12.5833C11.5204 12.6911 11.586 12.7661 11.6235 12.9021C11.6938 13.1458 11.9188 13.2489 12.1579 13.1505C12.2845 13.0989 12.3313 13.0427 12.3688 12.8974C12.4017 12.7802 12.4579 12.6958 12.5329 12.663C12.7345 12.5739 12.9735 12.3302 13.0767 12.1005C13.2032 11.8333 13.2173 11.3974 13.1142 11.1489C12.9501 10.7646 12.4626 10.4036 12.1063 10.4036C11.872 10.4036 11.7173 10.3239 11.6517 10.1646C11.572 9.97707 11.6048 9.813 11.7548 9.7005C11.9376 9.55519 12.1063 9.58332 12.3501 9.79425C12.6079 10.0193 12.7907 10.038 12.9595 9.86457C13.1423 9.68644 13.1188 9.48019 12.8892 9.22238C12.7907 9.10519 12.6454 8.98332 12.5704 8.95519C12.472 8.913 12.4157 8.84738 12.3782 8.71144C12.3407 8.58957 12.2798 8.50519 12.186 8.45832C12.0173 8.37394 11.9657 8.37394 11.8017 8.463Z" fill="white"/>
<path d="M2.72147 11.1281L2.42616 11.4281L2.25741 11.3156C2.16835 11.2547 2.04647 11.2031 1.98554 11.2031C1.83554 11.2031 1.64335 11.3859 1.61054 11.5641C1.58241 11.7047 1.60585 11.7422 1.89647 12.0469C2.1871 12.3469 2.23397 12.375 2.40272 12.375C2.57616 12.375 2.62304 12.3422 3.03085 11.9391C3.2746 11.7047 3.50897 11.4469 3.54647 11.3719C3.68241 11.1141 3.4996 10.8281 3.19491 10.8281C3.04022 10.8281 2.98397 10.8656 2.72147 11.1281Z" fill="white"/>
<path d="M2.73011 13.5139L2.41604 13.8139L2.25198 13.7014C1.98948 13.5186 1.68479 13.6311 1.61917 13.9217C1.58167 14.0905 1.64729 14.2171 1.89573 14.4749C2.13948 14.7327 2.31292 14.8264 2.48167 14.7889C2.55667 14.7749 2.80042 14.5733 3.09573 14.2733C3.52698 13.8374 3.58323 13.7671 3.58323 13.6217C3.58323 13.3967 3.41448 13.2186 3.19886 13.2186C3.06761 13.2186 2.98792 13.2702 2.73011 13.5139Z" fill="white"/>
<path d="M1.83055 16.0406C1.57743 16.1766 1.53524 16.4859 1.7368 16.6875C1.82118 16.7719 1.89618 16.7812 2.39305 16.7812C2.93212 16.7812 2.96493 16.7766 3.07274 16.6641C3.23212 16.5094 3.23212 16.275 3.06805 16.1203C2.96024 16.0172 2.90399 16.0078 2.4493 15.9937C2.10712 15.9844 1.91024 15.9984 1.83055 16.0406Z" fill="white"/>
<path d="M18.9328 11.3391C18.8531 11.4234 18.7969 11.5266 18.7969 11.6016C18.7969 11.6766 18.8531 11.7797 18.9328 11.8641L19.0688 12H20.6016H22.1344L22.2703 11.8641C22.35 11.7797 22.4063 11.6766 22.4063 11.6016C22.4063 11.5266 22.35 11.4234 22.2703 11.3391L22.1344 11.2031H20.6016H19.0688L18.9328 11.3391Z" fill="white"/>
<path d="M18.9367 13.7266C18.7914 13.8719 18.7679 14.0031 18.857 14.1672C18.9695 14.3828 18.9789 14.3828 20.6054 14.3828C22.232 14.3828 22.2414 14.3828 22.3539 14.1672C22.4429 14.0031 22.4195 13.8719 22.2742 13.7266L22.1383 13.5906H20.6054H19.0726L18.9367 13.7266Z" fill="white"/>
<path d="M19.0485 16.0312C18.8844 16.0969 18.786 16.2891 18.8188 16.4766C18.8797 16.7812 18.8797 16.7812 20.6141 16.7812C22.1047 16.7812 22.1797 16.7766 22.2688 16.6875C22.4657 16.4906 22.4188 16.1672 22.175 16.0453C22.0344 15.975 19.2172 15.9609 19.0485 16.0312Z" fill="white"/>
<path d="M9.94092 15.9199L9.62217 16.2293L9.47686 16.1215C9.28467 15.9809 9.05967 15.9902 8.92373 16.1496C8.73623 16.3605 8.77842 16.5152 9.10654 16.8574C9.26592 17.0262 9.44404 17.1715 9.50498 17.1855C9.69248 17.2324 9.86592 17.1199 10.3347 16.6465C10.7378 16.234 10.7847 16.1684 10.7847 16.0137C10.7847 15.7887 10.6159 15.6105 10.405 15.6105C10.2878 15.6105 10.194 15.6715 9.94092 15.9199Z" fill="white"/>
<path d="M11.8339 16.0359C11.5949 16.1719 11.5433 16.5 11.7308 16.6781C11.8386 16.7812 11.8621 16.7812 13.3996 16.7812H14.9558L15.0683 16.6641C15.2277 16.5094 15.2277 16.275 15.0636 16.1203L14.9417 16.0078L13.4371 15.9984C12.3917 15.9891 11.8996 16.0031 11.8339 16.0359Z" fill="white"/>
<path d="M9.9375 18.31L9.61406 18.6193L9.4875 18.5209C9.21563 18.3053 8.8125 18.474 8.8125 18.8021C8.8125 18.9287 8.86875 19.0131 9.13125 19.2756C9.59531 19.7396 9.62813 19.735 10.275 19.0881C10.7016 18.6615 10.7813 18.5584 10.7813 18.4365C10.7813 18.2256 10.7391 18.1459 10.5891 18.0709C10.3641 17.9537 10.275 17.9865 9.9375 18.31Z" fill="white"/>
<path d="M11.7289 18.5275C11.5977 18.6681 11.5883 18.9447 11.7148 19.0712C11.7664 19.1228 11.8789 19.179 11.9633 19.1931C12.0477 19.2072 12.7555 19.2165 13.5336 19.2072L14.9445 19.1931L15.0664 19.0806C15.2164 18.94 15.2258 18.715 15.0898 18.5415L14.9961 18.4197H13.4117H11.8273L11.7289 18.5275Z" fill="white"/>
<path d="M10.2656 20.4234C10.2281 20.4375 10.0641 20.5734 9.90469 20.7281L9.61875 21.0141L9.47813 20.9109C9.17813 20.7 8.8125 20.8641 8.8125 21.2109C8.8125 21.3609 8.85469 21.4266 9.1125 21.6844C9.375 21.9469 9.43594 21.9844 9.59063 21.9844C9.75469 21.9844 9.81094 21.9422 10.275 21.4781C10.725 21.0281 10.7813 20.9531 10.7813 20.8078C10.7813 20.5547 10.4906 20.3391 10.2656 20.4234Z" fill="white"/>
<path d="M11.7493 20.9156C11.618 21.0328 11.5899 21.1453 11.6415 21.3375C11.7071 21.5953 11.8102 21.6094 13.4087 21.6094C14.8946 21.6094 14.9977 21.6 15.129 21.4266C15.2274 21.3 15.1993 21.0562 15.0727 20.9297L14.9602 20.8125H13.4133C11.8758 20.8125 11.8665 20.8125 11.7493 20.9156Z" fill="white"/>
</g>
<defs>
<clipPath id="clip0_2108_3727">
<rect width="24" height="24" fill="white"/>
</clipPath>
</defs>
</svg>
