<svg width="24" height="24" viewBox="0 0 24 24" fill="none" xmlns="http://www.w3.org/2000/svg">
<g clip-path="url(#clip0_2108_3745)">
<path d="M8.27466 0.0468746C6.32466 0.35625 4.74028 1.74844 4.19653 3.62812C4.0231 4.22344 3.95747 4.91719 4.02778 5.49375C4.27153 7.6125 5.68247 9.2625 7.73091 9.83437C8.13403 9.94687 8.25122 9.96094 8.99653 9.96094C9.92466 9.96094 10.2762 9.89062 11.0122 9.56719C13.2809 8.57344 14.4856 6 13.7965 3.62812C13.3043 1.92656 11.9403 0.6 10.2387 0.159375C9.71372 0.0281246 8.76216 -0.0281254 8.27466 0.0468746ZM9.97622 1.12969C11.434 1.49531 12.6153 2.73281 12.9106 4.21406C13.0184 4.73437 12.9856 5.59219 12.845 6.08437C12.4606 7.40625 11.434 8.4375 10.0981 8.84062C9.7231 8.95312 9.60122 8.96719 8.99653 8.96719C8.39185 8.96719 8.26997 8.95312 7.89497 8.84062C6.80747 8.5125 5.93091 7.78125 5.43403 6.79219C5.16216 6.25312 5.05435 5.83594 5.02622 5.175C4.97466 4.0125 5.32622 3.07031 6.13247 2.23594C7.13091 1.19531 8.57935 0.778125 9.97622 1.12969Z" fill="white"/>
<path d="M15.7962 11.0938C15.379 11.2719 15.2477 11.5391 15.1587 12.35C15.1258 12.6875 15.093 13.0109 15.093 13.0672C15.093 13.1469 15.0274 13.2078 14.8258 13.3109C14.6758 13.3859 14.479 13.4984 14.3852 13.5641L14.2165 13.6766L13.5508 13.3813C12.8055 13.0438 12.529 13.0016 12.1962 13.1703C11.9383 13.3016 11.8633 13.4047 11.3477 14.2953C10.8462 15.1672 10.7805 15.3594 10.8743 15.6969C10.9446 15.9688 11.1274 16.1609 11.7368 16.6016L12.2571 16.9813L12.2618 17.5016V18.0266L11.6758 18.4484C11.0477 18.8984 10.9024 19.0719 10.8462 19.4422C10.804 19.7188 10.8743 19.8922 11.404 20.8063C11.8868 21.6453 12.0087 21.7859 12.3462 21.8938C12.6321 21.9828 12.9087 21.9219 13.5883 21.6125L14.2212 21.3266L14.3383 21.4156C14.404 21.4625 14.6008 21.5797 14.7696 21.6734L15.079 21.8469L15.154 22.5828C15.2477 23.4781 15.3321 23.6563 15.7493 23.8766L16.0071 24.0078L17.0665 23.9938L18.1258 23.9797L18.318 23.8484C18.6743 23.6141 18.7493 23.4453 18.829 22.6813C18.918 21.8 18.9133 21.8234 19.0821 21.7531C19.1618 21.7203 19.354 21.6078 19.5087 21.5094L19.7899 21.3266L20.4274 21.6172C20.8212 21.8 21.154 21.9172 21.2946 21.9313C21.5758 21.9594 21.8712 21.8516 22.0633 21.6453C22.204 21.4953 22.893 20.3328 23.0665 19.9578C23.2305 19.5969 23.1415 19.1141 22.8696 18.8609C22.8087 18.8047 22.5274 18.5938 22.2508 18.3922L21.7399 18.0266L21.7352 17.5063L21.7258 16.9859L22.2837 16.5922C22.8743 16.175 23.0149 16.025 23.1087 15.7344C23.2212 15.3828 23.1508 15.1672 22.6587 14.3141C22.1712 13.4609 22.054 13.3063 21.7868 13.1703C21.4633 13.0063 21.1962 13.0438 20.4555 13.3766L19.7946 13.6719L19.354 13.4047L18.9133 13.1422L18.8524 12.5141C18.7774 11.7313 18.7352 11.5766 18.5524 11.3656C18.2618 11.0375 18.1774 11.0188 17.0055 11.0188C16.1805 11.0234 15.9274 11.0375 15.7962 11.0938ZM17.8258 12.2938C17.9899 13.9531 17.943 13.8359 18.5337 14.1078C18.7399 14.2063 19.0446 14.3844 19.2087 14.5063C19.6399 14.8297 19.668 14.825 20.4227 14.4875C20.779 14.3281 21.1352 14.1688 21.2196 14.1313L21.3696 14.0656L21.7633 14.7594L22.1571 15.4484L21.8477 15.6688C20.8962 16.3531 20.7602 16.4656 20.7133 16.5828C20.6758 16.6766 20.6758 16.8313 20.7133 17.1172C20.7508 17.4078 20.7508 17.6234 20.7133 17.9047C20.6383 18.4578 20.6477 18.4766 21.468 19.0672L22.1571 19.5641L21.7633 20.2531L21.3649 20.9469L20.5962 20.6C20.1743 20.4078 19.7665 20.2531 19.6962 20.2531C19.6165 20.2531 19.4477 20.3375 19.2602 20.4688C19.0962 20.5859 18.7633 20.7828 18.5243 20.9C18.229 21.0453 18.0649 21.1531 18.0274 21.2328C17.9899 21.2984 17.929 21.7109 17.8821 22.1516C17.8399 22.5875 17.793 22.9625 17.779 22.9813C17.7696 23.0047 17.4133 23.0188 16.9915 23.0188C16.2274 23.0188 16.218 23.0188 16.1993 22.9109C16.1852 22.8547 16.143 22.4703 16.1055 22.0625C16.054 21.5703 16.0071 21.2797 15.9602 21.2047C15.918 21.1438 15.7258 21.0219 15.5337 20.9328C15.3415 20.8438 15.093 20.7125 14.9852 20.6375C14.8774 20.5625 14.704 20.4453 14.6055 20.3797C14.5071 20.3094 14.3665 20.2531 14.2962 20.2531C14.2258 20.2531 13.8368 20.3984 13.4337 20.5813C13.0352 20.7594 12.6837 20.9094 12.6602 20.9094C12.604 20.9094 11.8493 19.6016 11.8821 19.5547C11.8915 19.5313 12.1915 19.3063 12.543 19.0578C12.8899 18.8047 13.204 18.5563 13.2368 18.5C13.279 18.4297 13.293 18.1578 13.2883 17.4875C13.2837 16.9859 13.2649 16.5406 13.2462 16.5031C13.2321 16.4656 12.9087 16.2125 12.5383 15.9406C12.1446 15.6594 11.868 15.425 11.8774 15.3922C11.9008 15.3359 12.604 14.1031 12.6321 14.075C12.6368 14.0703 12.979 14.2156 13.3868 14.4031C13.8602 14.6188 14.193 14.7406 14.2962 14.7406C14.418 14.7406 14.5587 14.6703 14.854 14.4688C15.0696 14.3234 15.3883 14.1359 15.5665 14.0563C15.7399 13.9766 15.918 13.8641 15.9555 13.8078C16.0024 13.7328 16.054 13.4234 16.1055 12.9078C16.1477 12.4766 16.1852 12.0922 16.1993 12.0594C16.2087 12.0172 16.4149 12.0031 17.0055 12.0031H17.7977L17.8258 12.2938Z" fill="white"/>
<path d="M16.5258 15.0484C16.2258 15.1093 15.8789 15.2546 15.593 15.4421C14.8383 15.9484 14.393 16.9515 14.5336 17.8327C14.6321 18.4374 14.8336 18.8406 15.2602 19.2718C15.7383 19.7546 16.3289 19.989 17.0414 19.9843C18.0914 19.9749 18.9867 19.3374 19.3477 18.339C19.8492 16.9609 19.0055 15.4093 17.5711 15.0718C17.2571 14.9968 16.8305 14.9874 16.5258 15.0484ZM17.6602 16.1734C18.7711 16.7171 18.7664 18.2968 17.6461 18.8499C17.4539 18.9437 17.3461 18.9624 16.9946 18.9624C16.643 18.9624 16.5352 18.9437 16.3617 18.8499C15.8508 18.5874 15.5602 18.1468 15.5274 17.5796C15.5039 17.1296 15.6258 16.7827 15.9117 16.4827C16.3992 15.9812 17.0321 15.8687 17.6602 16.1734Z" fill="white"/>
<path d="M3.71719 12.0703C2.775 12.2391 2.00625 12.6516 1.3125 13.3547C0.707813 13.9641 0.323438 14.6437 0.107813 15.4969C0.0328125 15.7875 0.0234375 16.0828 0.0234375 18.2672V20.7187L0.154688 20.8453L0.28125 20.9766H4.49531H8.70938L8.83125 20.8641C8.99531 20.7094 9.0375 20.4656 8.92969 20.2687C8.88281 20.1844 8.8125 20.1 8.77031 20.0766C8.72813 20.0578 6.96563 20.0297 4.85156 20.0156L1.00781 19.9922V18C1.00781 16.2797 1.02188 15.9656 1.09219 15.6937C1.35938 14.6297 2.08594 13.7531 3.075 13.3078C3.73125 13.0078 3.6375 13.0172 7.34063 12.9891C10.5609 12.9609 10.7297 12.9562 10.8234 12.8719C10.9781 12.7312 11.0344 12.5062 10.95 12.3141C10.8141 11.9859 10.9641 12 7.32656 12.0047C4.86094 12.0094 3.97031 12.0234 3.71719 12.0703Z" fill="white"/>
</g>
<defs>
<clipPath id="clip0_2108_3745">
<rect width="24" height="24" fill="white"/>
</clipPath>
</defs>
</svg>
