<svg width="24" height="24" viewBox="0 0 24 24" fill="none" xmlns="http://www.w3.org/2000/svg">
<g clip-path="url(#clip0_752_287)">
<path d="M16.3828 0.0468769C15.4219 0.201565 14.5828 0.637501 13.875 1.35469C13.4297 1.80469 13.1109 2.28281 12.8953 2.81719C12.6516 3.42656 12.5906 3.75 12.5906 4.5C12.5859 5.4375 12.7313 5.98125 13.2141 6.82031C13.4484 7.22344 14.1047 7.93594 14.4891 8.19375C15.0281 8.55938 15.7922 8.85938 16.3922 8.94844C16.575 8.97656 16.1438 8.99063 15.0656 8.99531C14.1656 8.99531 13.35 9.02344 13.1906 9.05156C12.1828 9.22969 11.2781 10.1484 11.1094 11.1563C11.0766 11.3625 11.0625 12.5016 11.0719 14.6813C11.0859 17.85 11.0859 17.9016 11.1844 18.0281C11.2359 18.0984 11.3391 18.2016 11.4094 18.2531C11.5359 18.3469 11.5969 18.3516 13.9266 18.3656L16.3125 18.3797V20.325V22.2703L16.1953 22.3828L16.0828 22.5H11.8828H7.6875V14.4375V6.37969L9.51094 6.36563C11.2734 6.35156 11.3438 6.34688 11.4656 6.25313C11.7141 6.07031 11.7891 5.92031 11.7891 5.625C11.7891 5.32969 11.7141 5.17969 11.4656 4.99688C11.3391 4.89844 11.3016 4.89844 7.41563 4.89844H3.49219L3.17813 5.04844C2.74219 5.25469 2.47031 5.51719 2.25938 5.94375L2.08594 6.3L2.07188 7.64531L2.05781 8.99063L1.73438 9.00938C1.21875 9.0375 0.960938 9.28594 0.960938 9.75C0.960938 10.2188 1.21875 10.4625 1.73438 10.4906L2.0625 10.5094V12V13.4906L1.73438 13.5094C1.21875 13.5375 0.960938 13.7813 0.960938 14.25C0.960938 14.7188 1.21875 14.9625 1.73438 14.9906L2.0625 15.0094V16.6875V18.3656L1.73438 18.3844C1.21875 18.4125 0.960938 18.6563 0.960938 19.125C0.960938 19.5891 1.21875 19.8375 1.73438 19.8656L2.05781 19.8844L2.07188 21.2297L2.08594 22.575L2.25938 22.9313C2.47031 23.3578 2.74219 23.6203 3.17813 23.8266L3.49219 23.9766H9.9375H16.3828L16.6969 23.8266C17.1328 23.6203 17.4047 23.3578 17.6156 22.9313L17.7891 22.575L17.8031 20.475L17.8172 18.3797L20.2031 18.3656C22.5281 18.3516 22.5891 18.3469 22.7156 18.2531C22.7859 18.2016 22.8891 18.0984 22.9406 18.0281C23.0391 17.9016 23.0391 17.8594 23.0391 14.5172C23.0391 11.3344 23.0344 11.1188 22.95 10.875C22.8047 10.4391 22.5938 10.0922 22.3031 9.79688C21.9844 9.47813 21.7406 9.31875 21.2859 9.14531C20.9813 9.02813 20.9578 9.02813 19.2422 9C18.1031 8.98594 17.6063 8.9625 17.7891 8.93906C18.2063 8.8875 18.9094 8.62969 19.3594 8.36719C19.8938 8.05313 20.6109 7.33594 20.9109 6.82031C21.3844 6.00469 21.5344 5.44219 21.5344 4.5C21.5344 3.78281 21.4547 3.34688 21.225 2.78906C20.7797 1.72969 19.8328 0.782814 18.7734 0.337502C18.1125 0.0656261 17.0813 -0.060936 16.3828 0.0468769ZM17.6906 1.57031C19.4109 1.93594 20.475 3.79219 19.9078 5.43281C19.7391 5.91094 19.5281 6.24844 19.1719 6.60938C18.8156 6.96094 18.4781 7.17656 17.9906 7.35C17.6953 7.45313 17.5734 7.47188 17.0859 7.47656C16.6313 7.47656 16.4625 7.45781 16.1953 7.37344C14.7047 6.9 13.8141 5.38125 14.1328 3.87188C14.4703 2.27344 16.0828 1.22813 17.6906 1.57031ZM6.1875 14.4375V22.5H4.99219H3.79219L3.67969 22.3828L3.5625 22.2703V21.0797V19.8844L3.89062 19.8656C4.40625 19.8375 4.66406 19.5938 4.66406 19.125C4.66406 18.6563 4.40625 18.4125 3.89062 18.3844L3.5625 18.3656V16.6875V15.0094L3.89062 14.9906C4.40625 14.9625 4.66406 14.7188 4.66406 14.25C4.66406 13.7813 4.40625 13.5375 3.89062 13.5094L3.5625 13.4906V12V10.5094L3.89062 10.4906C4.40625 10.4625 4.66406 10.2188 4.66406 9.75C4.66406 9.28125 4.40625 9.0375 3.89062 9.00938L3.5625 8.99063V7.79531V6.60469L3.67969 6.49219L3.79219 6.375H4.99219H6.1875V14.4375ZM20.7844 10.5563C21.0422 10.6313 21.4313 11.0203 21.5063 11.2781C21.5484 11.4188 21.5625 12.1875 21.5625 14.175V16.875H17.0625H12.5625V14.175C12.5625 12.1875 12.5766 11.4188 12.6188 11.2781C12.6891 11.0391 13.0828 10.6359 13.3125 10.5609C13.5563 10.4859 20.5219 10.4813 20.7844 10.5563Z" fill="white"/>
<path d="M16.7578 11.6906C16.2844 11.8968 16.1719 12.525 16.5422 12.8953C16.8469 13.2 17.2782 13.2 17.5828 12.8953C18.1641 12.314 17.5125 11.3625 16.7578 11.6906Z" fill="white"/>
</g>
<defs>
<clipPath id="clip0_752_287">
<rect width="24" height="24" fill="white"/>
</clipPath>
</defs>
</svg>
