<svg xmlns="http://www.w3.org/2000/svg" width="73" height="73" viewBox="0 0 73 73" fill="none">
  <g opacity="0.4">
    <circle cx="36.5" cy="36.5" r="35.9" stroke="#F37636" stroke-width="1.2" stroke-dasharray="2 2"/>
    <path d="M35.4412 19.761C36.0266 19.1777 36.9734 19.1777 37.5588 19.761L41.6743 23.862C42.0733 24.2597 42.595 24.5109 43.1547 24.5749L48.927 25.2356C49.748 25.3295 50.3383 26.0698 50.2473 26.8912L49.6069 32.6658C49.5448 33.2257 49.6736 33.7902 49.9725 34.2677L53.055 39.1925C53.4934 39.893 53.2827 40.8162 52.5838 41.257L47.6697 44.3568C47.1933 44.6573 46.8323 45.11 46.6453 45.6414L44.7167 51.122C44.4424 51.9015 43.5893 52.3123 42.8089 52.0407L37.3216 50.1315C36.7895 49.9463 36.2105 49.9463 35.6784 50.1315L30.1911 52.0407C29.4107 52.3123 28.5576 51.9015 28.2833 51.122L26.3547 45.6414C26.1677 45.11 25.8067 44.6573 25.3303 44.3568L20.4162 41.257C19.7173 40.8162 19.5066 39.893 19.945 39.1925L23.0275 34.2677C23.3264 33.7901 23.4552 33.2257 23.3931 32.6658L22.7527 26.8912C22.6617 26.0698 23.252 25.3295 24.073 25.2356L29.8453 24.5749C30.405 24.5109 30.9267 24.2597 31.3257 23.862L35.4412 19.761Z" fill="#F37636" stroke="#F37636"/>
  </g>
</svg>