<svg width="652" height="572" viewBox="0 0 652 572" fill="none" xmlns="http://www.w3.org/2000/svg">
<g clip-path="url(#clip0_3168_5505)">
<path fill-rule="evenodd" clip-rule="evenodd" d="M552.135 561.002C563.233 561.002 572.285 551.95 572.285 540.852C572.285 529.755 563.233 520.703 552.135 520.703C541.036 520.703 531.984 529.755 531.984 540.852C531.984 551.95 541.036 561.002 552.135 561.002Z" fill="white"/>
<path fill-rule="evenodd" clip-rule="evenodd" d="M600.499 508.607C602.718 508.607 604.53 506.797 604.53 504.577C604.53 502.357 602.719 500.547 600.499 500.547C598.279 500.547 596.469 502.357 596.469 504.577C596.469 506.797 598.279 508.607 600.499 508.607Z" fill="white"/>
<path fill-rule="evenodd" clip-rule="evenodd" d="M477.298 33.187C484.234 33.187 489.892 27.5299 489.892 20.593C489.892 13.6562 484.234 8 477.298 8C470.362 8 464.703 13.6572 464.703 20.593C464.703 27.5289 470.362 33.187 477.298 33.187Z" fill="white"/>
<path fill-rule="evenodd" clip-rule="evenodd" d="M356.394 33.1862C357.781 33.1862 358.912 32.0548 358.912 30.6668C358.912 29.2789 357.782 28.1484 356.394 28.1484C355.006 28.1484 353.875 29.2799 353.875 30.6668C353.875 32.0538 355.007 33.1862 356.394 33.1862Z" fill="white"/>
<path fill-rule="evenodd" clip-rule="evenodd" d="M8.06097 362.073C12.5002 362.073 16.121 358.453 16.121 354.013C16.121 349.573 12.5002 345.953 8.06097 345.953C3.62178 345.953 0 349.574 0 354.013C0 358.452 3.6208 362.073 8.06097 362.073Z" fill="white"/>
</g>
<defs>
<clipPath id="clip0_3168_5505">
<rect width="652" height="572" fill="white"/>
</clipPath>
</defs>
</svg>
