<svg width="32" height="32" viewBox="0 0 32 32" fill="none" xmlns="http://www.w3.org/2000/svg">
<g id="Arrow">
<path id="Vector" d="M9.63566 22.3544C9.8232 22.542 10.0776 22.6473 10.3428 22.6473C10.608 22.6473 10.8623 22.542 11.0499 22.3544L20.6566 12.7477L20.6566 18.8175C20.6612 19.0796 20.7685 19.3295 20.9555 19.5133C21.1426 19.6971 21.3943 19.8001 21.6565 19.8001C21.9187 19.8001 22.1704 19.6971 22.3574 19.5133C22.5444 19.3295 22.6518 19.0796 22.6563 18.8175L22.6563 10.3322C22.6567 10.2017 22.6313 10.0724 22.5815 9.95181C22.5318 9.83119 22.4587 9.72159 22.3664 9.62932L22.3636 9.62649C22.2717 9.53457 22.1614 9.46103 22.0383 9.41153C21.9173 9.36105 21.7876 9.33509 21.6565 9.33516L13.1712 9.33516C12.909 9.33972 12.6591 9.44706 12.4754 9.63408C12.2916 9.82109 12.1886 10.0728 12.1886 10.335C12.1886 10.5972 12.2916 10.8489 12.4754 11.0359C12.6591 11.223 12.909 11.3303 13.1712 11.3349L19.2424 11.3334L9.63566 20.9402C9.44813 21.1277 9.34277 21.3821 9.34277 21.6473C9.34277 21.9125 9.44813 22.1669 9.63566 22.3544Z" fill="#F37636"/>
</g>
</svg>
