<svg width="27" height="26" viewBox="0 0 27 26" fill="none" xmlns="http://www.w3.org/2000/svg">
<path d="M20.6607 4.498C20.3522 4.498 20.0506 4.58949 19.7941 4.76091C19.5375 4.93232 19.3376 5.17596 19.2195 5.46101C19.1014 5.74607 19.0705 6.05973 19.1307 6.36234C19.1909 6.66495 19.3395 6.94292 19.5577 7.16109C19.7758 7.37926 20.0538 7.52783 20.3564 7.58802C20.659 7.64822 20.9727 7.61732 21.2577 7.49925C21.5428 7.38118 21.7864 7.18123 21.9578 6.92469C22.1293 6.66815 22.2208 6.36654 22.2208 6.058C22.2208 5.64426 22.0564 5.24747 21.7638 4.95491C21.4713 4.66236 21.0745 4.498 20.6607 4.498ZM26.6408 7.644C26.6155 6.56539 26.4135 5.49822 26.0427 4.485C25.7122 3.61807 25.1977 2.83306 24.5347 2.184C23.891 1.51765 23.1042 1.00643 22.2337 0.689C21.2232 0.307009 20.1549 0.100373 19.0748 0.0779999C17.6968 -7.04418e-08 17.2547 0 13.7187 0C10.1827 0 9.74075 -7.04418e-08 8.36275 0.0779999C7.28265 0.100373 6.2143 0.307009 5.20375 0.689C4.33493 1.00964 3.54876 1.52043 2.90275 2.184C2.2364 2.82773 1.72518 3.61457 1.40775 4.485C1.02576 5.49555 0.819123 6.5639 0.79675 7.644C0.71875 9.022 0.71875 9.464 0.71875 13C0.71875 16.536 0.71875 16.978 0.79675 18.356C0.819123 19.4361 1.02576 20.5045 1.40775 21.515C1.72518 22.3854 2.2364 23.1723 2.90275 23.816C3.54876 24.4796 4.33493 24.9904 5.20375 25.311C6.2143 25.693 7.28265 25.8996 8.36275 25.922C9.74075 26 10.1827 26 13.7187 26C17.2547 26 17.6968 26 19.0748 25.922C20.1549 25.8996 21.2232 25.693 22.2337 25.311C23.1042 24.9936 23.891 24.4823 24.5347 23.816C25.2007 23.1694 25.7156 22.3837 26.0427 21.515C26.4135 20.5018 26.6155 19.4346 26.6408 18.356C26.6408 16.978 26.7187 16.536 26.7187 13C26.7187 9.464 26.7188 9.022 26.6408 7.644ZM24.3007 18.2C24.2913 19.0252 24.1418 19.8428 23.8587 20.618C23.6512 21.1838 23.3178 21.695 22.8837 22.113C22.4621 22.5427 21.9519 22.8754 21.3887 23.088C20.6136 23.3711 19.796 23.5205 18.9708 23.53C17.6707 23.595 17.1898 23.608 13.7708 23.608C10.3518 23.608 9.87075 23.608 8.57075 23.53C7.71391 23.546 6.86072 23.4141 6.04875 23.14C5.51027 22.9165 5.02351 22.5846 4.61875 22.165C4.18727 21.7474 3.85805 21.2357 3.65675 20.67C3.33936 19.8837 3.16333 19.0475 3.13675 18.2C3.13675 16.9 3.05875 16.419 3.05875 13C3.05875 9.581 3.05875 9.1 3.13675 7.8C3.14258 6.95637 3.29659 6.12033 3.59175 5.33C3.82061 4.78128 4.17189 4.29216 4.61875 3.9C5.01371 3.45302 5.50182 3.09802 6.04875 2.86C6.84117 2.57406 7.67635 2.4246 8.51875 2.418C9.81875 2.418 10.2997 2.34 13.7187 2.34C17.1377 2.34 17.6187 2.34 18.9188 2.418C19.744 2.42746 20.5616 2.57692 21.3368 2.86C21.9275 3.07925 22.4577 3.4357 22.8837 3.9C23.3098 4.29933 23.6426 4.78755 23.8587 5.33C24.1477 6.12161 24.2972 6.95731 24.3007 7.8C24.3657 9.1 24.3787 9.581 24.3787 13C24.3787 16.419 24.3657 16.9 24.3007 18.2ZM13.7187 6.331C12.4003 6.33357 11.1122 6.72688 10.0172 7.46124C8.9222 8.1956 8.06944 9.23806 7.56667 10.4569C7.06391 11.6757 6.93369 13.0162 7.19248 14.309C7.45127 15.6018 8.08746 16.7889 9.02065 17.7203C9.95384 18.6516 11.1422 19.2855 12.4355 19.5418C13.7288 19.7981 15.069 19.6652 16.2869 19.1601C17.5047 18.655 18.5455 17.8002 19.2777 16.7037C20.0099 15.6073 20.4007 14.3184 20.4007 13C20.4025 12.1226 20.2307 11.2536 19.8954 10.4428C19.56 9.6321 19.0677 8.89565 18.4467 8.27587C17.8257 7.65608 17.0883 7.16518 16.2769 6.83141C15.4655 6.49763 14.5961 6.32757 13.7187 6.331ZM13.7187 17.329C12.8626 17.329 12.0256 17.0751 11.3137 16.5994C10.6018 16.1238 10.0469 15.4477 9.71928 14.6566C9.39162 13.8656 9.30589 12.9952 9.47293 12.1555C9.63997 11.3157 10.0523 10.5444 10.6577 9.93893C11.2631 9.33351 12.0345 8.92122 12.8742 8.75418C13.7139 8.58714 14.5844 8.67287 15.3754 9.00053C16.1664 9.32818 16.8425 9.88304 17.3182 10.5949C17.7939 11.3068 18.0477 12.1438 18.0477 13C18.0477 13.5685 17.9358 14.1314 17.7182 14.6566C17.5007 15.1819 17.1818 15.6591 16.7798 16.0611C16.3778 16.4631 15.9006 16.7819 15.3754 16.9995C14.8502 17.217 14.2872 17.329 13.7187 17.329Z" fill="#5536BD"/>
</svg>
