<svg width="28" height="26" viewBox="0 0 28 26" fill="none" xmlns="http://www.w3.org/2000/svg">
    <g clip-path="url(#clip0_3168_5792)">
        <path
            d="M0.507812 3.0202C0.507812 2.14476 0.814218 1.42254 1.427 0.853534C2.03979 0.284503 2.83644 0 3.8169 0C4.77987 0 5.55897 0.280117 6.15427 0.840403C6.76705 1.41818 7.07346 2.17102 7.07346 3.09898C7.07346 3.93939 6.77582 4.63971 6.18053 5.19999C5.56775 5.77777 4.76235 6.06666 3.76437 6.06666H3.73811C2.77514 6.06666 1.99603 5.77777 1.40074 5.19999C0.805446 4.62221 0.507812 3.89561 0.507812 3.0202ZM0.849226 26V8.45655H6.67952V26H0.849226ZM9.90982 26H15.7401V16.204C15.7401 15.5912 15.8102 15.1185 15.9502 14.7858C16.1953 14.1905 16.5674 13.6872 17.0664 13.2757C17.5654 12.8643 18.1913 12.6586 18.9441 12.6586C20.9051 12.6586 21.8856 13.9804 21.8856 16.6242V26H27.7158V15.9414C27.7158 13.3501 27.1031 11.3848 25.8775 10.0454C24.6519 8.70605 23.0324 8.03635 21.0189 8.03635C18.7603 8.03635 17.0007 9.00807 15.7401 10.9515V11.004H15.7138L15.7401 10.9515V8.45655H9.90982C9.94483 9.01681 9.96234 10.7589 9.96234 13.6828C9.96234 16.6067 9.94483 20.7124 9.90982 26Z"
            fill="#5536BD" />
    </g>
    <defs>
        <clipPath id="clip0_3168_5792">
            <rect width="27.208" height="26" fill="white" transform="translate(0.507812)" />
        </clipPath>
    </defs>
</svg>