<svg width="22" height="22" viewBox="0 0 22 22" fill="none" xmlns="http://www.w3.org/2000/svg">
<g clip-path="url(#clip0_3168_5804)">
<path d="M16.1607 5.83834C15.5156 5.1933 14.6928 4.75541 13.7974 4.58073L17.4183 8.20156C17.2436 7.30622 16.8057 6.48337 16.1607 5.83834Z" stroke="#5A5A5A" stroke-width="2" stroke-linecap="round" stroke-linejoin="round"/>
<path d="M18.7165 3.27632C17.3922 1.95372 15.6576 1.12071 13.7974 0.914062L21.0849 8.1924C20.8759 6.33249 20.0408 4.59892 18.7165 3.27632Z" stroke="#5A5A5A" stroke-width="2" stroke-linecap="round" stroke-linejoin="round"/>
<path d="M20.1683 18.2574V15.5074C20.1794 15.0578 20.025 14.6199 19.7343 14.2768C19.4436 13.9337 19.0369 13.7094 18.5916 13.6466C17.7115 13.5305 16.8474 13.3152 16.0158 13.0049C15.6877 12.8816 15.3311 12.8549 14.9883 12.928C14.6455 13.0011 14.3308 13.1709 14.0816 13.4174L12.9174 14.5816C10.6225 13.2766 8.72237 11.3765 7.41744 9.08156L8.58161 7.9174C8.82806 7.66816 8.99791 7.35351 9.07102 7.0107C9.14413 6.6679 9.11744 6.31133 8.99411 5.98323C8.68377 5.15156 8.46851 4.28746 8.35244 3.4074C8.29018 2.96689 8.06986 2.56405 7.73255 2.27397C7.39525 1.98388 6.96397 1.82635 6.51911 1.83073H3.76911C3.51459 1.83097 3.2629 1.8842 3.03008 1.98704C2.79726 2.08988 2.5884 2.24007 2.41681 2.42805C2.24521 2.61603 2.11464 2.83768 2.0334 3.07889C1.95216 3.32009 1.92203 3.57557 1.94494 3.82906C2.24583 6.66247 3.20992 9.38517 4.75911 11.7766C6.1665 13.9914 8.04428 15.8692 10.2591 17.2766C12.6397 18.8204 15.3492 19.7842 18.1699 20.0907C18.4242 20.1137 18.6805 20.0833 18.9223 20.0015C19.1641 19.9198 19.3862 19.7884 19.5743 19.6158C19.7625 19.4432 19.9125 19.2332 20.0147 18.9993C20.117 18.7654 20.1693 18.5127 20.1683 18.2574Z" stroke="#5A5A5A" stroke-width="2" stroke-linecap="round" stroke-linejoin="round"/>
</g>
<defs>
<clipPath id="clip0_3168_5804">
<rect width="22" height="22" fill="white"/>
</clipPath>
</defs>
</svg>
