<svg width="22" height="22" viewBox="0 0 22 22" fill="none" xmlns="http://www.w3.org/2000/svg">
<path d="M20.8931 15.071L18.9681 13.146C18.3943 12.5767 17.6197 12.2558 16.8115 12.2524C16.0032 12.2489 15.226 12.5633 14.6473 13.1276C14.3386 13.4381 13.9313 13.6313 13.4954 13.674C13.0596 13.7166 12.6226 13.606 12.2595 13.3612C10.8264 12.4048 9.59527 11.1761 8.6361 9.74484C8.39561 9.3777 8.28903 8.9389 8.33429 8.50235C8.37955 8.06581 8.5739 7.6582 8.88459 7.34822C9.4438 6.76903 9.75408 5.99395 9.74901 5.18887C9.74394 4.3838 9.42393 3.61269 8.85747 3.04059L6.93247 1.11559C6.35615 0.541247 5.57568 0.21875 4.76203 0.21875C3.94839 0.21875 3.16792 0.541247 2.5916 1.11559L2.03772 1.67034C-0.84978 4.55784 -0.633656 10.6286 5.37409 16.6328C8.9966 20.2562 12.6427 21.7735 15.5993 21.7735C16.4697 21.8024 17.3371 21.6579 18.151 21.3483C18.9649 21.0387 19.7091 20.5702 20.3401 19.9701L20.8948 19.4153C21.4702 18.8388 21.7932 18.0574 21.7929 17.2428C21.7926 16.4282 21.469 15.6471 20.8931 15.071ZM19.6558 18.1781L19.1011 18.7328C16.8261 21.0078 11.8045 20.5922 6.6096 15.3965C1.41472 10.2007 0.99822 5.17559 3.27322 2.90059L3.8236 2.34672C4.0714 2.0998 4.40696 1.96117 4.75678 1.96117C5.1066 1.96117 5.44216 2.0998 5.68997 2.34672L7.61497 4.27172C7.85828 4.51624 7.99638 4.84617 7.99981 5.1911C8.00325 5.53603 7.87174 5.86865 7.63335 6.11797C7.04209 6.71299 6.67327 7.49313 6.58868 8.32769C6.5041 9.16225 6.70888 10.0005 7.16872 10.7021C8.25857 12.333 9.66006 13.7324 11.2926 14.8198C11.9921 15.2797 12.8281 15.4857 13.6612 15.4034C14.4942 15.3211 15.2738 14.9554 15.8697 14.3675C16.1186 14.1263 16.4521 13.9923 16.7987 13.9944C17.1452 13.9966 17.4771 14.1346 17.723 14.3788L19.648 16.3038C19.772 16.4261 19.8707 16.5717 19.9383 16.7323C20.0059 16.8928 20.041 17.0651 20.0418 17.2393C20.0425 17.4135 20.0088 17.5861 19.9425 17.7472C19.8763 17.9084 19.7789 18.0548 19.6558 18.1781Z" fill="black"/>
</svg>
