<svg width="27" height="26" viewBox="0 0 27 26" fill="none" xmlns="http://www.w3.org/2000/svg">
<path fill-rule="evenodd" clip-rule="evenodd" d="M26.0847 2.46583C26.6488 1.90173 26.6488 0.987162 26.0847 0.423063C25.5207 -0.141021 24.6061 -0.141021 24.042 0.423063L15.4549 9.01014L9.28053 0.590272C9.00843 0.219223 8.57583 0 8.1157 0H1.95226C1.40795 0 0.909845 0.305991 0.663813 0.791527C0.417766 1.27706 0.465563 1.85968 0.787443 2.29862L9.83225 14.6328L0.930876 23.5342C0.366792 24.0982 0.366792 25.0129 0.930876 25.5769C1.49497 26.141 2.40954 26.141 2.97364 25.5769L11.5607 16.9898L17.7351 25.4098C18.0073 25.7807 18.4399 26 18.8999 26H25.0634C25.6076 26 26.1058 25.6941 26.3518 25.2084C26.5978 24.723 26.5501 24.1403 26.2282 23.7013L17.1833 11.3672L26.0847 2.46583ZM14.0427 11.9694C14.0873 12.0438 14.1392 12.1148 14.1984 12.1819L22.2129 23.1111H19.632L4.8027 2.88889H7.38374L14.0427 11.9694Z" fill="#5536BD"/>
</svg>
