<svg width="54" height="54" viewBox="0 0 54 54" fill="none" xmlns="http://www.w3.org/2000/svg">
<path d="M27 2C13.2033 2 2 13.2033 2 27C2 40.7967 13.2033 52 27 52C40.7967 52 52 40.7967 52 27C52 13.2033 40.7967 2 27 2ZM27 3.66667C39.8967 3.66667 50.3333 14.1033 50.3333 27C50.3333 39.8967 39.8967 50.3333 27 50.3333C14.1033 50.3333 3.66667 39.8967 3.66667 27C3.66667 14.1033 14.1033 3.66667 27 3.66667ZM27 7C15.965 7 7 15.965 7 27C7 38.0367 15.965 47 27 47C38.035 47 47 38.0367 47 27C47 15.965 38.035 7 27 7ZM27 8.66667C35.995 8.66667 43.45 15.1283 45.0167 23.6667H39.94C37.7983 20.475 32.6867 18.6667 26.98 18.6667C26.9789 18.6667 26.9778 18.6667 26.9767 18.6667C21.29 18.6667 16.21 20.4867 14.08 23.6667H8.98167C10.55 15.1283 18.005 8.66667 27 8.66667ZM26.98 20.3333C32.4367 20.3333 37.155 22.3383 38.66 24.7567L38.6567 30.5067C36.5593 30.6978 34.5951 31.6178 33.1056 33.1067C31.6161 34.5956 30.6953 36.5593 30.5033 38.6567H23.4967C23.3054 36.5596 22.3853 34.5959 20.8964 33.107C19.4074 31.618 17.4437 30.6979 15.3467 30.5067L15.34 24.7867C16.82 22.3667 21.5233 20.34 26.98 20.3333ZM36.1967 24.1383C36.1688 24.1381 36.141 24.1392 36.1133 24.1417C35.955 24.1522 35.8029 24.2077 35.675 24.3017L34.025 25.4833C33.9281 25.5434 33.8446 25.6227 33.7795 25.7164C33.7145 25.81 33.6694 25.9161 33.647 26.0278C33.6246 26.1396 33.6254 26.2548 33.6493 26.3663C33.6732 26.4778 33.7197 26.5832 33.786 26.676C33.8523 26.7687 33.9369 26.8469 34.0346 26.9057C34.1323 26.9645 34.241 27.0026 34.354 27.0176C34.467 27.0327 34.5819 27.0244 34.6916 26.9933C34.8013 26.9622 34.9034 26.9088 34.9917 26.8367L36.6417 25.6583C36.7865 25.559 36.8962 25.4164 36.9551 25.2509C37.0141 25.0855 37.0192 24.9057 36.9699 24.7371C36.9205 24.5686 36.8192 24.4199 36.6803 24.3124C36.5415 24.2048 36.3722 24.1439 36.1967 24.1383ZM8.75 25.3333H13.6717L13.675 28.6667H8.75C8.7 28.1167 8.66667 27.5633 8.66667 27C8.66667 26.4383 8.70167 25.8833 8.75 25.3333ZM27 25.3333C25.1683 25.3333 23.6667 26.835 23.6667 28.6667C23.6667 30.4983 25.1683 32 27 32C28.8317 32 30.3333 30.4983 30.3333 28.6667C30.3333 26.835 28.8317 25.3333 27 25.3333ZM40.3267 25.3333H45.2483C45.2983 25.8833 45.3333 26.4383 45.3333 27C45.3333 27.5633 45.2983 28.1167 45.25 28.6667H40.3233L40.3267 25.3333ZM27 27C27.93 27 28.6667 27.7367 28.6667 28.6667C28.6667 29.5967 27.93 30.3333 27 30.3333C26.07 30.3333 25.3333 29.5967 25.3333 28.6667C25.3333 27.7367 26.07 27 27 27ZM36.1967 27.4717C36.1688 27.4714 36.141 27.4725 36.1133 27.475C35.955 27.4855 35.8029 27.541 35.675 27.635L34.025 28.8167C33.9281 28.8767 33.8446 28.9561 33.7795 29.0497C33.7145 29.1434 33.6694 29.2494 33.647 29.3612C33.6246 29.473 33.6254 29.5882 33.6493 29.6997C33.6732 29.8111 33.7197 29.9165 33.786 30.0093C33.8523 30.1021 33.9369 30.1803 34.0346 30.239C34.1323 30.2978 34.241 30.3359 34.354 30.351C34.467 30.366 34.5819 30.3577 34.6916 30.3266C34.8013 30.2955 34.9034 30.2422 34.9917 30.17L36.6417 28.9917C36.7865 28.8923 36.8962 28.7497 36.9551 28.5843C37.0141 28.4188 37.0192 28.239 36.9699 28.0704C36.9205 27.9019 36.8192 27.7532 36.6803 27.6457C36.5415 27.5382 36.3722 27.4773 36.1967 27.4717ZM8.98167 30.3333H13.68V31.17C13.68 31.391 13.7678 31.603 13.9241 31.7593C14.0804 31.9155 14.2923 32.0033 14.5133 32.0033C15.497 32.0016 16.4713 32.194 17.3804 32.5696C18.2896 32.9453 19.1156 33.4967 19.8111 34.1922C20.5067 34.8878 21.0581 35.7138 21.4337 36.6229C21.8093 37.532 22.0018 38.5063 22 39.49C22 39.711 22.0878 39.923 22.2441 40.0793C22.4004 40.2355 22.6123 40.3233 22.8333 40.3233H23.6667V45.015C20.0206 44.342 16.6647 42.5781 14.0429 39.9565C11.421 37.335 9.65506 33.9793 8.98167 30.3333ZM40.3233 30.3333H45.0183C44.3448 33.9795 42.5803 37.3354 39.9581 39.957C37.3359 42.5785 33.9797 44.3423 30.3333 45.015V40.3233H31.1667C31.3877 40.3233 31.5996 40.2355 31.7559 40.0793C31.9122 39.923 32 39.711 32 39.49C31.9987 38.5062 32.1915 37.5318 32.5675 36.6226C32.9435 35.7135 33.4952 34.8875 34.191 34.192C34.8869 33.4965 35.7131 32.9452 36.6224 32.5696C37.5317 32.194 38.5062 32.0016 39.49 32.0033C39.711 32.0033 39.923 31.9155 40.0793 31.7593C40.2355 31.603 40.3233 31.391 40.3233 31.17V30.3333ZM25.3333 40.3233H28.6667V45.245C28.1167 45.295 27.5633 45.3333 27 45.3333C26.4367 45.3333 25.8833 45.295 25.3333 45.245V40.3233Z" fill="#F37636"/>
</svg>
