<svg width="50" height="50" viewBox="0 0 50 50" fill="none" xmlns="http://www.w3.org/2000/svg">
<path d="M45.9336 19.3903L46.6546 12.4964L40.3218 9.67918L37.5057 3.3464L30.6117 4.06643L25 0L19.3893 4.06643L12.4964 3.3464L9.67918 9.67815L3.3464 12.4964L4.06643 19.3893L0 25L4.06643 30.6097L3.34537 37.5036L9.67815 40.3208L12.4943 46.6536L19.3883 45.9336L25 50L30.6107 45.9336L37.5036 46.6536L40.3208 40.3218L46.6536 37.5036L45.9336 30.6107L50 25L45.9336 19.3903ZM44.4461 36.2286L38.758 38.759L36.2276 44.4461L30.0392 43.8003L25 47.452L19.9608 43.8003L13.7714 44.4461L11.241 38.758L5.55395 36.2286L6.19971 30.0402L2.54797 25L6.20074 19.9608L5.55498 13.7714L11.243 11.241L13.7735 5.55395L19.9618 6.19971L25 2.54797L30.0392 6.19971L36.2286 5.55395L38.759 11.242L44.4461 13.7714L43.8003 19.9598L47.452 25L43.7993 30.0392L44.4461 36.2286Z" fill="#F37636"/>
<path d="M20.8722 31.7917L14.3805 25.3L12.9219 26.7587L20.8722 34.7089L39.1381 16.443L37.6795 14.9844L20.8722 31.7917Z" fill="#F37636"/>
</svg>
