<svg width="50" height="50" viewBox="0 0 50 50" fill="none" xmlns="http://www.w3.org/2000/svg">
<path fill-rule="evenodd" clip-rule="evenodd" d="M8.00157 17.754C10.1614 12.6986 14.5114 8.79746 19.857 7.24855C20.4331 7.08116 20.7646 6.4779 20.5983 5.90181C20.4309 5.32572 19.8277 4.99311 19.2516 5.16051C13.2777 6.89094 8.4157 11.2496 6.00157 16.8996C5.7657 17.4518 6.02331 18.0909 6.57439 18.3268C7.12657 18.5627 7.7657 18.3062 8.00157 17.754Z" fill="#F37636"/>
<path fill-rule="evenodd" clip-rule="evenodd" d="M25 0C11.2022 0 0 11.2022 0 25C0 38.7978 11.2022 50 25 50C38.7978 50 50 38.7978 50 25C50 11.2022 38.7978 0 25 0ZM23.913 26.0826C19.9989 26.0804 16.2402 26.0761 16.2272 26.0717C15.663 26.0315 15.2174 25.5609 15.2174 24.987V22.8261C15.2174 21.6261 14.2435 20.6522 13.0435 20.6522C11.8435 20.6522 10.8696 21.6261 10.8696 22.8261V25.013C10.8696 25.613 10.3826 26.1 9.78261 26.1L2.2 26.088C2.75109 37.8217 12.1793 47.25 23.913 47.8011V41.3043H22.8261C20.4261 41.3043 18.4783 39.3565 18.4783 36.9565C18.4783 34.5565 20.4261 32.6087 22.8261 32.6087H23.913V26.0826ZM26.087 26.0837V33.65C26.087 33.6772 26.0826 33.7043 26.0739 33.7283C26.0565 34.313 25.5761 34.7826 24.987 34.7826H22.8261C21.6261 34.7826 20.6522 35.7565 20.6522 36.9565C20.6522 38.1565 21.6261 39.1304 22.8261 39.1304H24.987C25.5848 39.1304 26.0707 39.6141 26.0739 40.2109C26.0826 40.2348 26.087 40.2609 26.087 40.288V47.8011C37.8207 47.25 47.2489 37.8217 47.8011 26.087H41.3043V27.1739C41.3043 29.5739 39.3565 31.5217 36.9565 31.5217C34.5565 31.5217 32.6087 29.5739 32.6087 27.1739V26.087C32.6087 26.087 29.5565 26.0859 26.087 26.0837ZM47.8011 23.913C47.2489 12.1783 37.8207 2.75 26.087 2.19891V8.69565H27.1739C29.5739 8.69565 31.5217 10.6435 31.5217 13.0435C31.5217 15.4435 29.5739 17.3913 27.1739 17.3913H26.087V23.913H33.688C34.2772 23.913 34.7565 24.3815 34.775 24.9652C34.7804 24.9848 34.7826 27.1739 34.7826 27.1739C34.7826 28.3739 35.7565 29.3478 36.9565 29.3478C38.1565 29.3478 39.1304 28.3739 39.1304 27.1739C39.1304 27.1739 39.1217 25.0478 39.1217 25C39.1217 24.4 39.6087 23.913 40.2087 23.913H47.8011ZM23.913 23.913V16.3043C23.913 15.7043 24.4 15.2174 25 15.2174H27.1739C28.3739 15.2174 29.3478 14.2435 29.3478 13.0435C29.3478 11.8435 28.3739 10.8696 27.1739 10.8696H25C24.4 10.8696 23.913 10.3826 23.913 9.78261V2.19891C12.1793 2.75 2.75109 12.1783 2.19891 23.913H8.69565V22.8261C8.69565 20.4261 10.6435 18.4783 13.0435 18.4783C15.4435 18.4783 17.3913 20.4261 17.3913 22.8261V23.913H23.913Z" fill="#F37636"/>
</svg>
