<svg width="50" height="50" viewBox="0 0 50 50" fill="none" xmlns="http://www.w3.org/2000/svg">
<g clip-path="url(#clip0_3168_5520)">
<path d="M13.623 0.156246C13.2324 0.224606 12.5391 0.488277 12.0117 0.742184C11.2402 1.12304 10.9473 1.33789 10.2539 2.04101C9.3457 2.94921 8.87695 3.71093 8.49609 4.93164C8.30078 5.51757 8.27148 5.89843 8.22266 7.68554C8.18359 9.61914 8.16406 9.76562 7.99805 9.76562C7.60742 9.76562 6.71875 10.1855 6.2793 10.5957C4.20898 12.4512 5.04883 15.8301 7.75391 16.5137L8.20312 16.6211V17.8125C8.20312 20.0781 8.56445 21.8359 9.375 23.4961C10.2148 25.2344 11.709 26.9434 13.2715 27.9883L13.9648 28.4473V29.3164C13.9648 30.1758 13.9551 30.2051 13.6523 30.5078C13.3691 30.7812 13.125 30.8789 11.7676 31.2207C5.03906 32.9492 4.84375 33.0176 3.55469 33.9355C2.73438 34.5215 1.68945 35.6836 1.18164 36.5723C0.683594 37.4316 0.244141 38.6426 0.107422 39.5508C0.0390625 39.9219 0 42.0898 0 44.8535V49.5215L0.244141 49.7559C0.546875 50.0684 0.917969 50.0684 1.2207 49.7559C1.45508 49.5312 1.46484 49.4727 1.46484 48.1445V46.7773H4.39453H7.32422V48.1445C7.32422 49.4727 7.33398 49.5312 7.56836 49.7559C7.69531 49.8926 7.91992 50 8.05664 50C8.19336 50 8.41797 49.8926 8.54492 49.7559L8.78906 49.5215V46.9238V44.3262L8.54492 44.0918C8.24219 43.7793 7.87109 43.7793 7.56836 44.0918C7.37305 44.2773 7.32422 44.4238 7.32422 44.8242V45.3125H4.39453H1.46484V42.7734C1.46484 40.8398 1.50391 40.0488 1.62109 39.4727C1.91406 38.0273 2.56836 36.8555 3.68164 35.7715C4.77539 34.6973 5.63477 34.3164 8.60352 33.5449L10.9961 32.9297L13.2715 35.9082C14.5605 37.5977 15.6836 38.9648 15.8594 39.0723C16.1914 39.2773 16.7969 39.3164 17.1191 39.1504C17.2363 39.0918 17.832 38.5547 18.4375 37.959L19.5312 36.8652L20.6348 37.959C21.2305 38.5547 21.8262 39.0918 21.9434 39.1504C22.2656 39.3164 22.8613 39.2773 23.1934 39.082C23.3594 38.9844 24.5117 37.5586 25.7617 35.918L28.0469 32.9297L29.9121 33.4082C30.9473 33.6719 31.8652 33.916 31.9629 33.9453C32.1191 33.9941 32.1289 34.1895 32.1289 36.2695C32.1289 38.4277 32.1387 38.5645 32.334 38.8086C32.4902 39.0039 32.6172 39.0625 32.9102 39.0625C33.6035 39.0625 33.5938 39.1504 33.5938 34.5996V30.5664H34.9023H36.2109L36.2793 30.8789C36.3184 31.0547 36.4355 31.3184 36.543 31.4746C36.9336 32.0312 36.9531 32.0312 41.084 32.0312C44.6973 32.0312 44.8926 32.0215 45.1953 31.8359C45.5566 31.6113 45.8984 31.1035 45.8984 30.7812C45.8984 30.5664 45.918 30.5664 47.2168 30.5664H48.5352V39.5508V48.5352H41.0645H33.5938V45.0195C33.5938 41.6309 33.584 41.4941 33.3984 41.3086C33.1055 41.0156 32.5879 41.0449 32.334 41.3672C32.1387 41.6211 32.1289 41.7383 32.1289 45.1562C32.1289 48.623 32.1289 48.7012 32.3535 49.1211C32.4707 49.3555 32.6953 49.6387 32.8418 49.7461C33.1152 49.9512 33.2031 49.9512 41.0645 49.9512C48.9355 49.9512 49.0137 49.9512 49.2773 49.7461C49.4238 49.6387 49.6387 49.4238 49.7461 49.2773C49.9512 49.0137 49.9512 48.9551 49.9512 39.5508C49.9512 30.1465 49.9512 30.0879 49.7461 29.8242C49.2773 29.1895 49.1504 29.1504 47.4512 29.1211C45.9277 29.0918 45.8984 29.082 45.8984 28.877C45.8984 28.5645 45.5566 28.0566 45.1953 27.832C44.9707 27.6953 44.6973 27.6367 44.2773 27.6367H43.6816L43.5059 27.2461C42.7441 25.5566 40.4102 25.166 39.1602 26.5234C38.9355 26.7676 38.6914 27.1191 38.6133 27.3047C38.4766 27.6367 38.4668 27.6367 37.8613 27.6367C36.9629 27.6367 36.4453 28.0078 36.2793 28.7793L36.2207 29.0918L34.668 29.1211C32.9004 29.1504 32.7441 29.209 32.3535 29.9805C32.1582 30.3418 32.1289 30.5664 32.1289 31.416C32.1289 32.0215 32.0898 32.4219 32.0312 32.4219C31.8555 32.4219 25.8496 30.8496 25.6738 30.752C25.2246 30.5176 25.0977 30.1855 25.0977 29.2871V28.4375L25.8105 27.9687C26.8066 27.3145 28.4375 25.625 29.0918 24.5703C30.3223 22.5781 30.8594 20.459 30.8594 17.5684V16.6211L31.3184 16.5137C31.9531 16.3477 32.2852 16.1621 32.8418 15.6445C34.4531 14.1211 34.2383 11.5332 32.3926 10.3027C32.1094 10.1172 31.6504 9.91211 31.377 9.84375L30.8789 9.72656L30.8301 7.71484C30.791 5.96679 30.752 5.61523 30.5469 4.93164C30.1953 3.75976 29.6777 2.90039 28.7598 1.99218C28.1152 1.34765 27.793 1.11328 27.041 0.751949C25.5371 0.00976181 25.3809 -3.8147e-06 19.4629 0.00976181C15.5176 0.0195274 14.1504 0.0488243 13.623 0.156246ZM25.332 1.66015C27.1484 2.11914 28.5254 3.4375 29.1113 5.27343C29.2773 5.77148 29.3262 6.25976 29.3652 7.58789C29.3945 8.50586 29.3945 9.32617 29.3652 9.40429C29.3164 9.53125 29.2188 9.53125 28.623 9.41406C26.2305 8.96484 22.8711 8.6914 19.6191 8.6914C17.2363 8.6914 17.0996 8.70117 16.8555 8.89648C16.5234 9.16015 16.5039 9.64843 16.8262 9.93164C17.0312 10.1269 17.1777 10.1367 20.3613 10.1855C23.7305 10.2344 24.9512 10.332 27.6562 10.7519L28.9941 10.957L27.9688 12.998C27.4121 14.1211 26.9238 15.0391 26.875 15.0391C26.8359 15.0391 26.3184 14.9316 25.7324 14.7949C21.6309 13.8769 17.4316 13.8769 13.3008 14.8047C12.6953 14.9414 12.1582 15.0195 12.1094 14.9902C12.0215 14.9316 10.0586 11.1133 10.0586 10.9961C10.0586 10.9473 10.5469 10.8691 12.4902 10.5957C14.375 10.332 14.5508 10.2539 14.5508 9.6875C14.5508 9.18945 14.3262 8.98437 13.7793 8.98437C13.3105 8.98437 10.0879 9.43359 9.82422 9.53125C9.6875 9.58007 9.66797 9.41406 9.66797 7.99804C9.66797 6.16211 9.80469 5.37109 10.2539 4.45312C10.9863 2.97851 12.5586 1.79687 14.1602 1.5332C14.2969 1.51367 16.6895 1.48437 19.4922 1.47461C24.2676 1.46484 24.6191 1.47461 25.332 1.66015ZM8.20312 13.1836C8.20312 14.2578 8.18359 15.1367 8.1543 15.1367C7.96875 15.1367 7.30469 14.707 7.05078 14.4141C6.50391 13.7891 6.42578 12.998 6.83594 12.207C7.03125 11.8262 7.23633 11.6211 7.66602 11.3965C8.21289 11.1035 8.20312 11.0644 8.20312 13.1836ZM31.5039 11.4746C31.9629 11.748 32.3633 12.334 32.4609 12.8906C32.5977 13.7012 32.041 14.6484 31.2305 14.9902L30.8594 15.1367V13.1836C30.8594 11.7676 30.8887 11.2305 30.9766 11.2305C31.0352 11.2305 31.2793 11.3379 31.5039 11.4746ZM10.3516 14.834C10.8691 15.8691 10.9863 16.0352 11.3574 16.25C11.8848 16.5625 12.2168 16.5625 13.4961 16.2695C15.9766 15.6836 18.6133 15.459 21.0254 15.6152C22.7148 15.7324 24.5703 15.9961 25.791 16.3086C26.7969 16.5625 27.1875 16.5527 27.6953 16.2598C28.0566 16.0449 28.1934 15.8594 28.7305 14.8242L29.3457 13.623L29.375 16.1133C29.4141 19.6973 29.2285 20.9961 28.4277 22.7148C27.8809 23.8867 27.3242 24.6484 26.3184 25.6348C24.4824 27.4414 22.0996 28.418 19.5312 28.418C14.5996 28.418 10.3711 24.668 9.77539 19.7754C9.66797 18.916 9.61914 13.6719 9.7168 13.6719C9.74609 13.6719 10.0293 14.1992 10.3516 14.834ZM41.8945 27.4902C42.0508 27.6367 42.207 27.8809 42.2363 28.0371C42.3828 28.7109 42.9883 29.1016 43.8965 29.1016H44.4336V29.834V30.5664H41.0645H37.6953V29.834V29.1016H38.3203C39.1309 29.1016 39.502 28.8672 39.873 28.0957C40.2148 27.3828 40.5957 27.1191 41.1914 27.1777C41.4844 27.207 41.709 27.3047 41.8945 27.4902ZM16.2109 29.3945C18.291 30.0391 20.791 30.0293 22.8809 29.375C23.2422 29.2676 23.5547 29.1895 23.5742 29.209C23.5938 29.2285 23.6328 29.5605 23.6523 29.9414L23.7012 30.6445L21.6211 32.7246L19.5312 34.8145L17.4414 32.7148L15.3613 30.6152L15.4004 29.9023C15.4297 29.5215 15.4785 29.1992 15.5176 29.1992C15.5469 29.1992 15.8594 29.2871 16.2109 29.3945ZM16.5039 33.8379L18.5059 35.8398L17.5293 36.8164L16.5527 37.793L14.5703 35.1855C13.0957 33.2715 12.6172 32.5684 12.7051 32.5098C12.7832 32.4707 12.9883 32.4023 13.1836 32.373C13.3691 32.3437 13.7207 32.207 13.9648 32.0801C14.209 31.9531 14.4238 31.8457 14.4531 31.8457C14.4824 31.8359 15.4004 32.7344 16.5039 33.8379ZM24.9219 32.0215C25.0977 32.1289 25.498 32.2754 25.8105 32.3633C26.1328 32.4414 26.4062 32.5195 26.4258 32.5488C26.4453 32.5684 25.5762 33.7598 24.4922 35.1855L22.5098 37.7832L21.5332 36.8066L20.5566 35.8398L22.5586 33.8379C23.6621 32.7344 24.5703 31.8359 24.5801 31.8359C24.5898 31.8359 24.7461 31.9238 24.9219 32.0215Z" fill="#F37636"/>
<path d="M18.3145 2.77285C16.8789 3.11464 15.9219 4.04238 15.9219 5.04824C15.9316 6.60097 18.0605 7.75331 20.3359 7.44081C21.5176 7.26503 22.416 6.81581 22.9238 6.13222C23.8613 4.85292 22.9531 3.30996 20.9512 2.78261C20.2676 2.60683 19.0078 2.60683 18.3145 2.77285ZM21.127 4.38417C21.3809 4.51113 21.6641 4.71621 21.752 4.85292C21.8984 5.07753 21.8984 5.09706 21.6348 5.3705C21.0195 6.01503 19.2324 6.22988 18.2168 5.77089C17.3477 5.39003 17.1914 5.09706 17.6309 4.68691C18.2852 4.07167 20.1504 3.90566 21.127 4.38417Z" fill="#F37636"/>
<path d="M14.8535 16.9555C14.6777 17.1801 14.6484 17.3558 14.6484 18.2347C14.6484 19.3676 14.707 19.5531 15.127 19.7191C15.3613 19.8168 15.459 19.8168 15.7031 19.6898C15.8594 19.6117 16.0156 19.4652 16.0547 19.3871C16.084 19.2992 16.1133 18.7719 16.1133 18.225C16.1133 17.3558 16.084 17.1801 15.9082 16.9555C15.7617 16.7699 15.6152 16.7015 15.3809 16.7015C15.1465 16.7015 15 16.7699 14.8535 16.9555Z" fill="#F37636"/>
<path d="M23.168 16.9244C22.9727 17.1295 22.9531 17.2565 22.9531 18.2037C22.9531 18.7799 23.002 19.3365 23.0605 19.444C23.3047 19.9127 24.0859 19.8736 24.3105 19.3756C24.3691 19.2389 24.418 18.7018 24.418 18.1744C24.418 17.3541 24.3887 17.1783 24.2129 16.9537C23.9492 16.6217 23.4609 16.6022 23.168 16.9244Z" fill="#F37636"/>
<path d="M17.4612 24.1367C17.0803 24.4297 17.0706 25.0547 17.4612 25.3477C17.7835 25.6016 18.8577 25.875 19.5413 25.875C20.3128 25.875 21.3088 25.582 21.6604 25.2598C21.9534 24.9863 21.9436 24.5078 21.6409 24.2246C21.3772 23.9707 21.1526 23.9805 20.4592 24.2539C19.9612 24.4492 19.1018 24.4395 18.6038 24.2539C18.0374 24.0293 17.6467 23.9902 17.4612 24.1367Z" fill="#F37636"/>
<path d="M39.6953 33.9492C39.3242 34.0371 38.6406 34.2813 38.1816 34.4961C37.5176 34.8184 37.2051 35.0527 36.5215 35.7363C35.1445 37.123 34.6172 38.4121 34.6172 40.3359C34.627 41.332 34.6562 41.5566 34.9199 42.2988C35.5156 43.9883 36.6582 45.2773 38.2305 46.0586C39.1875 46.5371 40.1543 46.7812 41.0625 46.7812C42.498 46.7812 44.2754 46.0781 45.3789 45.0723C47.0586 43.5488 47.8496 41.2246 47.4199 39.0664C47.1465 37.7188 46.6094 36.7324 45.6133 35.7363C44.9297 35.0527 44.6172 34.8184 43.9434 34.4961C42.5469 33.832 41.1406 33.6465 39.6953 33.9492ZM42.1758 35.4043C43.123 35.6289 44.0508 36.166 44.6953 36.8594C45.2422 37.4453 45.8184 38.5 45.9453 39.1445C46.0039 39.4473 45.9941 39.457 45.7793 39.418C44.3438 39.0957 37.752 39.0957 36.3457 39.418C36.1309 39.457 36.1211 39.4473 36.1797 39.1445C36.3262 38.4121 36.9023 37.3965 37.5273 36.7715C38.7871 35.5117 40.4961 35.0137 42.1758 35.4043ZM43.6504 40.6582C43.6504 40.6777 43.4551 40.9121 43.2109 41.1758C42.7227 41.6934 42.2539 42.582 42.0977 43.2656C42.0391 43.5098 41.9902 44.0371 41.9902 44.4473C41.9902 45.2969 41.9707 45.3164 41.0625 45.3164C40.1445 45.3164 40.1348 45.3066 40.1348 44.3887C40.1348 43.0801 39.7246 42.0352 38.8164 41.0293L38.4551 40.6289H41.0527C42.4785 40.6289 43.6504 40.6387 43.6504 40.6582ZM36.9805 41.498C37.4688 41.7422 38.1035 42.416 38.377 42.9727C38.6211 43.4414 38.7676 44.6328 38.5918 44.6328C38.4258 44.6328 37.5469 43.9004 37.1758 43.4414C36.7949 42.9727 36.2871 41.9473 36.1797 41.4297C36.1211 41.127 36.1211 41.1172 36.3652 41.2148C36.502 41.2637 36.7754 41.3906 36.9805 41.498ZM45.8867 41.6738C45.7012 42.2695 45.3105 42.9922 44.9395 43.4414C44.5879 43.8809 43.6992 44.6328 43.543 44.6328C43.377 44.6328 43.4551 43.7637 43.6602 43.1973C43.9434 42.4648 44.6074 41.752 45.3594 41.4004C45.6816 41.2441 45.9551 41.1563 45.9746 41.2148C45.9941 41.2637 45.9551 41.4785 45.8867 41.6738Z" fill="#F37636"/>
<path d="M18.994 40.4297C18.5741 40.8984 18.8964 41.6016 19.5312 41.6016C19.7558 41.6016 19.9511 41.5332 20.0487 41.4258C20.2733 41.1816 20.2636 40.5957 20.039 40.4004C19.7851 40.166 19.2089 40.1855 18.994 40.4297Z" fill="#F37636"/>
<path d="M18.994 44.8203C18.5741 45.2891 18.8964 45.9922 19.5312 45.9922C19.7558 45.9922 19.9511 45.9238 20.0487 45.8164C20.2733 45.5723 20.2636 44.9863 20.039 44.791C19.7851 44.5566 19.2089 44.5762 18.994 44.8203Z" fill="#F37636"/>
</g>
<defs>
<clipPath id="clip0_3168_5520">
<rect width="50" height="50" fill="white"/>
</clipPath>
</defs>
</svg>
