<svg width="50" height="50" viewBox="0 0 50 50" fill="none" xmlns="http://www.w3.org/2000/svg">
<g clip-path="url(#clip0_3168_5548)">
<path d="M24.5237 0.136719C23.6741 0.605469 24.0354 1.95312 25.012 1.95312C25.2854 1.95312 25.764 1.68945 25.8811 1.47461C25.93 1.36719 25.9788 1.14258 25.9788 0.976562C25.9788 0.566406 25.8323 0.322266 25.4905 0.146484C25.1487 -0.0292969 24.8362 -0.0390625 24.5237 0.136719Z" fill="#F37636"/>
<path d="M20.4102 0.498047C18.8867 0.898438 18.3691 1.06445 17.3828 1.43555C14.1699 2.66602 11.1719 4.78516 8.96484 7.41211C6.32812 10.5469 4.55078 14.541 4.10156 18.3594C4.04297 18.8672 3.97461 19.4727 3.94531 19.6973C3.90625 20.0488 3.85742 20.1172 3.68164 20.1172C3.36914 20.1172 2.40234 20.918 1.91406 21.5723C1.37695 22.3145 1.18164 22.8125 0.585938 24.9902C-0.175781 27.7734 -0.0878906 28.6523 1.11328 30.5078L1.67969 31.3672L0.839844 33.3887C0.371094 34.4922 0 35.4785 0 35.5762C0 35.8398 0.273438 36.3086 0.478516 36.4258C0.810547 36.6016 1.33789 36.543 1.5918 36.2988C1.73828 36.1719 2.13867 35.3613 2.59766 34.248C3.00781 33.2422 3.39844 32.4219 3.45703 32.4219C3.51562 32.4219 4.46289 32.6172 5.56641 32.8516C7.39258 33.2324 7.56836 33.291 7.54883 33.4668C7.53906 33.5742 6.70898 37.0996 5.71289 41.2891C4.7168 45.4785 3.90625 48.9746 3.90625 49.0625C3.90625 49.5215 4.4043 50 4.88281 50C5.21484 50 5.625 49.7363 5.74219 49.4434C5.81055 49.2969 6.60156 46.0352 7.50977 42.207C8.41797 38.3789 9.17969 35.2246 9.19922 35.2051C9.21875 35.1855 9.64844 35.5664 10.1562 36.0645C16.7871 42.5195 26.5234 44.0234 34.668 39.834C36.5332 38.877 38.9453 37.0801 40.2734 35.6543C40.5273 35.3711 40.7617 35.166 40.791 35.1953C40.8203 35.2148 41.582 38.3789 42.4902 42.207C43.3984 46.0352 44.1895 49.2969 44.2578 49.4434C44.375 49.7363 44.7852 50 45.1172 50C45.5957 50 46.0938 49.5215 46.0938 49.0625C46.0938 48.9746 45.2832 45.4785 44.2871 41.2891C43.291 37.0996 42.4609 33.5742 42.4512 33.4668C42.4316 33.2812 42.5977 33.2324 44.4336 32.8516C45.5371 32.6172 46.4844 32.4316 46.543 32.4219C46.6016 32.4219 46.9922 33.2422 47.4023 34.248C47.8613 35.3613 48.2617 36.1719 48.4082 36.2988C48.6621 36.543 49.1895 36.6016 49.5215 36.4258C49.7266 36.3086 50 35.8398 50 35.5762C50 35.4785 49.6289 34.4922 49.1602 33.3887L48.3301 31.377L48.916 30.4492C50.0977 28.5742 50.166 27.7637 49.4141 24.9902C48.8184 22.8125 48.623 22.3145 48.0859 21.5723C47.5977 20.918 46.6309 20.1172 46.3184 20.1172C46.1426 20.1172 46.0938 20.0488 46.0547 19.6973C46.0254 19.4727 45.957 18.8672 45.8984 18.3594C45.6543 16.2988 44.9121 13.8379 43.9453 11.8652C41.582 7.05078 37.5781 3.35938 32.5977 1.41602C31.4746 0.976562 29.3652 0.390625 28.9258 0.390625C28.3203 0.390625 27.8516 0.966797 27.9785 1.54297C28.0762 2.02148 28.4082 2.23633 29.4531 2.49023C37.4414 4.43359 43.2617 11.1523 44.043 19.3359C44.1016 19.9512 44.1406 20.791 44.1211 21.1914L44.0918 21.9238L43.1641 22.4316C42.6562 22.7051 42.2168 22.9395 42.1875 22.9395C42.1582 22.9492 42.1387 22.0996 42.1289 21.0645C42.1289 18.4766 41.7383 16.5039 40.8105 14.4043C38.4277 8.97461 33.7891 5.26367 28.0469 4.17969C26.4062 3.86719 23.5938 3.86719 21.9434 4.17969C19.5703 4.62891 17.0215 5.71289 15.0391 7.10938C13.8477 7.94922 11.8555 9.94141 11.0156 11.1328C9.59961 13.125 8.53516 15.6445 8.08594 18.0469C7.91016 18.9648 7.87109 19.5508 7.86133 21.0645C7.86133 22.0996 7.8418 22.9492 7.8125 22.9395C7.7832 22.9395 7.34375 22.7051 6.83594 22.4316L5.9082 21.9238L5.87891 21.1914C5.85938 20.791 5.89844 19.9512 5.95703 19.3359C6.51367 13.5352 9.58984 8.37891 14.4531 5.13672C16.1621 3.98438 18.9355 2.80273 20.752 2.44141C21.0742 2.37305 21.4551 2.25586 21.6016 2.16797C22.4316 1.68945 22.0801 0.380859 21.123 0.400391C20.918 0.400391 20.5957 0.449219 20.4102 0.498047ZM26.9727 6.00586C31.8359 6.65039 35.9863 9.50195 38.4082 13.8672C38.7793 14.541 39.5508 16.4062 39.5508 16.6406C39.5508 16.8066 40.1074 16.9238 34.1797 15.4883C28.7207 14.1699 27.4707 13.9648 25 13.9648C22.4805 13.9648 21.3477 14.1602 15.2441 15.6348C12.5879 16.2695 10.4102 16.7969 10.3906 16.7969C10.3711 16.7969 10.4688 16.4746 10.6055 16.084C13.0469 9.25781 19.8535 5.06836 26.9727 6.00586ZM28.2715 16.1621C28.8086 16.25 30.3223 16.5723 31.6406 16.8945C32.959 17.207 35.3516 17.7832 36.9629 18.1641C38.5742 18.5547 39.9512 18.916 40.0195 18.9844C40.1758 19.1309 40.293 21.2793 40.1953 22.1973L40.1172 22.8516H35.8105C31.0449 22.8516 30.6738 22.8906 29.5801 23.4473C28.7695 23.8477 27.7637 24.8535 27.3535 25.6641C26.7871 26.7871 26.7578 27.0508 26.7578 31.8457V36.2012L26.3086 36.2695C25.7227 36.3477 24.2773 36.3477 23.6914 36.2695L23.2422 36.2012V31.8457C23.2422 27.0508 23.2129 26.7871 22.6465 25.6641C22.1973 24.7754 21.2012 23.8086 20.293 23.3984C19.9023 23.2129 19.3164 23.0176 19.0039 22.959C18.6426 22.8906 16.8164 22.8516 14.1504 22.8516H9.88281L9.80469 22.1973C9.73633 21.5625 9.81445 19.0527 9.91211 18.9648C9.93164 18.9453 12.3828 18.3301 15.3516 17.6172C20.0879 16.4746 21.7285 16.1328 23.291 15.9766C24.0918 15.8984 27.334 16.0156 28.2715 16.1621ZM5.88867 24.1211C7.58789 25.0391 7.82227 25.1367 8.37891 25.1758C8.80859 25.2051 9.12109 25.166 9.42383 25.0586C9.89258 24.873 10.166 24.9414 10.3516 25.293C10.4004 25.3906 10.4492 26.1035 10.4492 26.875C10.4492 29.0234 10.2148 29.6973 9.05273 30.8398L8.42773 31.4551L6.09375 30.9668C4.81445 30.6934 3.67188 30.4492 3.56445 30.4199C3.35938 30.3809 2.36328 28.9258 2.1582 28.3887C1.94336 27.8223 2.04102 27.041 2.53906 25.2637C3.02734 23.5352 3.20312 23.0566 3.49609 22.7246C3.64258 22.5586 3.66211 22.5684 3.82812 22.832C3.95508 23.0371 4.55078 23.4082 5.88867 24.1211ZM46.7871 23.1543C46.8848 23.3594 47.1875 24.3066 47.4609 25.2637C47.959 27.041 48.0566 27.8223 47.8418 28.3887C47.6758 28.8379 46.6504 30.3711 46.4941 30.4102C46.4062 30.4395 45.2637 30.6836 43.9453 30.957L41.5527 31.4648L40.8105 30.6934C39.7461 29.5898 39.6289 29.2383 39.5703 27.1387C39.541 26.0156 39.5703 25.4492 39.6484 25.3027C39.8242 24.9707 40.166 24.8828 40.5957 25.0586C40.8398 25.166 41.1621 25.2051 41.6016 25.1758C42.1875 25.1465 42.3633 25.0684 44.1211 24.1211C45.459 23.3984 46.0547 23.0273 46.1719 22.832C46.3574 22.5195 46.4941 22.5879 46.7871 23.1543ZM19.4531 25.1758C20.166 25.5273 20.6543 26.0156 21.0156 26.748C21.2402 27.1973 21.2402 27.2266 21.2695 31.5234L21.2988 35.8594L20.9766 35.791C20.498 35.6836 18.877 35.0781 18.2324 34.7461C16.0742 33.6621 13.8867 31.7969 12.6562 30L12.207 29.3457L12.3145 28.7598C12.373 28.4277 12.4023 27.4609 12.3828 26.4844L12.3535 24.7949L15.5762 24.8242L18.7988 24.8535L19.4531 25.1758ZM37.6172 26.4941C37.5977 27.4609 37.627 28.4277 37.6855 28.7598L37.793 29.3457L37.3438 30C36.1133 31.7969 33.9258 33.6621 31.7676 34.7461C31.123 35.0781 29.502 35.6836 29.0234 35.791L28.7012 35.8594L28.7305 31.5234L28.7598 27.1973L29.0332 26.6602C29.3555 26.0352 29.5898 25.7617 30.1367 25.3906C30.8984 24.8633 31.2109 24.8145 34.5703 24.8145L37.6465 24.8047L37.6172 26.4941ZM11.7188 31.9824C12.4121 32.8809 14.1699 34.4922 15.2832 35.2441C17.2949 36.6211 19.5703 37.5586 21.9531 38.0078C23.5938 38.3203 26.4062 38.3203 28.0469 38.0078C31.5039 37.3535 34.5215 35.7812 36.9727 33.3496C37.627 32.7051 38.291 32.002 38.457 31.7871L38.75 31.3965L39.4336 32.1289L40.1074 32.8613L39.707 33.3398C36.123 37.6367 30.5664 40.2344 24.9805 40.2344C19.5508 40.2246 14.1309 37.7539 10.5566 33.6523L9.88281 32.8711L10.5273 32.1582C10.8887 31.7676 11.2109 31.4453 11.2402 31.4453C11.2793 31.4453 11.4941 31.6895 11.7188 31.9824Z" fill="#F37636"/>
<path d="M24.0117 17.9023C23.1914 18.2148 22.5664 18.7617 22.1465 19.5625C21.9609 19.9043 21.9219 20.1289 21.9219 20.9004C21.9219 21.7402 21.9512 21.877 22.2051 22.3457C22.5371 22.9316 23.0352 23.4297 23.6504 23.752C24.002 23.9375 24.2168 23.9766 24.998 23.9766C25.7793 23.9766 25.9941 23.9375 26.3457 23.752C26.9609 23.4297 27.459 22.9316 27.791 22.3457C28.0449 21.877 28.0742 21.7402 28.0742 20.9004C28.0742 19.8652 27.9277 19.4648 27.293 18.7617C26.7363 18.1465 26.0527 17.8438 25.1445 17.8047C24.6562 17.7852 24.2363 17.8242 24.0117 17.9023ZM25.584 19.875C25.7402 19.9629 25.9355 20.1582 26.0234 20.3145C26.3262 20.9004 26.1211 21.6523 25.584 21.9258C24.7637 22.3457 23.8262 21.7988 23.8262 20.9004C23.8262 20.002 24.7637 19.4551 25.584 19.875Z" fill="#F37636"/>
</g>
<defs>
<clipPath id="clip0_3168_5548">
<rect width="50" height="50" fill="white"/>
</clipPath>
</defs>
</svg>
