<svg width="34" height="34" viewBox="0 0 34 34" fill="none" xmlns="http://www.w3.org/2000/svg">
<g clip-path="url(#clip0_484_2127)">
<path d="M8.97852 21.5325L13.6542 15.4555L18.9875 19.6453L23.5632 13.7402" stroke="#45464E" stroke-width="3" stroke-linecap="round" stroke-linejoin="round"/>
<path d="M28.8961 8.0051C30.5544 8.0051 31.8986 6.66081 31.8986 5.00255C31.8986 3.34429 30.5544 2 28.8961 2C27.2378 2 25.8936 3.34429 25.8936 5.00255C25.8936 6.66081 27.2378 8.0051 28.8961 8.0051Z" stroke="#45464E" stroke-width="3" stroke-linecap="round" stroke-linejoin="round"/>
<path d="M20.9752 3.31592H9.62153C4.91706 3.31592 2 6.64766 2 11.3521V23.9784C2 28.6829 4.85986 32.0003 9.62153 32.0003H23.0629C27.7674 32.0003 30.6844 28.6829 30.6844 23.9784V12.9823" stroke="#45464E" stroke-width="3" stroke-linecap="round" stroke-linejoin="round"/>
</g>
<defs>
<clipPath id="clip0_484_2127">
<rect width="34" height="34" fill="white"/>
</clipPath>
</defs>
</svg>
