<svg width="40" height="40" viewBox="0 0 40 40" fill="none" xmlns="http://www.w3.org/2000/svg">
<circle cx="20" cy="20" r="20" fill="#696969"/>
<path d="M28.6282 13.4565H25.6815L24.2271 11.2733C24.1709 11.1891 24.0948 11.1201 24.0055 11.0724C23.9162 11.0247 23.8165 10.9999 23.7153 11H17.1647C17.0635 10.9999 16.9638 11.0247 16.8745 11.0724C16.7852 11.1201 16.7091 11.1891 16.6529 11.2733L15.1975 13.4565H12.2518C11.6546 13.4565 11.0818 13.6937 10.6595 14.116C10.2372 14.5383 10 15.111 10 15.7082V27.1718C10 27.769 10.2372 28.3417 10.6595 28.764C11.0818 29.1863 11.6546 29.4235 12.2518 29.4235H28.6282C29.2254 29.4235 29.7982 29.1863 30.2205 28.764C30.6428 28.3417 30.88 27.769 30.88 27.1718V15.7082C30.88 15.111 30.6428 14.5383 30.2205 14.116C29.7982 13.6937 29.2254 13.4565 28.6282 13.4565ZM29.6518 27.1718C29.6518 27.4432 29.5439 27.7036 29.352 27.8955C29.16 28.0875 28.8997 28.1953 28.6282 28.1953H12.2518C11.9803 28.1953 11.72 28.0875 11.528 27.8955C11.3361 27.7036 11.2282 27.4432 11.2282 27.1718V15.7082C11.2282 15.4368 11.3361 15.1764 11.528 14.9845C11.72 14.7925 11.9803 14.6847 12.2518 14.6847H15.5271C15.6283 14.6849 15.728 14.66 15.8172 14.6123C15.9065 14.5646 15.9826 14.4956 16.0388 14.4114L17.4933 12.2282H23.3857L24.8412 14.4114C24.8974 14.4956 24.9735 14.5646 25.0628 14.6123C25.152 14.66 25.2517 14.6849 25.3529 14.6847H28.6282C28.8997 14.6847 29.16 14.7925 29.352 14.9845C29.5439 15.1764 29.6518 15.4368 29.6518 15.7082V27.1718ZM20.44 16.7318C19.5898 16.7318 18.7586 16.9839 18.0517 17.4563C17.3448 17.9286 16.7938 18.6 16.4684 19.3855C16.143 20.171 16.0579 21.0354 16.2238 21.8693C16.3896 22.7031 16.7991 23.4691 17.4003 24.0703C18.0015 24.6715 18.7675 25.0809 19.6013 25.2468C20.4352 25.4127 21.2996 25.3276 22.0851 25.0022C22.8706 24.6768 23.542 24.1258 24.0143 23.4189C24.4867 22.712 24.7388 21.8808 24.7388 21.0306C24.7388 19.8905 24.2859 18.7971 23.4797 17.9909C22.6735 17.1847 21.5801 16.7318 20.44 16.7318ZM20.44 24.1012C19.8327 24.1012 19.239 23.9211 18.7341 23.5837C18.2291 23.2463 17.8356 22.7667 17.6031 22.2057C17.3707 21.6446 17.3099 21.0272 17.4284 20.4316C17.5469 19.8359 17.8393 19.2888 18.2688 18.8594C18.6982 18.4299 19.2453 18.1375 19.841 18.019C20.4366 17.9005 21.054 17.9613 21.6151 18.1937C22.1761 18.4261 22.6557 18.8197 22.9931 19.3247C23.3305 19.8296 23.5106 20.4233 23.5106 21.0306C23.5106 21.845 23.1871 22.626 22.6112 23.2018C22.0354 23.7777 21.2544 24.1012 20.44 24.1012Z" fill="white"/>
<path d="M20.44 24.1012C19.8327 24.1012 19.239 23.9211 18.7341 23.5837C18.2291 23.2463 17.8356 22.7667 17.6031 22.2057C17.3707 21.6446 17.3099 21.0272 17.4284 20.4316C17.5469 19.8359 17.8393 19.2888 18.2688 18.8594C18.6982 18.4299 19.2453 18.1375 19.841 18.019C20.4366 17.9005 21.054 17.9613 21.6151 18.1937C22.1761 18.4261 22.6557 18.8197 22.9931 19.3247C23.3305 19.8296 23.5106 20.4233 23.5106 21.0306C23.5106 21.845 23.1871 22.626 22.6112 23.2018C22.0354 23.7777 21.2544 24.1012 20.44 24.1012Z" fill="white"/>
</svg>
