<svg width="34" height="34" viewBox="0 0 34 34" fill="none" xmlns="http://www.w3.org/2000/svg">
<g clip-path="url(#clip0_484_2140)">
<path d="M17 1.0625C8.20463 1.0625 1.0625 8.20463 1.0625 17C1.0625 25.7954 8.20463 32.9375 17 32.9375C25.7954 32.9375 32.9375 25.7954 32.9375 17C32.9375 8.20463 25.7954 1.0625 17 1.0625ZM17 2.125C25.2216 2.125 31.875 8.77838 31.875 17C31.875 25.2216 25.2216 31.875 17 31.875C8.77838 31.875 2.125 25.2216 2.125 17C2.125 8.77838 8.77838 2.125 17 2.125ZM17 4.25C9.96519 4.25 4.25 9.96519 4.25 17C4.25 24.0359 9.96519 29.75 17 29.75C24.0348 29.75 29.75 24.0359 29.75 17C29.75 9.96519 24.0348 4.25 17 4.25ZM17 5.3125C22.7343 5.3125 27.4869 9.43181 28.4856 14.875H25.2493C23.8839 12.8403 20.6252 11.6875 16.9873 11.6875C16.9865 11.6875 16.9858 11.6875 16.9851 11.6875C13.3599 11.6875 10.1214 12.8477 8.7635 14.875H5.51331C6.51312 9.43181 11.2657 5.3125 17 5.3125ZM16.9873 12.75C20.4659 12.75 23.4738 14.0282 24.4333 15.5699L24.4311 19.2355C23.094 19.3573 21.8419 19.9438 20.8923 20.893C19.9428 21.8422 19.3558 23.0941 19.2334 24.4311H14.7666C14.6447 23.0943 14.0582 21.8424 13.1089 20.8932C12.1597 19.944 10.9079 19.3574 9.571 19.2355L9.56675 15.589C10.5103 14.0463 13.5086 12.7542 16.9873 12.75ZM5.36669 15.9375H8.50425L8.50637 18.0625H5.36563C5.33375 17.7119 5.3125 17.3591 5.3125 17C5.3125 16.6419 5.33588 16.2881 5.36669 15.9375ZM17 15.9375C15.8323 15.9375 14.875 16.8948 14.875 18.0625C14.875 19.2302 15.8323 20.1875 17 20.1875C18.1677 20.1875 19.125 19.2302 19.125 18.0625C19.125 16.8948 18.1677 15.9375 17 15.9375ZM25.4958 15.9375H28.6333C28.6652 16.2881 28.6875 16.6419 28.6875 17C28.6875 17.3591 28.6652 17.7119 28.6344 18.0625H25.4936L25.4958 15.9375ZM17 17C17.5929 17 18.0625 17.4696 18.0625 18.0625C18.0625 18.6554 17.5929 19.125 17 19.125C16.4071 19.125 15.9375 18.6554 15.9375 18.0625C15.9375 17.4696 16.4071 17 17 17ZM5.51438 19.125H8.5085V19.6584C8.5085 19.7993 8.56447 19.9344 8.6641 20.034C8.76373 20.1337 8.89885 20.1896 9.03975 20.1896C9.66683 20.1885 10.288 20.3112 10.8675 20.5506C11.4471 20.7901 11.9737 21.1416 12.4171 21.585C12.8605 22.0284 13.212 22.555 13.4515 23.1346C13.6909 23.7142 13.8136 24.3353 13.8125 24.9624C13.8125 25.1033 13.8685 25.2384 13.9681 25.338C14.0677 25.4377 14.2029 25.4936 14.3438 25.4936H14.875V28.4846C12.5506 28.0555 10.4113 26.931 8.73983 25.2598C7.0684 23.5886 5.94366 21.4493 5.51438 19.125ZM25.4936 19.125H28.4867C28.0573 21.4495 26.9324 23.5888 25.2608 25.2601C23.5892 26.9313 21.4496 28.0557 19.125 28.4846V25.4936H19.6562C19.7971 25.4936 19.9323 25.4377 20.0319 25.338C20.1315 25.2384 20.1875 25.1033 20.1875 24.9624C20.1867 24.3352 20.3096 23.714 20.5493 23.1344C20.789 22.5549 21.1407 22.0283 21.5843 21.5849C22.0279 21.1415 22.5546 20.79 23.1343 20.5506C23.714 20.3112 24.3352 20.1885 24.9624 20.1896C25.1033 20.1896 25.2384 20.1337 25.338 20.034C25.4377 19.9344 25.4936 19.7993 25.4936 19.6584V19.125ZM15.9375 25.4936H18.0625V28.6312C17.7119 28.6631 17.3591 28.6875 17 28.6875C16.6409 28.6875 16.2881 28.6631 15.9375 28.6312V25.4936Z" fill="#45464E" stroke="#45464E" stroke-width="0.5"/>
</g>
<defs>
<clipPath id="clip0_484_2140">
<rect width="34" height="34" fill="white"/>
</clipPath>
</defs>
</svg>
