<svg width="16" height="16" viewBox="0 0 16 16" fill="none" xmlns="http://www.w3.org/2000/svg">
<path d="M10.9211 14.8968H5.07835C4.6675 14.898 4.27097 14.7458 3.96638 14.4701C3.66178 14.1944 3.47103 13.8149 3.43146 13.406L2.48525 3.91689C2.47745 3.84018 2.48584 3.76269 2.50989 3.68943C2.53394 3.61617 2.57311 3.54877 2.62486 3.49161C2.67661 3.43445 2.73979 3.3888 2.81031 3.35761C2.88083 3.32642 2.95711 3.31038 3.03421 3.31055H12.9652C13.0423 3.31055 13.1185 3.3267 13.1889 3.35795C13.2594 3.3892 13.3225 3.43485 13.3742 3.49198C13.4259 3.5491 13.4651 3.61642 13.4892 3.68961C13.5133 3.76279 13.5218 3.84022 13.5142 3.91689L12.568 13.4054C12.5284 13.8144 12.3377 14.194 12.0331 14.4698C11.7285 14.7456 11.332 14.8978 10.9211 14.8968ZM3.64332 4.414L4.52939 13.2962C4.5427 13.4325 4.60631 13.5589 4.70781 13.6508C4.80931 13.7427 4.94142 13.7935 5.07835 13.7933H10.9211C11.058 13.7935 11.1902 13.7427 11.2917 13.6508C11.3932 13.5589 11.4568 13.4325 11.4701 13.2962L12.3561 4.414H3.64332Z" fill="white"/>
<path d="M14.3449 4.414H1.65524C1.50891 4.414 1.36858 4.35587 1.26511 4.2524C1.16164 4.14893 1.10352 4.0086 1.10352 3.86227C1.10352 3.71594 1.16164 3.57561 1.26511 3.47214C1.36858 3.36867 1.50891 3.31055 1.65524 3.31055H14.3449C14.4912 3.31055 14.6316 3.36867 14.735 3.47214C14.8385 3.57561 14.8966 3.71594 14.8966 3.86227C14.8966 4.0086 14.8385 4.14893 14.735 4.2524C14.6316 4.35587 14.4912 4.414 14.3449 4.414ZM8.00007 12.6899C7.85374 12.6899 7.71341 12.6317 7.60994 12.5283C7.50647 12.4248 7.44834 12.2845 7.44834 12.1381V6.06917C7.44834 5.92284 7.50647 5.78251 7.60994 5.67904C7.71341 5.57557 7.85374 5.51744 8.00007 5.51744C8.14639 5.51744 8.28673 5.57557 8.39019 5.67904C8.49366 5.78251 8.55179 5.92284 8.55179 6.06917V12.1381C8.55179 12.2845 8.49366 12.4248 8.39019 12.5283C8.28673 12.6317 8.14639 12.6899 8.00007 12.6899ZM6.06848 12.6899C5.93084 12.6897 5.79822 12.6382 5.69665 12.5453C5.59508 12.4524 5.5319 12.3249 5.51952 12.1878L4.96779 6.11882C4.95461 5.97317 4.9998 5.82824 5.09342 5.71588C5.18705 5.60353 5.32146 5.53295 5.4671 5.51965C5.61284 5.50677 5.75775 5.55212 5.87014 5.64579C5.98253 5.73947 6.05325 5.87384 6.06683 6.01951L6.61855 12.0885C6.62545 12.1649 6.61636 12.2418 6.59184 12.3145C6.56733 12.3872 6.52793 12.4539 6.47617 12.5105C6.42441 12.5671 6.36143 12.6123 6.29123 12.6432C6.22103 12.674 6.14517 12.6899 6.06848 12.6899ZM9.93165 12.6899C9.85496 12.6899 9.7791 12.674 9.7089 12.6432C9.63871 12.6123 9.57572 12.5671 9.52396 12.5105C9.4722 12.4539 9.43281 12.3872 9.40829 12.3145C9.38378 12.2418 9.37468 12.1649 9.38158 12.0885L9.93331 6.01951C9.96145 5.71606 10.2263 5.49758 10.533 5.51965C10.6787 5.53295 10.8131 5.60353 10.9067 5.71588C11.0003 5.82824 11.0455 5.97317 11.0323 6.11882L10.4806 12.1878C10.4682 12.3249 10.4051 12.4524 10.3035 12.5453C10.2019 12.6382 10.0693 12.6897 9.93165 12.6899Z" fill="white"/>
<path d="M10.4831 4.41386H5.51754C5.37122 4.41386 5.23089 4.35573 5.12742 4.25226C5.02395 4.1488 4.96582 4.00846 4.96582 3.86214V1.65524C4.96582 1.50891 5.02395 1.36858 5.12742 1.26511C5.23089 1.16164 5.37122 1.10352 5.51754 1.10352H10.4831C10.6294 1.10352 10.7697 1.16164 10.8732 1.26511C10.9767 1.36858 11.0348 1.50891 11.0348 1.65524V3.86214C11.0348 4.00846 10.9767 4.1488 10.8732 4.25226C10.7697 4.35573 10.6294 4.41386 10.4831 4.41386ZM6.06927 3.31041H9.93134V2.20696H6.06927V3.31041Z" fill="white"/>
</svg>
