<svg width="66" height="66" viewBox="0 0 66 66" fill="none" xmlns="http://www.w3.org/2000/svg">
<path d="M0.322266 0.322258L0 0.63163V24.1699V47.7082L0.322266 48.0176L0.631641 48.3398H8.50781H16.3711V51.1758C16.3711 53.6766 16.3969 54.0762 16.6289 54.682C16.9512 55.5586 17.7891 56.3836 18.6656 56.7187C19.323 56.9766 19.7227 56.9766 36.2742 56.9766C52.2973 56.9766 53.2254 56.9895 53.2898 57.1957C53.3285 57.3246 53.741 59.0777 54.2051 61.1016C54.6691 63.1254 55.0945 64.9043 55.1719 65.0719C55.3652 65.4973 55.9195 65.6777 56.3965 65.4457C56.6801 65.3039 56.8734 65.059 57.0926 64.5047C57.273 64.0793 57.5695 63.3703 57.7758 62.9191L58.1496 62.0941L60.1219 64.0406C61.7461 65.652 62.1457 66 62.4551 66C62.7645 66 63.1254 65.7035 64.4145 64.4145C65.7035 63.1254 66 62.7645 66 62.4551C66 62.1457 65.652 61.7461 64.0406 60.1219L62.0941 58.1496L62.9191 57.7758C63.3703 57.5695 64.0793 57.273 64.5047 57.0926C65.4715 56.7059 65.768 56.216 65.4328 55.5844C65.3039 55.3395 65.0848 55.1332 64.8656 55.0816C64.6723 55.0301 62.8418 54.6047 60.7793 54.1406L57.041 53.277L56.9766 40.657C56.8992 26.4644 56.9895 27.5602 55.9066 26.4516C55.0945 25.6266 54.334 25.3945 52.4648 25.3945H50.918V13.0195V0.63163L50.5957 0.322258L50.2863 -7.62939e-06H25.459H0.631641L0.322266 0.322258ZM48.9844 4.18945V6.4453H25.459H1.93359V4.18945V1.93359H25.459H48.9844V4.18945ZM48.9844 16.8867V25.3945H46.084H43.1836V22.8809C43.1836 20.3672 43.1836 20.3543 42.8613 20.0449C42.4617 19.6324 41.9719 19.6324 41.5723 20.0449C41.25 20.3543 41.25 20.3672 41.25 22.8809V25.3945H30.293C19.684 25.3945 19.323 25.4074 18.6656 25.6523C17.7891 25.9746 16.9641 26.8125 16.6289 27.6891C16.384 28.3207 16.3711 28.6945 16.3711 34.0957V39.832H15.6105C14.6566 39.832 14.1797 40.1543 14.1797 40.7988C14.1797 41.4434 14.6566 41.7656 15.6105 41.7656H16.3711V44.0859V46.4062H9.15234H1.93359V27.3926V8.3789H25.459H48.9844V16.8867ZM54.2309 27.5859C55.0945 28.1016 55.043 27.341 55.043 40.7086V52.8129L54.2051 52.6195C52.7613 52.2715 52.2715 52.7613 52.6195 54.2051L52.8129 55.043H36.1711C19.8902 55.043 19.5164 55.0301 19.1168 54.7852C18.2531 54.2695 18.3047 55.0687 18.3047 41.1855C18.3047 27.3023 18.2531 28.1016 19.1168 27.5859C19.5164 27.3281 19.8902 27.3281 36.6738 27.3281C53.4574 27.3281 53.8312 27.3281 54.2309 27.5859ZM58.0852 55.4941C59.7738 55.8937 61.2305 56.2289 61.2949 56.2547C61.3723 56.2805 61.0371 56.4738 60.5602 56.693C60.0961 56.8992 59.6449 57.1957 59.5676 57.3375C59.2453 57.9434 59.3742 58.1367 61.5527 60.3281L63.6797 62.468L63.0738 63.0738L62.468 63.6797L60.3281 61.5527C58.1367 59.3742 57.9434 59.2453 57.3375 59.5676C57.1957 59.6449 56.8992 60.0961 56.693 60.5602C56.4738 61.0371 56.2805 61.3594 56.2547 61.2949C56.1645 61.05 54.7852 55.0301 54.7852 54.9141C54.7852 54.7336 54.7078 54.7207 58.0852 55.4941Z" fill="black"/>
<path d="M37.7051 3.54492C37.5246 3.7125 37.3828 4.00898 37.3828 4.18945C37.3828 4.36992 37.5246 4.66641 37.7051 4.83398C37.9758 5.11758 38.1305 5.15625 38.9941 5.15625C39.8578 5.15625 40.0125 5.11758 40.2832 4.83398C40.4637 4.66641 40.6055 4.36992 40.6055 4.18945C40.6055 4.00898 40.4637 3.7125 40.2832 3.54492C40.0125 3.26133 39.8578 3.22266 38.9941 3.22266C38.1305 3.22266 37.9758 3.26133 37.7051 3.54492Z" fill="black"/>
<path d="M42.8613 3.54492C42.6809 3.7125 42.5391 4.00898 42.5391 4.18945C42.5391 4.36992 42.6809 4.66641 42.8613 4.83398C43.132 5.11758 43.2867 5.15625 44.1504 5.15625C45.0141 5.15625 45.1688 5.11758 45.4395 4.83398C45.6199 4.66641 45.7617 4.36992 45.7617 4.18945C45.7617 4.00898 45.6199 3.7125 45.4395 3.54492C45.1688 3.26133 45.0141 3.22266 44.1504 3.22266C43.2867 3.22266 43.132 3.26133 42.8613 3.54492Z" fill="black"/>
<path d="M8.05664 13.3418C7.74727 13.6383 7.73438 13.7285 7.73438 15.1207C7.73438 16.4098 7.76016 16.616 7.99219 16.8609C8.17266 17.0414 8.41758 17.1445 8.70117 17.1445C9.39727 17.1445 9.66797 16.7578 9.66797 15.7652V14.9531H10.4801C11.4727 14.9531 11.8594 14.6824 11.8594 13.9863C11.8594 13.7027 11.7562 13.4578 11.5758 13.2773C11.3309 13.0453 11.1246 13.0195 9.83555 13.0195C8.44336 13.0195 8.35312 13.0324 8.05664 13.3418Z" fill="black"/>
<path d="M14.5121 13.2902C14.048 13.6512 14.048 14.3215 14.5121 14.6824C14.8344 14.9402 15.0277 14.9531 17.2062 14.9531C19.3203 14.9531 19.591 14.9273 19.8617 14.7082C20.2742 14.373 20.2742 13.5996 19.8617 13.2645C19.591 13.0453 19.3203 13.0195 17.2062 13.0195C15.0277 13.0195 14.8344 13.0324 14.5121 13.2902Z" fill="black"/>
<path d="M22.752 13.3418C22.5715 13.5094 22.4297 13.8059 22.4297 13.9863C22.4297 14.1668 22.5715 14.4633 22.752 14.6309C23.0613 14.9531 23.0871 14.9531 25.459 14.9531C27.8309 14.9531 27.8566 14.9531 28.166 14.6309C28.3465 14.4633 28.4883 14.1668 28.4883 13.9863C28.4883 13.8059 28.3465 13.5094 28.166 13.3418C27.8566 13.0195 27.8309 13.0195 25.459 13.0195C23.0871 13.0195 23.0613 13.0195 22.752 13.3418Z" fill="black"/>
<path d="M31.0543 13.2645C30.8352 13.432 30.7578 13.6383 30.7578 13.9863C30.7578 14.3344 30.8352 14.5406 31.0543 14.7082C31.325 14.9273 31.5957 14.9531 33.7098 14.9531C35.8883 14.9531 36.0816 14.9402 36.4039 14.6824C36.6488 14.4891 36.7391 14.2957 36.7391 13.9863C36.7391 13.677 36.6488 13.4836 36.4039 13.2902C36.0816 13.0324 35.8883 13.0195 33.7098 13.0195C31.5957 13.0195 31.325 13.0453 31.0543 13.2645Z" fill="black"/>
<path d="M39.3447 13.2773C38.958 13.6383 38.958 14.3344 39.3447 14.6953C39.5639 14.9016 39.7959 14.9531 40.4404 14.9531H41.2525V15.7652C41.2525 16.7578 41.5232 17.1445 42.2193 17.1445C42.5029 17.1445 42.7479 17.0414 42.9283 16.8609C43.1604 16.616 43.1861 16.4098 43.1861 15.1207C43.1861 13.7285 43.1732 13.6383 42.8639 13.3418C42.5674 13.0324 42.4771 13.0195 41.085 13.0195C39.7959 13.0195 39.5896 13.0453 39.3447 13.2773Z" fill="black"/>
<path d="M8.05664 20.0441C7.73438 20.3535 7.73438 20.3664 7.73438 22.9188C7.73438 25.2391 7.76016 25.5227 7.9793 25.7934C8.14687 26.0125 8.35312 26.0898 8.70117 26.0898C9.04922 26.0898 9.25547 26.0125 9.42305 25.7934C9.64219 25.5227 9.66797 25.2391 9.66797 22.9188C9.66797 20.3664 9.66797 20.3535 9.3457 20.0441C9.17813 19.8637 8.88164 19.7219 8.70117 19.7219C8.5207 19.7219 8.22422 19.8637 8.05664 20.0441Z" fill="black"/>
<path d="M8.28867 28.7461C7.78594 28.9523 7.73438 29.2617 7.73438 31.9043C7.73438 34.418 7.73438 34.4309 8.05664 34.7402C8.22422 34.9207 8.5207 35.0625 8.70117 35.0625C8.88164 35.0625 9.17813 34.9207 9.3457 34.7402C9.66797 34.4309 9.66797 34.418 9.66797 31.8656C9.66797 29.5969 9.64219 29.2617 9.44883 29.0297C9.17813 28.7074 8.67539 28.5785 8.28867 28.7461Z" fill="black"/>
<path d="M7.99219 37.9242C7.76016 38.1691 7.73438 38.3754 7.73438 39.6645C7.73438 41.0566 7.74727 41.1469 8.05664 41.4434C8.35313 41.7527 8.44336 41.7656 9.83555 41.7656C11.1246 41.7656 11.3309 41.7398 11.5758 41.5078C11.9625 41.1469 11.9625 40.4508 11.5758 40.0898C11.3566 39.8836 11.1246 39.832 10.4801 39.832H9.66797V39.0199C9.66797 38.0273 9.39727 37.6406 8.70117 37.6406C8.41758 37.6406 8.17266 37.7437 7.99219 37.9242Z" fill="black"/>
</svg>
