<svg width="14" height="15" viewBox="0 0 14 15" fill="none" xmlns="http://www.w3.org/2000/svg">
<path fill-rule="evenodd" clip-rule="evenodd" d="M2.09961 12.3999C2.09961 12.0133 2.41301 11.6999 2.79961 11.6999H11.1996C11.5862 11.6999 11.8996 12.0133 11.8996 12.3999C11.8996 12.7865 11.5862 13.0999 11.1996 13.0999H2.79961C2.41301 13.0999 2.09961 12.7865 2.09961 12.3999ZM4.40463 7.00493C4.678 6.73156 5.12122 6.73156 5.39459 7.00493L6.29961 7.90996V2.5999C6.29961 2.21331 6.61301 1.8999 6.99961 1.8999C7.38622 1.8999 7.69961 2.2133 7.69961 2.5999V7.90996L8.60464 7.00493C8.87799 6.73156 9.32123 6.73156 9.59458 7.00493C9.86793 7.2783 9.86793 7.72152 9.59458 7.99487L7.49458 10.0949C7.36333 10.2261 7.18525 10.2999 6.99961 10.2999C6.81395 10.2999 6.63591 10.2261 6.50463 10.0949L4.40463 7.99487C4.13127 7.72152 4.13127 7.2783 4.40463 7.00493Z" fill="white"/>
</svg>
