<svg width="75" height="74" viewBox="0 0 75 74" fill="none" xmlns="http://www.w3.org/2000/svg">
<g filter="url(#filter0_d_1_6185)">
<path d="M34.3487 6.78276C36.0679 4.9918 38.9321 4.9918 40.6513 6.78276L41.1237 7.2749C42.1942 8.39002 43.7742 8.85639 45.2786 8.50128L45.9332 8.34676C48.3394 7.77878 50.737 9.3191 51.2206 11.7436L51.3711 12.4982C51.6709 14.0009 52.736 15.2366 54.178 15.7547L54.8854 16.0088C57.1945 16.8384 58.3676 19.4064 57.4829 21.6949L57.183 22.4708C56.6345 23.8896 56.8636 25.4916 57.7878 26.6998L58.2901 27.3565C59.7775 29.301 59.3767 32.0881 57.4016 33.5347L56.7587 34.0055C55.5281 34.9068 54.8568 36.3846 54.9876 37.9043L55.0571 38.7118C55.2682 41.1653 53.4108 43.3083 50.9522 43.4477L50.248 43.4876C48.7106 43.5748 47.3326 44.465 46.6212 45.8307L46.2878 46.4706C45.1421 48.6699 42.3976 49.4754 40.245 48.2443L39.6687 47.9147C38.325 47.1462 36.675 47.1462 35.3313 47.9147L34.755 48.2443C32.6024 49.4754 29.8579 48.6699 28.7122 46.4706L28.3788 45.8307C27.6674 44.465 26.2894 43.5748 24.752 43.4876L24.0478 43.4477C21.5892 43.3083 19.7318 41.1653 19.9429 38.7118L20.0124 37.9043C20.1432 36.3846 19.4719 34.9068 18.2413 34.0055L17.5984 33.5347C15.6233 32.0881 15.2225 29.301 16.7099 27.3565L17.2122 26.6998C18.1364 25.4916 18.3655 23.8896 17.817 22.4708L17.5171 21.6949C16.6324 19.4064 17.8055 16.8384 20.1146 16.0088L20.822 15.7547C22.264 15.2366 23.3291 14.0009 23.6289 12.4982L23.7794 11.7436C24.263 9.3191 26.6606 7.77878 29.0668 8.34676L29.7214 8.50128C31.2258 8.85639 32.8058 8.39001 33.8763 7.2749L34.3487 6.78276Z" fill="url(#paint0_linear_1_6185)"/>
<path d="M34.3487 6.78276C36.0679 4.9918 38.9321 4.9918 40.6513 6.78276L41.1237 7.2749C42.1942 8.39002 43.7742 8.85639 45.2786 8.50128L45.9332 8.34676C48.3394 7.77878 50.737 9.3191 51.2206 11.7436L51.3711 12.4982C51.6709 14.0009 52.736 15.2366 54.178 15.7547L54.8854 16.0088C57.1945 16.8384 58.3676 19.4064 57.4829 21.6949L57.183 22.4708C56.6345 23.8896 56.8636 25.4916 57.7878 26.6998L58.2901 27.3565C59.7775 29.301 59.3767 32.0881 57.4016 33.5347L56.7587 34.0055C55.5281 34.9068 54.8568 36.3846 54.9876 37.9043L55.0571 38.7118C55.2682 41.1653 53.4108 43.3083 50.9522 43.4477L50.248 43.4876C48.7106 43.5748 47.3326 44.465 46.6212 45.8307L46.2878 46.4706C45.1421 48.6699 42.3976 49.4754 40.245 48.2443L39.6687 47.9147C38.325 47.1462 36.675 47.1462 35.3313 47.9147L34.755 48.2443C32.6024 49.4754 29.8579 48.6699 28.7122 46.4706L28.3788 45.8307C27.6674 44.465 26.2894 43.5748 24.752 43.4876L24.0478 43.4477C21.5892 43.3083 19.7318 41.1653 19.9429 38.7118L20.0124 37.9043C20.1432 36.3846 19.4719 34.9068 18.2413 34.0055L17.5984 33.5347C15.6233 32.0881 15.2225 29.301 16.7099 27.3565L17.2122 26.6998C18.1364 25.4916 18.3655 23.8896 17.817 22.4708L17.5171 21.6949C16.6324 19.4064 17.8055 16.8384 20.1146 16.0088L20.822 15.7547C22.264 15.2366 23.3291 14.0009 23.6289 12.4982L23.7794 11.7436C24.263 9.3191 26.6606 7.77878 29.0668 8.34676L29.7214 8.50128C31.2258 8.85639 32.8058 8.39001 33.8763 7.2749L34.3487 6.78276Z" fill="url(#paint1_linear_1_6185)" fill-opacity="0.1"/>
<path d="M21.2061 27.3176C21.2061 18.3191 28.5008 11.0244 37.4993 11.0244C46.4979 11.0244 53.7926 18.3191 53.7926 27.3176V27.6527C53.7926 36.6513 46.4979 43.946 37.4993 43.946C28.5008 43.946 21.2061 36.6513 21.2061 27.6527V27.3176Z" fill="black" fill-opacity="0.04"/>
<path d="M22.8371 27.3176C22.8371 19.2199 29.4016 12.6554 37.4993 12.6554C45.5971 12.6554 52.1616 19.2199 52.1616 27.3176V27.6527C52.1616 35.7505 45.5971 42.315 37.4993 42.315C29.4016 42.315 22.8371 35.7505 22.8371 27.6527V27.3176Z" stroke="white" stroke-opacity="0.3" stroke-width="3.26201"/>
<path d="M34.8138 30.4601L31.6853 27.2994C31.5169 27.1289 31.2882 27.033 31.0497 27.033C30.8112 27.033 30.5825 27.1289 30.4141 27.2994C30.0625 27.6547 30.0625 28.2285 30.4141 28.5837L34.1827 32.3911C34.5343 32.7463 35.1023 32.7463 35.4539 32.3911L44.9927 22.7543C45.3443 22.399 45.3443 21.8252 44.9927 21.47C44.8242 21.2994 44.5955 21.2036 44.3571 21.2036C44.1186 21.2036 43.8899 21.2994 43.7214 21.47L34.8138 30.4601Z" fill="white" stroke="#FDFDFD" stroke-width="0.652402"/>
<path d="M37.4998 12.8214C37.4998 11.8826 38.2629 11.1125 39.1968 11.2089C42.1451 11.5135 44.9685 12.6076 47.3625 14.3903C50.2127 16.5127 52.3022 19.4979 53.3207 22.9024C54.3391 26.307 54.2321 29.9493 53.0156 33.2882C51.7991 36.6271 49.5379 39.4845 46.568 41.4359C43.5981 43.3873 40.078 44.3287 36.5305 44.1201C32.983 43.9115 29.5974 42.5641 26.8767 40.278C24.156 37.992 22.2453 34.8892 21.4285 31.4308C20.7424 28.5258 20.8588 25.5001 21.7494 22.6731C22.0315 21.7776 23.0413 21.3829 23.903 21.7555C24.7647 22.1281 25.1495 23.1272 24.8914 24.0298C24.2772 26.1777 24.2194 28.4569 24.7372 30.6493C25.3858 33.3958 26.9032 35.8597 29.0637 37.6751C31.2243 39.4905 33.9129 40.5605 36.73 40.7262C39.5472 40.8919 42.3426 40.1443 44.7011 38.5947C47.0596 37.045 48.8552 34.7758 49.8213 32.1243C50.7873 29.4728 50.8723 26.5804 50.0635 23.8768C49.2548 21.1731 47.5954 18.8025 45.332 17.117C43.5252 15.7716 41.4103 14.92 39.195 14.6313C38.2641 14.5099 37.4998 13.7602 37.4998 12.8214Z" fill="white" fill-opacity="0.5"/>
</g>
<defs>
<filter id="filter0_d_1_6185" x="-0.862715" y="-1.4546" width="76.7254" height="76.7254" filterUnits="userSpaceOnUse" color-interpolation-filters="sRGB">
<feFlood flood-opacity="0" result="BackgroundImageFix"/>
<feColorMatrix in="SourceAlpha" type="matrix" values="0 0 0 0 0 0 0 0 0 0 0 0 0 0 0 0 0 0 127 0" result="hardAlpha"/>
<feOffset dy="9.90848"/>
<feGaussianBlur stdDeviation="7.43136"/>
<feComposite in2="hardAlpha" operator="out"/>
<feColorMatrix type="matrix" values="0 0 0 0 1 0 0 0 0 0.55892 0 0 0 0 0.770638 0 0 0 0.4 0"/>
<feBlend mode="normal" in2="BackgroundImageFix" result="effect1_dropShadow_1_6185"/>
<feBlend mode="normal" in="SourceGraphic" in2="effect1_dropShadow_1_6185" result="shape"/>
</filter>
<linearGradient id="paint0_linear_1_6185" x1="22.2525" y1="7.90122" x2="48.0318" y2="48.535" gradientUnits="userSpaceOnUse">
<stop stop-color="#FFCDE5"/>
<stop offset="1" stop-color="#FD3796"/>
</linearGradient>
<linearGradient id="paint1_linear_1_6185" x1="5.92848" y1="-0.171997" x2="41.6313" y2="63.5544" gradientUnits="userSpaceOnUse">
<stop stop-color="white"/>
<stop offset="1" stop-color="white" stop-opacity="0"/>
</linearGradient>
</defs>
</svg>
