<svg width="75" height="74" viewBox="0 0 75 74" fill="none" xmlns="http://www.w3.org/2000/svg">
<g filter="url(#filter0_d_1_6197)">
<path d="M34.3487 6.78276C36.0679 4.9918 38.9321 4.9918 40.6513 6.78276L41.1237 7.2749C42.1942 8.39002 43.7742 8.85639 45.2786 8.50128L45.9332 8.34676C48.3394 7.77878 50.737 9.3191 51.2206 11.7436L51.3711 12.4982C51.6709 14.0009 52.736 15.2366 54.178 15.7547L54.8854 16.0088C57.1945 16.8384 58.3676 19.4064 57.4829 21.6949L57.183 22.4708C56.6345 23.8896 56.8636 25.4916 57.7878 26.6998L58.2901 27.3565C59.7775 29.301 59.3767 32.0881 57.4016 33.5347L56.7587 34.0055C55.5281 34.9068 54.8568 36.3846 54.9876 37.9043L55.0571 38.7118C55.2682 41.1653 53.4108 43.3083 50.9522 43.4477L50.248 43.4876C48.7106 43.5748 47.3326 44.465 46.6212 45.8307L46.2878 46.4706C45.1421 48.6699 42.3976 49.4754 40.245 48.2443L39.6687 47.9147C38.325 47.1462 36.675 47.1462 35.3313 47.9147L34.755 48.2443C32.6024 49.4754 29.8579 48.6699 28.7122 46.4706L28.3788 45.8307C27.6674 44.465 26.2894 43.5748 24.752 43.4876L24.0478 43.4477C21.5892 43.3083 19.7318 41.1653 19.9429 38.7118L20.0124 37.9043C20.1432 36.3846 19.4719 34.9068 18.2413 34.0055L17.5984 33.5347C15.6233 32.0881 15.2225 29.301 16.7099 27.3565L17.2122 26.6998C18.1364 25.4916 18.3655 23.8896 17.817 22.4708L17.5171 21.6949C16.6324 19.4064 17.8055 16.8384 20.1146 16.0088L20.822 15.7547C22.264 15.2366 23.3291 14.0009 23.6289 12.4982L23.7794 11.7436C24.263 9.3191 26.6606 7.77878 29.0668 8.34676L29.7214 8.50128C31.2258 8.85639 32.8058 8.39001 33.8763 7.2749L34.3487 6.78276Z" fill="url(#paint0_linear_1_6197)"/>
<path d="M34.3487 6.78276C36.0679 4.9918 38.9321 4.9918 40.6513 6.78276L41.1237 7.2749C42.1942 8.39002 43.7742 8.85639 45.2786 8.50128L45.9332 8.34676C48.3394 7.77878 50.737 9.3191 51.2206 11.7436L51.3711 12.4982C51.6709 14.0009 52.736 15.2366 54.178 15.7547L54.8854 16.0088C57.1945 16.8384 58.3676 19.4064 57.4829 21.6949L57.183 22.4708C56.6345 23.8896 56.8636 25.4916 57.7878 26.6998L58.2901 27.3565C59.7775 29.301 59.3767 32.0881 57.4016 33.5347L56.7587 34.0055C55.5281 34.9068 54.8568 36.3846 54.9876 37.9043L55.0571 38.7118C55.2682 41.1653 53.4108 43.3083 50.9522 43.4477L50.248 43.4876C48.7106 43.5748 47.3326 44.465 46.6212 45.8307L46.2878 46.4706C45.1421 48.6699 42.3976 49.4754 40.245 48.2443L39.6687 47.9147C38.325 47.1462 36.675 47.1462 35.3313 47.9147L34.755 48.2443C32.6024 49.4754 29.8579 48.6699 28.7122 46.4706L28.3788 45.8307C27.6674 44.465 26.2894 43.5748 24.752 43.4876L24.0478 43.4477C21.5892 43.3083 19.7318 41.1653 19.9429 38.7118L20.0124 37.9043C20.1432 36.3846 19.4719 34.9068 18.2413 34.0055L17.5984 33.5347C15.6233 32.0881 15.2225 29.301 16.7099 27.3565L17.2122 26.6998C18.1364 25.4916 18.3655 23.8896 17.817 22.4708L17.5171 21.6949C16.6324 19.4064 17.8055 16.8384 20.1146 16.0088L20.822 15.7547C22.264 15.2366 23.3291 14.0009 23.6289 12.4982L23.7794 11.7436C24.263 9.3191 26.6606 7.77878 29.0668 8.34676L29.7214 8.50128C31.2258 8.85639 32.8058 8.39001 33.8763 7.2749L34.3487 6.78276Z" fill="url(#paint1_linear_1_6197)" fill-opacity="0.1"/>
<path d="M21.2065 27.318C21.2065 18.3194 28.5013 11.0247 37.4998 11.0247V11.0247C46.4984 11.0247 53.7931 18.3194 53.7931 27.318V27.653C53.7931 36.6516 46.4984 43.9463 37.4998 43.9463V43.9463C28.5013 43.9463 21.2065 36.6516 21.2065 27.653V27.318Z" fill="black" fill-opacity="0.04"/>
<path d="M52.1621 27.318V27.653C52.1621 35.7508 45.5976 42.3153 37.4998 42.3153C29.4021 42.3153 22.8375 35.7508 22.8375 27.653V27.318C22.8375 19.2202 29.4021 12.6557 37.4998 12.6557C45.5976 12.6557 52.1621 19.2202 52.1621 27.318Z" stroke="white" stroke-opacity="0.3" stroke-width="3.26201"/>
<path d="M34.8148 30.46L31.6863 27.2994C31.5179 27.1288 31.2892 27.033 31.0507 27.033C30.8122 27.033 30.5835 27.1288 30.4151 27.2994C30.0635 27.6546 30.0635 28.2284 30.4151 28.5837L34.1837 32.391C34.5353 32.7463 35.1033 32.7463 35.4549 32.391L44.9937 22.7542C45.3453 22.399 45.3453 21.8251 44.9937 21.4699C44.8252 21.2993 44.5965 21.2035 44.358 21.2035C44.1196 21.2035 43.8909 21.2993 43.7224 21.4699L34.8148 30.46Z" fill="white" stroke="#FDFDFD" stroke-width="0.652402"/>
<path d="M37.4998 12.8211C37.4998 11.8823 38.2629 11.1122 39.1968 11.2087C42.1451 11.5132 44.9685 12.6073 47.3625 14.39C50.2127 16.5124 52.3022 19.4976 53.3207 22.9022C54.3391 26.3068 54.2321 29.949 53.0156 33.2879C51.7991 36.6268 49.5379 39.4843 46.568 41.4357C43.5981 43.3871 40.078 44.3284 36.5305 44.1198C32.983 43.9112 29.5974 42.5638 26.8767 40.2778C24.156 37.9917 22.2453 34.889 21.4285 31.4305C20.7424 28.5256 20.8588 25.4998 21.7494 22.6728C22.0315 21.7774 23.0413 21.3827 23.903 21.7553V21.7553C24.7647 22.1279 25.1495 23.1269 24.8914 24.0295C24.2772 26.1775 24.2194 28.4566 24.7372 30.6491C25.3858 33.3955 26.9032 35.8595 29.0637 37.6749C31.2243 39.4903 33.9129 40.5603 36.73 40.726C39.5472 40.8916 42.3426 40.1441 44.7011 38.5944C47.0596 37.0447 48.8552 34.7756 49.8213 32.1241C50.7873 29.4726 50.8723 26.5802 50.0635 23.8765C49.2548 21.1729 47.5954 18.8022 45.332 17.1168C43.5252 15.7713 41.4103 14.9198 39.195 14.631C38.2641 14.5097 37.4998 13.76 37.4998 12.8211V12.8211Z" fill="white" fill-opacity="0.5"/>
</g>
<defs>
<filter id="filter0_d_1_6197" x="-0.862715" y="-1.4546" width="76.7254" height="76.7254" filterUnits="userSpaceOnUse" color-interpolation-filters="sRGB">
<feFlood flood-opacity="0" result="BackgroundImageFix"/>
<feColorMatrix in="SourceAlpha" type="matrix" values="0 0 0 0 0 0 0 0 0 0 0 0 0 0 0 0 0 0 127 0" result="hardAlpha"/>
<feOffset dy="9.90848"/>
<feGaussianBlur stdDeviation="7.43136"/>
<feComposite in2="hardAlpha" operator="out"/>
<feColorMatrix type="matrix" values="0 0 0 0 0.917647 0 0 0 0 0.690196 0 0 0 0 0.12549 0 0 0 0.4 0"/>
<feBlend mode="normal" in2="BackgroundImageFix" result="effect1_dropShadow_1_6197"/>
<feBlend mode="normal" in="SourceGraphic" in2="effect1_dropShadow_1_6197" result="shape"/>
</filter>
<linearGradient id="paint0_linear_1_6197" x1="22.2525" y1="7.90122" x2="48.0318" y2="48.535" gradientUnits="userSpaceOnUse">
<stop stop-color="#FFE092"/>
<stop offset="1" stop-color="#E3A302"/>
</linearGradient>
<linearGradient id="paint1_linear_1_6197" x1="5.92848" y1="-0.171997" x2="41.6313" y2="63.5544" gradientUnits="userSpaceOnUse">
<stop stop-color="white"/>
<stop offset="1" stop-color="white" stop-opacity="0"/>
</linearGradient>
</defs>
</svg>
