<svg width="34" height="34" viewBox="0 0 34 34" fill="none" xmlns="http://www.w3.org/2000/svg">
<path fill-rule="evenodd" clip-rule="evenodd" d="M17.0001 4.81673C14.9658 4.81673 13.3167 6.46582 13.3167 8.50006C13.3167 10.5343 14.9658 12.1834 17.0001 12.1834C19.0343 12.1834 20.6834 10.5343 20.6834 8.50006C20.6834 6.46582 19.0343 4.81673 17.0001 4.81673ZM10.4834 8.50006C10.4834 4.90101 13.401 1.9834 17.0001 1.9834C20.5991 1.9834 23.5167 4.90101 23.5167 8.50006C23.5167 12.0991 20.5991 15.0167 17.0001 15.0167C13.401 15.0167 10.4834 12.0991 10.4834 8.50006ZM5.90729 21.092C8.48708 19.0902 12.2264 17.958 17.0001 17.958C21.7737 17.958 25.513 19.0902 28.0928 21.092C30.704 23.1182 32.0167 25.9559 32.0167 29.0593C32.0167 30.5486 30.8983 32.0167 29.2134 32.0167H4.78673C3.10179 32.0167 1.9834 30.5486 1.9834 29.0593C1.9834 25.9559 3.2961 23.1182 5.90729 21.092ZM7.64427 23.3305C5.73831 24.8094 4.81673 26.814 4.81673 29.0593C4.81673 29.1194 4.83285 29.1603 4.84656 29.1834H29.1536C29.1673 29.1603 29.1834 29.1194 29.1834 29.0593C29.1834 26.814 28.2618 24.8094 26.3559 23.3305C24.4185 21.8271 21.3578 20.7913 17.0001 20.7913C12.6423 20.7913 9.58161 21.8271 7.64427 23.3305Z" fill="#45464E"/>
</svg>
